{
  "accessors": [
    {
      "bufferView": 0,
      "componentType": 5126,
      "count": 5256,
      "max": [
        261.482879638672,
        83.2742080688477,
        530.347778320313
      ],
      "min": [
        122.375213623047,
        5.30833053588867,
        502.952789306641
      ],
      "type": "VEC3"
    },
    {
      "bufferView": 0,
      "byteOffset": 63072,
      "componentType": 5126,
      "count": 5256,
      "type": "VEC3"
    },
    {
      "bufferView": 1,
      "componentType": 5126,
      "count": 5256,
      "type": "SCALAR"
    },
    {
      "bufferView": 2,
      "componentType": 5123,
      "count": 7884,
      "type": "SCALAR"
    },
    {
      "bufferView": 0,
      "byteOffset": 126144,
      "componentType": 5126,
      "count": 65184,
      "max": [
        264.730834960938,
        117.043930053711,
        533.513793945313
      ],
      "min": [
        119.127159118652,
        -28.5105724334717,
        499.114196777344
      ],
      "type": "VEC3"
    },
    {
      "bufferView": 0,
      "byteOffset": 908352,
      "componentType": 5126,
      "count": 65184,
      "type": "VEC3"
    },
    {
      "bufferView": 1,
      "byteOffset": 21024,
      "componentType": 5126,
      "count": 65184,
      "type": "SCALAR"
    },
    {
      "bufferView": 2,
      "byteOffset": 15768,
      "componentType": 5123,
      "count": 151200,
      "type": "SCALAR"
    },
    {
      "bufferView": 0,
      "byteOffset": 1690560,
      "componentType": 5126,
      "count": 64296,
      "max": [
        261.794555664063,
        88.5615539550781,
        540.007080078125
      ],
      "min": [
        122.063537597656,
        -7.09186935424805,
        502.053344726563
      ],
      "type": "VEC3"
    },
    {
      "bufferView": 0,
      "byteOffset": 2462112,
      "componentType": 5126,
      "count": 64296,
      "type": "VEC3"
    },
    {
      "bufferView": 1,
      "byteOffset": 281760,
      "componentType": 5126,
      "count": 64296,
      "type": "SCALAR"
    },
    {
      "bufferView": 2,
      "byteOffset": 318168,
      "componentType": 5123,
      "count": 189504,
      "type": "SCALAR"
    },
    {
      "bufferView": 0,
      "byteOffset": 3233664,
      "componentType": 5126,
      "count": 56664,
      "max": [
        236.914566040039,
        95.6744079589844,
        540.007080078125
      ],
      "min": [
        146.94352722168,
        -7.09186935424805,
        499.179809570313
      ],
      "type": "VEC3"
    },
    {
      "bufferView": 0,
      "byteOffset": 3913632,
      "componentType": 5126,
      "count": 56664,
      "type": "VEC3"
    },
    {
      "bufferView": 1,
      "byteOffset": 538944,
      "componentType": 5126,
      "count": 56664,
      "type": "SCALAR"
    },
    {
      "bufferView": 2,
      "byteOffset": 697176,
      "componentType": 5123,
      "count": 166284,
      "type": "SCALAR"
    },
    {
      "bufferView": 0,
      "byteOffset": 4593600,
      "componentType": 5126,
      "count": 62490,
      "max": [
        263.779418945313,
        115.157348632813,
        543.881286621094
      ],
      "min": [
        120.078628540039,
        -26.4435749053955,
        499.179779052734
      ],
      "type": "VEC3"
    },
    {
      "bufferView": 0,
      "byteOffset": 5343480,
      "componentType": 5126,
      "count": 62490,
      "type": "VEC3"
    },
    {
      "bufferView": 1,
      "byteOffset": 765600,
      "componentType": 5126,
      "count": 62490,
      "type": "SCALAR"
    },
    {
      "bufferView": 2,
      "byteOffset": 1029744,
      "componentType": 5123,
      "count": 115830,
      "type": "SCALAR"
    },
    {
      "bufferView": 0,
      "byteOffset": 6093360,
      "componentType": 5126,
      "count": 192,
      "max": [
        209.809585571289,
        45.9316864013672,
        531.33203125
      ],
      "min": [
        188.320114135742,
        45.7643623352051,
        499.179809570313
      ],
      "type": "VEC3"
    },
    {
      "bufferView": 0,
      "byteOffset": 6095664,
      "componentType": 5126,
      "count": 192,
      "type": "VEC3"
    },
    {
      "bufferView": 1,
      "byteOffset": 1015560,
      "componentType": 5126,
      "count": 192,
      "type": "SCALAR"
    },
    {
      "bufferView": 2,
      "byteOffset": 1261404,
      "componentType": 5123,
      "count": 288,
      "type": "SCALAR"
    },
    {
      "bufferView": 0,
      "byteOffset": 6097968,
      "componentType": 5126,
      "count": 29968,
      "max": [
        264.648834228516,
        117.04125213623,
        541.694091796875
      ],
      "min": [
        119.209175109863,
        -28.4285526275635,
        499.179809570313
      ],
      "type": "VEC3"
    },
    {
      "bufferView": 0,
      "byteOffset": 6457584,
      "componentType": 5126,
      "count": 29968,
      "type": "VEC3"
    },
    {
      "bufferView": 1,
      "byteOffset": 1016328,
      "componentType": 5126,
      "count": 29968,
      "type": "SCALAR"
    },
    {
      "bufferView": 2,
      "byteOffset": 1261980,
      "componentType": 5123,
      "count": 44952,
      "type": "SCALAR"
    },
    {
      "bufferView": 0,
      "byteOffset": 6817200,
      "componentType": 5126,
      "count": 17088,
      "max": [
        265.222961425781,
        117.585266113281,
        541.503112792969
      ],
      "min": [
        118.635032653809,
        -29.0026988983154,
        499.179809570313
      ],
      "type": "VEC3"
    },
    {
      "bufferView": 0,
      "byteOffset": 7022256,
      "componentType": 5126,
      "count": 17088,
      "type": "VEC3"
    },
    {
      "bufferView": 1,
      "byteOffset": 1136200,
      "componentType": 5126,
      "count": 17088,
      "type": "SCALAR"
    },
    {
      "bufferView": 2,
      "byteOffset": 1351884,
      "componentType": 5123,
      "count": 25632,
      "type": "SCALAR"
    },
    {
      "bufferView": 0,
      "byteOffset": 7227312,
      "componentType": 5126,
      "count": 28700,
      "max": [
        264.648834228516,
        117.011123657227,
        541.609191894531
      ],
      "min": [
        119.209175109863,
        -28.4285526275635,
        499.179809570313
      ],
      "type": "VEC3"
    },
    {
      "bufferView": 0,
      "byteOffset": 7571712,
      "componentType": 5126,
      "count": 28700,
      "type": "VEC3"
    },
    {
      "bufferView": 1,
      "byteOffset": 1204552,
      "componentType": 5126,
      "count": 28700,
      "type": "SCALAR"
    },
    {
      "bufferView": 2,
      "byteOffset": 1403148,
      "componentType": 5123,
      "count": 43476,
      "type": "SCALAR"
    },
    {
      "bufferView": 0,
      "byteOffset": 7916112,
      "componentType": 5126,
      "count": 768,
      "max": [
        210.058929443359,
        46.0137062072754,
        531.581359863281
      ],
      "min": [
        188.070770263672,
        45.0294532775879,
        499.179809570313
      ],
      "type": "VEC3"
    },
    {
      "bufferView": 0,
      "byteOffset": 7925328,
      "componentType": 5126,
      "count": 768,
      "type": "VEC3"
    },
    {
      "bufferView": 1,
      "byteOffset": 1319352,
      "componentType": 5126,
      "count": 768,
      "type": "SCALAR"
    },
    {
      "bufferView": 2,
      "byteOffset": 1490100,
      "componentType": 5123,
      "count": 1344,
      "type": "SCALAR"
    },
    {
      "bufferView": 0,
      "byteOffset": 7934544,
      "componentType": 5126,
      "count": 3576,
      "max": [
        197.736068725586,
        69.704704284668,
        536.023620605469
      ],
      "min": [
        166.436935424805,
        24.1141109466553,
        507.336395263672
      ],
      "type": "VEC3"
    },
    {
      "bufferView": 0,
      "byteOffset": 7977456,
      "componentType": 5126,
      "count": 3576,
      "type": "VEC3"
    },
    {
      "bufferView": 1,
      "byteOffset": 1322424,
      "componentType": 5126,
      "count": 3576,
      "type": "SCALAR"
    },
    {
      "bufferView": 2,
      "byteOffset": 1492788,
      "componentType": 5123,
      "count": 9720,
      "type": "SCALAR"
    },
    {
      "bufferView": 0,
      "byteOffset": 8020368,
      "componentType": 5126,
      "count": 33378,
      "max": [
        197.834503173828,
        68.471061706543,
        535.559387207031
      ],
      "min": [
        166.338500976563,
        24.1141109466553,
        507.222686767578
      ],
      "type": "VEC3"
    },
    {
      "bufferView": 0,
      "byteOffset": 8420904,
      "componentType": 5126,
      "count": 33378,
      "type": "VEC3"
    },
    {
      "bufferView": 1,
      "byteOffset": 1336728,
      "componentType": 5126,
      "count": 33378,
      "type": "SCALAR"
    },
    {
      "bufferView": 2,
      "byteOffset": 1512228,
      "componentType": 5123,
      "count": 72108,
      "type": "SCALAR"
    },
    {
      "bufferView": 0,
      "byteOffset": 8821440,
      "componentType": 5126,
      "count": 7140,
      "max": [
        204.992904663086,
        45.1114730834961,
        534.710693359375
      ],
      "min": [
        201.706390380859,
        45.0458564758301,
        508.132507324219
      ],
      "type": "VEC3"
    },
    {
      "bufferView": 0,
      "byteOffset": 8907120,
      "componentType": 5126,
      "count": 7140,
      "type": "VEC3"
    },
    {
      "bufferView": 1,
      "byteOffset": 1470240,
      "componentType": 5126,
      "count": 7140,
      "type": "SCALAR"
    },
    {
      "bufferView": 2,
      "byteOffset": 1656444,
      "componentType": 5123,
      "count": 14004,
      "type": "SCALAR"
    },
    {
      "bufferView": 0,
      "byteOffset": 8992800,
      "componentType": 5126,
      "count": 3444,
      "max": [
        199.474990844727,
        72.1938018798828,
        535.489929199219
      ],
      "min": [
        196.325378417969,
        20.2473011016846,
        509.560913085938
      ],
      "type": "VEC3"
    },
    {
      "bufferView": 0,
      "byteOffset": 9034128,
      "componentType": 5126,
      "count": 3444,
      "type": "VEC3"
    },
    {
      "bufferView": 1,
      "byteOffset": 1498800,
      "componentType": 5126,
      "count": 3444,
      "type": "SCALAR"
    },
    {
      "bufferView": 2,
      "byteOffset": 1684452,
      "componentType": 5123,
      "count": 6696,
      "type": "SCALAR"
    },
    {
      "bufferView": 0,
      "byteOffset": 9075456,
      "componentType": 5126,
      "count": 17700,
      "max": [
        191.666519165039,
        69.8031311035156,
        536.089233398438
      ],
      "min": [
        191.60090637207,
        56.6797752380371,
        509.809692382813
      ],
      "type": "VEC3"
    },
    {
      "bufferView": 0,
      "byteOffset": 9287856,
      "componentType": 5126,
      "count": 17700,
      "type": "VEC3"
    },
    {
      "bufferView": 1,
      "byteOffset": 1512576,
      "componentType": 5126,
      "count": 17700,
      "type": "SCALAR"
    },
    {
      "bufferView": 2,
      "byteOffset": 1697844,
      "componentType": 5123,
      "count": 35028,
      "type": "SCALAR"
    },
    {
      "bufferView": 0,
      "byteOffset": 9500256,
      "componentType": 5126,
      "count": 3108,
      "max": [
        263.779418945313,
        116.141662597656,
        536.581359863281
      ],
      "min": [
        120.078628540039,
        -27.5591239929199,
        511.482940673828
      ],
      "type": "VEC3"
    },
    {
      "bufferView": 0,
      "byteOffset": 9537552,
      "componentType": 5126,
      "count": 3108,
      "type": "VEC3"
    },
    {
      "bufferView": 1,
      "byteOffset": 1583376,
      "componentType": 5126,
      "count": 3108,
      "type": "SCALAR"
    },
    {
      "bufferView": 2,
      "byteOffset": 1767900,
      "componentType": 5123,
      "count": 7548,
      "type": "SCALAR"
    }
  ],
  "asset": {
    "version": "2.0"
  },
  "bufferViews": [
    {
      "buffer": 0,
      "byteLength": 9574848,
      "byteStride": 12,
      "target": 34962
    },
    {
      "buffer": 0,
      "byteLength": 1595808,
      "byteOffset": 9574848,
      "byteStride": 4,
      "target": 34962
    },
    {
      "buffer": 0,
      "byteLength": 1782996,
      "byteOffset": 11170656,
      "target": 34963
    }
  ],
  "buffers": [
    {
      "byteLength": 12953652,
      "uri": "7-10.bin"
    }
  ],
  "materials": [
    {
      "alphaMode": "BLEND",
      "name": "material玻璃",
      "pbrMetallicRoughness": {
        "baseColorFactor": [
          0.854902,
          0.8901961,
          0.8784314,
          0.15
        ],
        "metallicFactor": 0.0,
        "roughnessFactor": 0.5
      }
    },
    {
      "alphaMode": "BLEND",
      "name": "material",
      "pbrMetallicRoughness": {
        "baseColorFactor": [
          0.8,
          0.8,
          0.8,
          0.0
        ],
        "metallicFactor": 0.0,
        "roughnessFactor": 0.0
      }
    },
    {
      "alphaMode": "OPAQUE",
      "name": "material金属 - 钢 - 深灰色",
      "pbrMetallicRoughness": {
        "baseColorFactor": [
          0.5019608,
          0.5019608,
          0.5019608,
          1.0
        ],
        "metallicFactor": 0.0,
        "roughnessFactor": 0.5
      }
    },
    {
      "alphaMode": "OPAQUE",
      "name": "material门 - 嵌板",
      "pbrMetallicRoughness": {
        "baseColorFactor": [
          0.8235294,
          0.6235294,
          0.372549,
          1.0
        ],
        "metallicFactor": 0.0,
        "roughnessFactor": 0.5
      }
    },
    {
      "alphaMode": "OPAQUE",
      "name": "material铝",
      "pbrMetallicRoughness": {
        "baseColorFactor": [
          0.9686275,
          0.9686275,
          0.9686275,
          1.0
        ],
        "metallicFactor": 0.0,
        "roughnessFactor": 0.5
      }
    },
    {
      "alphaMode": "OPAQUE",
      "name": "material深灰色金属肋",
      "pbrMetallicRoughness": {
        "baseColorFactor": [
          0.4705882,
          0.4705882,
          0.4705882,
          1.0
        ],
        "metallicFactor": 0.0,
        "roughnessFactor": 0.5
      }
    },
    {
      "alphaMode": "BLEND",
      "name": "material灰绿色玻璃",
      "pbrMetallicRoughness": {
        "baseColorFactor": [
          0.1607843,
          0.3215686,
          0.3215686,
          0.8
        ],
        "metallicFactor": 0.0,
        "roughnessFactor": 0.5
      }
    },
    {
      "alphaMode": "OPAQUE",
      "name": "material门 - 框架",
      "pbrMetallicRoughness": {
        "baseColorFactor": [
          0.4627451,
          0.2745098,
          0.2,
          1.0
        ],
        "metallicFactor": 0.0,
        "roughnessFactor": 0.5
      }
    },
    {
      "alphaMode": "OPAQUE",
      "name": "material白色",
      "pbrMetallicRoughness": {
        "baseColorFactor": [
          0.9568627,
          0.9568627,
          0.9568627,
          1.0
        ],
        "metallicFactor": 0.0,
        "roughnessFactor": 0.5
      }
    },
    {
      "alphaMode": "OPAQUE",
      "name": "material淡蓝色字体",
      "pbrMetallicRoughness": {
        "baseColorFactor": [
          0.0,
          0.7490196,
          1.0,
          1.0
        ],
        "metallicFactor": 0.0,
        "roughnessFactor": 0.5
      }
    },
    {
      "alphaMode": "OPAQUE",
      "name": "material功能性房间",
      "pbrMetallicRoughness": {
        "baseColorFactor": [
          0.0,
          0.0,
          1.0,
          1.0
        ],
        "metallicFactor": 0.0,
        "roughnessFactor": 0.5
      }
    },
    {
      "alphaMode": "OPAQUE",
      "name": "material蓝色",
      "pbrMetallicRoughness": {
        "baseColorFactor": [
          0.09019608,
          0.145098,
          0.972549,
          1.0
        ],
        "metallicFactor": 0.0,
        "roughnessFactor": 0.5
      }
    },
    {
      "alphaMode": "OPAQUE",
      "name": "material红色",
      "pbrMetallicRoughness": {
        "baseColorFactor": [
          0.6980392,
          0.0,
          0.0,
          1.0
        ],
        "metallicFactor": 0.0,
        "roughnessFactor": 0.5
      }
    },
    {
      "alphaMode": "OPAQUE",
      "name": "material默认楼板",
      "pbrMetallicRoughness": {
        "baseColorFactor": [
          0.4980392,
          0.4980392,
          0.4980392,
          1.0
        ],
        "metallicFactor": 0.0,
        "roughnessFactor": 0.5
      }
    }
  ],
  "meshes": [
    {
      "primitives": [
        {
          "attributes": {
            "NORMAL": 1,
            "POSITION": 0,
            "_BATCHID": 2
          },
          "indices": 3,
          "material": 0,
          "mode": 4
        }
      ]
    },
    {
      "primitives": [
        {
          "attributes": {
            "NORMAL": 5,
            "POSITION": 4,
            "_BATCHID": 6
          },
          "indices": 7,
          "material": 1,
          "mode": 4
        }
      ]
    },
    {
      "primitives": [
        {
          "attributes": {
            "NORMAL": 9,
            "POSITION": 8,
            "_BATCHID": 10
          },
          "indices": 11,
          "material": 1,
          "mode": 4
        }
      ]
    },
    {
      "primitives": [
        {
          "attributes": {
            "NORMAL": 13,
            "POSITION": 12,
            "_BATCHID": 14
          },
          "indices": 15,
          "material": 1,
          "mode": 4
        }
      ]
    },
    {
      "primitives": [
        {
          "attributes": {
            "NORMAL": 17,
            "POSITION": 16,
            "_BATCHID": 18
          },
          "indices": 19,
          "material": 2,
          "mode": 4
        }
      ]
    },
    {
      "primitives": [
        {
          "attributes": {
            "NORMAL": 21,
            "POSITION": 20,
            "_BATCHID": 22
          },
          "indices": 23,
          "material": 3,
          "mode": 4
        }
      ]
    },
    {
      "primitives": [
        {
          "attributes": {
            "NORMAL": 25,
            "POSITION": 24,
            "_BATCHID": 26
          },
          "indices": 27,
          "material": 4,
          "mode": 4
        }
      ]
    },
    {
      "primitives": [
        {
          "attributes": {
            "NORMAL": 29,
            "POSITION": 28,
            "_BATCHID": 30
          },
          "indices": 31,
          "material": 5,
          "mode": 4
        }
      ]
    },
    {
      "primitives": [
        {
          "attributes": {
            "NORMAL": 33,
            "POSITION": 32,
            "_BATCHID": 34
          },
          "indices": 35,
          "material": 6,
          "mode": 4
        }
      ]
    },
    {
      "primitives": [
        {
          "attributes": {
            "NORMAL": 37,
            "POSITION": 36,
            "_BATCHID": 38
          },
          "indices": 39,
          "material": 7,
          "mode": 4
        }
      ]
    },
    {
      "primitives": [
        {
          "attributes": {
            "NORMAL": 41,
            "POSITION": 40,
            "_BATCHID": 42
          },
          "indices": 43,
          "material": 8,
          "mode": 4
        }
      ]
    },
    {
      "primitives": [
        {
          "attributes": {
            "NORMAL": 45,
            "POSITION": 44,
            "_BATCHID": 46
          },
          "indices": 47,
          "material": 9,
          "mode": 4
        }
      ]
    },
    {
      "primitives": [
        {
          "attributes": {
            "NORMAL": 49,
            "POSITION": 48,
            "_BATCHID": 50
          },
          "indices": 51,
          "material": 10,
          "mode": 4
        }
      ]
    },
    {
      "primitives": [
        {
          "attributes": {
            "NORMAL": 53,
            "POSITION": 52,
            "_BATCHID": 54
          },
          "indices": 55,
          "material": 11,
          "mode": 4
        }
      ]
    },
    {
      "primitives": [
        {
          "attributes": {
            "NORMAL": 57,
            "POSITION": 56,
            "_BATCHID": 58
          },
          "indices": 59,
          "material": 12,
          "mode": 4
        }
      ]
    },
    {
      "primitives": [
        {
          "attributes": {
            "NORMAL": 61,
            "POSITION": 60,
            "_BATCHID": 62
          },
          "indices": 63,
          "material": 13,
          "mode": 4
        }
      ]
    }
  ],
  "nodes": [
    {
      "mesh": 0,
      "name": "test"
    },
    {
      "mesh": 1,
      "name": "test"
    },
    {
      "mesh": 2,
      "name": "test"
    },
    {
      "mesh": 3,
      "name": "test"
    },
    {
      "mesh": 4,
      "name": "test"
    },
    {
      "mesh": 5,
      "name": "test"
    },
    {
      "mesh": 6,
      "name": "test"
    },
    {
      "mesh": 7,
      "name": "test"
    },
    {
      "mesh": 8,
      "name": "test"
    },
    {
      "mesh": 9,
      "name": "test"
    },
    {
      "mesh": 10,
      "name": "test"
    },
    {
      "mesh": 11,
      "name": "test"
    },
    {
      "mesh": 12,
      "name": "test"
    },
    {
      "mesh": 13,
      "name": "test"
    },
    {
      "mesh": 14,
      "name": "test"
    },
    {
      "mesh": 15,
      "name": "test"
    }
  ],
  "scene": 0,
  "scenes": [
    {
      "name": "scene",
      "nodes": [
        0,
        1,
        2,
        3,
        4,
        5,
        6,
        7,
        8,
        9,
        10,
        11,
        12,
        13,
        14,
        15
      ]
    }
  ]
}
