{
  "accessors": [
    {
      "bufferView": 0,
      "componentType": 5126,
      "count": 25308,
      "max": [
        261.154754638672,
        115.157348632813,
        576.361572265625
      ],
      "min": [
        123.359466552734,
        -26.4435749053955,
        536.581359863281
      ],
      "type": "VEC3"
    },
    {
      "bufferView": 0,
      "byteOffset": 303696,
      "componentType": 5126,
      "count": 25308,
      "type": "VEC3"
    },
    {
      "bufferView": 1,
      "componentType": 5126,
      "count": 25308,
      "type": "SCALAR"
    },
    {
      "bufferView": 2,
      "componentType": 5123,
      "count": 46716,
      "type": "SCALAR"
    },
    {
      "bufferView": 0,
      "byteOffset": 607392,
      "componentType": 5126,
      "count": 2832,
      "max": [
        249.612731933594,
        96.7026901245117,
        562.828063964844
      ],
      "min": [
        134.245269775391,
        -8.12014675140381,
        540.354370117188
      ],
      "type": "VEC3"
    },
    {
      "bufferView": 0,
      "byteOffset": 641376,
      "componentType": 5126,
      "count": 2832,
      "type": "VEC3"
    },
    {
      "bufferView": 1,
      "byteOffset": 101232,
      "componentType": 5126,
      "count": 2832,
      "type": "SCALAR"
    },
    {
      "bufferView": 2,
      "byteOffset": 93432,
      "componentType": 5123,
      "count": 4248,
      "type": "SCALAR"
    },
    {
      "bufferView": 0,
      "byteOffset": 675360,
      "componentType": 5126,
      "count": 65408,
      "max": [
        264.730834960938,
        117.043930053711,
        572.487365722656
      ],
      "min": [
        119.176368713379,
        -28.5105724334717,
        536.515808105469
      ],
      "type": "VEC3"
    },
    {
      "bufferView": 0,
      "byteOffset": 1460256,
      "componentType": 5126,
      "count": 65408,
      "type": "VEC3"
    },
    {
      "bufferView": 1,
      "byteOffset": 112560,
      "componentType": 5126,
      "count": 65408,
      "type": "SCALAR"
    },
    {
      "bufferView": 2,
      "byteOffset": 101928,
      "componentType": 5123,
      "count": 178164,
      "type": "SCALAR"
    },
    {
      "bufferView": 0,
      "byteOffset": 2245152,
      "componentType": 5126,
      "count": 63312,
      "max": [
        264.648834228516,
        117.011123657227,
        576.345153808594
      ],
      "min": [
        119.209175109863,
        6.9107551574707,
        541.617370605469
      ],
      "type": "VEC3"
    },
    {
      "bufferView": 0,
      "byteOffset": 3004896,
      "componentType": 5126,
      "count": 63312,
      "type": "VEC3"
    },
    {
      "bufferView": 1,
      "byteOffset": 374192,
      "componentType": 5126,
      "count": 63312,
      "type": "SCALAR"
    },
    {
      "bufferView": 2,
      "byteOffset": 458256,
      "componentType": 5123,
      "count": 156588,
      "type": "SCALAR"
    },
    {
      "bufferView": 0,
      "byteOffset": 3764640,
      "componentType": 5126,
      "count": 64752,
      "max": [
        264.648834228516,
        117.011123657227,
        553.526916503906
      ],
      "min": [
        119.209175109863,
        -28.4285526275635,
        541.617370605469
      ],
      "type": "VEC3"
    },
    {
      "bufferView": 0,
      "byteOffset": 4541664,
      "componentType": 5126,
      "count": 64752,
      "type": "VEC3"
    },
    {
      "bufferView": 1,
      "byteOffset": 627440,
      "componentType": 5126,
      "count": 64752,
      "type": "SCALAR"
    },
    {
      "bufferView": 2,
      "byteOffset": 771432,
      "componentType": 5123,
      "count": 113316,
      "type": "SCALAR"
    },
    {
      "bufferView": 0,
      "byteOffset": 5318688,
      "componentType": 5126,
      "count": 64752,
      "max": [
        264.648834228516,
        117.011123657227,
        553.526916503906
      ],
      "min": [
        119.209175109863,
        -28.4285526275635,
        541.617370605469
      ],
      "type": "VEC3"
    },
    {
      "bufferView": 0,
      "byteOffset": 6095712,
      "componentType": 5126,
      "count": 64752,
      "type": "VEC3"
    },
    {
      "bufferView": 1,
      "byteOffset": 886448,
      "componentType": 5126,
      "count": 64752,
      "type": "SCALAR"
    },
    {
      "bufferView": 2,
      "byteOffset": 998064,
      "componentType": 5123,
      "count": 113316,
      "type": "SCALAR"
    },
    {
      "bufferView": 0,
      "byteOffset": 6872736,
      "componentType": 5126,
      "count": 10224,
      "max": [
        264.648834228516,
        117.011123657227,
        553.526794433594
      ],
      "min": [
        211.942153930664,
        49.5406150817871,
        541.617370605469
      ],
      "type": "VEC3"
    },
    {
      "bufferView": 0,
      "byteOffset": 6995424,
      "componentType": 5126,
      "count": 10224,
      "type": "VEC3"
    },
    {
      "bufferView": 1,
      "byteOffset": 1145456,
      "componentType": 5126,
      "count": 10224,
      "type": "SCALAR"
    },
    {
      "bufferView": 2,
      "byteOffset": 1224696,
      "componentType": 5123,
      "count": 17892,
      "type": "SCALAR"
    },
    {
      "bufferView": 0,
      "byteOffset": 7118112,
      "componentType": 5126,
      "count": 20544,
      "max": [
        264.648834228516,
        117.011123657227,
        575.623413085938
      ],
      "min": [
        119.209175109863,
        -28.4285526275635,
        536.581420898438
      ],
      "type": "VEC3"
    },
    {
      "bufferView": 0,
      "byteOffset": 7364640,
      "componentType": 5126,
      "count": 20544,
      "type": "VEC3"
    },
    {
      "bufferView": 1,
      "byteOffset": 1186352,
      "componentType": 5126,
      "count": 20544,
      "type": "SCALAR"
    },
    {
      "bufferView": 2,
      "byteOffset": 1260480,
      "componentType": 5123,
      "count": 31596,
      "type": "SCALAR"
    },
    {
      "bufferView": 0,
      "byteOffset": 7611168,
      "componentType": 5126,
      "count": 13306,
      "max": [
        197.834503173828,
        68.471061706543,
        569.023986816406
      ],
      "min": [
        166.338500976563,
        24.1141109466553,
        551.054809570313
      ],
      "type": "VEC3"
    },
    {
      "bufferView": 0,
      "byteOffset": 7770840,
      "componentType": 5126,
      "count": 13306,
      "type": "VEC3"
    },
    {
      "bufferView": 1,
      "byteOffset": 1268528,
      "componentType": 5126,
      "count": 13306,
      "type": "SCALAR"
    },
    {
      "bufferView": 2,
      "byteOffset": 1323672,
      "componentType": 5123,
      "count": 28704,
      "type": "SCALAR"
    },
    {
      "bufferView": 0,
      "byteOffset": 7930512,
      "componentType": 5126,
      "count": 21144,
      "max": [
        264.648834228516,
        117.04125213623,
        575.623413085938
      ],
      "min": [
        119.209175109863,
        -28.4285526275635,
        536.581420898438
      ],
      "type": "VEC3"
    },
    {
      "bufferView": 0,
      "byteOffset": 8184240,
      "componentType": 5126,
      "count": 21144,
      "type": "VEC3"
    },
    {
      "bufferView": 1,
      "byteOffset": 1321752,
      "componentType": 5126,
      "count": 21144,
      "type": "SCALAR"
    },
    {
      "bufferView": 2,
      "byteOffset": 1381080,
      "componentType": 5123,
      "count": 31716,
      "type": "SCALAR"
    },
    {
      "bufferView": 0,
      "byteOffset": 8437968,
      "componentType": 5126,
      "count": 11852,
      "max": [
        265.222961425781,
        117.585266113281,
        575.623413085938
      ],
      "min": [
        118.635032653809,
        -29.0026988983154,
        541.502624511719
      ],
      "type": "VEC3"
    },
    {
      "bufferView": 0,
      "byteOffset": 8580192,
      "componentType": 5126,
      "count": 11852,
      "type": "VEC3"
    },
    {
      "bufferView": 1,
      "byteOffset": 1406328,
      "componentType": 5126,
      "count": 11852,
      "type": "SCALAR"
    },
    {
      "bufferView": 2,
      "byteOffset": 1444512,
      "componentType": 5123,
      "count": 17778,
      "type": "SCALAR"
    },
    {
      "bufferView": 0,
      "byteOffset": 8722416,
      "componentType": 5126,
      "count": 2928,
      "max": [
        199.474990844727,
        72.1938018798828,
        567.97021484375
      ],
      "min": [
        196.325378417969,
        20.2473011016846,
        546.962158203125
      ],
      "type": "VEC3"
    },
    {
      "bufferView": 0,
      "byteOffset": 8757552,
      "componentType": 5126,
      "count": 2928,
      "type": "VEC3"
    },
    {
      "bufferView": 1,
      "byteOffset": 1453736,
      "componentType": 5126,
      "count": 2928,
      "type": "SCALAR"
    },
    {
      "bufferView": 2,
      "byteOffset": 1480068,
      "componentType": 5123,
      "count": 5784,
      "type": "SCALAR"
    },
    {
      "bufferView": 0,
      "byteOffset": 8792688,
      "componentType": 5126,
      "count": 1448,
      "max": [
        197.736068725586,
        69.704704284668,
        568.910339355469
      ],
      "min": [
        166.436935424805,
        24.1141109466553,
        551.16845703125
      ],
      "type": "VEC3"
    },
    {
      "bufferView": 0,
      "byteOffset": 8810064,
      "componentType": 5126,
      "count": 1448,
      "type": "VEC3"
    },
    {
      "bufferView": 1,
      "byteOffset": 1465448,
      "componentType": 5126,
      "count": 1448,
      "type": "SCALAR"
    },
    {
      "bufferView": 2,
      "byteOffset": 1491636,
      "componentType": 5123,
      "count": 3888,
      "type": "SCALAR"
    },
    {
      "bufferView": 0,
      "byteOffset": 8827440,
      "componentType": 5126,
      "count": 16226,
      "max": [
        229.002517700195,
        97.4889984130859,
        567.716613769531
      ],
      "min": [
        171.260208129883,
        -9.69009590148926,
        552.793884277344
      ],
      "type": "VEC3"
    },
    {
      "bufferView": 0,
      "byteOffset": 9022152,
      "componentType": 5126,
      "count": 16226,
      "type": "VEC3"
    },
    {
      "bufferView": 1,
      "byteOffset": 1471240,
      "componentType": 5126,
      "count": 16226,
      "type": "SCALAR"
    },
    {
      "bufferView": 2,
      "byteOffset": 1499412,
      "componentType": 5123,
      "count": 31998,
      "type": "SCALAR"
    },
    {
      "bufferView": 0,
      "byteOffset": 9216864,
      "componentType": 5126,
      "count": 11800,
      "max": [
        191.666519165039,
        69.8031311035156,
        568.50390625
      ],
      "min": [
        191.60090637207,
        56.6797752380371,
        554.232299804688
      ],
      "type": "VEC3"
    },
    {
      "bufferView": 0,
      "byteOffset": 9358464,
      "componentType": 5126,
      "count": 11800,
      "type": "VEC3"
    },
    {
      "bufferView": 1,
      "byteOffset": 1536144,
      "componentType": 5126,
      "count": 11800,
      "type": "SCALAR"
    },
    {
      "bufferView": 2,
      "byteOffset": 1563408,
      "componentType": 5123,
      "count": 23352,
      "type": "SCALAR"
    },
    {
      "bufferView": 0,
      "byteOffset": 9500064,
      "componentType": 5126,
      "count": 2496,
      "max": [
        263.779418945313,
        116.141662597656,
        569.061706542969
      ],
      "min": [
        120.078628540039,
        -27.5591239929199,
        556.430419921875
      ],
      "type": "VEC3"
    },
    {
      "bufferView": 0,
      "byteOffset": 9530016,
      "componentType": 5126,
      "count": 2496,
      "type": "VEC3"
    },
    {
      "bufferView": 1,
      "byteOffset": 1583344,
      "componentType": 5126,
      "count": 2496,
      "type": "SCALAR"
    },
    {
      "bufferView": 2,
      "byteOffset": 1610112,
      "componentType": 5123,
      "count": 6132,
      "type": "SCALAR"
    },
    {
      "bufferView": 0,
      "byteOffset": 9559968,
      "componentType": 5126,
      "count": 696,
      "max": [
        249.675140380859,
        91.5690383911133,
        576.279541015625
      ],
      "min": [
        134.182861328125,
        -3.14967489242554,
        556.594482421875
      ],
      "type": "VEC3"
    },
    {
      "bufferView": 0,
      "byteOffset": 9568320,
      "componentType": 5126,
      "count": 696,
      "type": "VEC3"
    },
    {
      "bufferView": 1,
      "byteOffset": 1593328,
      "componentType": 5126,
      "count": 696,
      "type": "SCALAR"
    },
    {
      "bufferView": 2,
      "byteOffset": 1622376,
      "componentType": 5123,
      "count": 1044,
      "type": "SCALAR"
    },
    {
      "bufferView": 0,
      "byteOffset": 9576672,
      "componentType": 5126,
      "count": 384,
      "max": [
        210.058929443359,
        46.0137062072754,
        575.216552734375
      ],
      "min": [
        188.070770263672,
        45.0294532775879,
        556.594482421875
      ],
      "type": "VEC3"
    },
    {
      "bufferView": 0,
      "byteOffset": 9581280,
      "componentType": 5126,
      "count": 384,
      "type": "VEC3"
    },
    {
      "bufferView": 1,
      "byteOffset": 1596112,
      "componentType": 5126,
      "count": 384,
      "type": "SCALAR"
    },
    {
      "bufferView": 2,
      "byteOffset": 1624464,
      "componentType": 5123,
      "count": 672,
      "type": "SCALAR"
    }
  ],
  "asset": {
    "version": "2.0"
  },
  "bufferViews": [
    {
      "buffer": 0,
      "byteLength": 9585888,
      "byteStride": 12,
      "target": 34962
    },
    {
      "buffer": 0,
      "byteLength": 1597648,
      "byteOffset": 9585888,
      "byteStride": 4,
      "target": 34962
    },
    {
      "buffer": 0,
      "byteLength": 1625808,
      "byteOffset": 11183536,
      "target": 34963
    }
  ],
  "buffers": [
    {
      "byteLength": 12809344,
      "uri": "7-11.bin"
    }
  ],
  "materials": [
    {
      "alphaMode": "OPAQUE",
      "name": "material金属 - 钢 - 深灰色",
      "pbrMetallicRoughness": {
        "baseColorFactor": [
          0.5019608,
          0.5019608,
          0.5019608,
          1.0
        ],
        "metallicFactor": 0.0,
        "roughnessFactor": 0.5
      }
    },
    {
      "alphaMode": "BLEND",
      "name": "material玻璃",
      "pbrMetallicRoughness": {
        "baseColorFactor": [
          0.854902,
          0.8901961,
          0.8784314,
          0.15
        ],
        "metallicFactor": 0.0,
        "roughnessFactor": 0.5
      }
    },
    {
      "alphaMode": "BLEND",
      "name": "material",
      "pbrMetallicRoughness": {
        "baseColorFactor": [
          0.8,
          0.8,
          0.8,
          0.0
        ],
        "metallicFactor": 0.0,
        "roughnessFactor": 0.0
      }
    },
    {
      "alphaMode": "BLEND",
      "name": "material灰绿色玻璃",
      "pbrMetallicRoughness": {
        "baseColorFactor": [
          0.1607843,
          0.3215686,
          0.3215686,
          0.8
        ],
        "metallicFactor": 0.0,
        "roughnessFactor": 0.5
      }
    },
    {
      "alphaMode": "OPAQUE",
      "name": "material淡蓝色字体",
      "pbrMetallicRoughness": {
        "baseColorFactor": [
          0.0,
          0.7490196,
          1.0,
          1.0
        ],
        "metallicFactor": 0.0,
        "roughnessFactor": 0.5
      }
    },
    {
      "alphaMode": "OPAQUE",
      "name": "material铝",
      "pbrMetallicRoughness": {
        "baseColorFactor": [
          0.9686275,
          0.9686275,
          0.9686275,
          1.0
        ],
        "metallicFactor": 0.0,
        "roughnessFactor": 0.5
      }
    },
    {
      "alphaMode": "OPAQUE",
      "name": "material深灰色金属肋",
      "pbrMetallicRoughness": {
        "baseColorFactor": [
          0.4705882,
          0.4705882,
          0.4705882,
          1.0
        ],
        "metallicFactor": 0.0,
        "roughnessFactor": 0.5
      }
    },
    {
      "alphaMode": "OPAQUE",
      "name": "material蓝色",
      "pbrMetallicRoughness": {
        "baseColorFactor": [
          0.09019608,
          0.145098,
          0.972549,
          1.0
        ],
        "metallicFactor": 0.0,
        "roughnessFactor": 0.5
      }
    },
    {
      "alphaMode": "OPAQUE",
      "name": "material白色",
      "pbrMetallicRoughness": {
        "baseColorFactor": [
          0.9568627,
          0.9568627,
          0.9568627,
          1.0
        ],
        "metallicFactor": 0.0,
        "roughnessFactor": 0.5
      }
    },
    {
      "alphaMode": "OPAQUE",
      "name": "material功能性房间",
      "pbrMetallicRoughness": {
        "baseColorFactor": [
          0.0,
          0.0,
          1.0,
          1.0
        ],
        "metallicFactor": 0.0,
        "roughnessFactor": 0.5
      }
    },
    {
      "alphaMode": "OPAQUE",
      "name": "material红色",
      "pbrMetallicRoughness": {
        "baseColorFactor": [
          0.6980392,
          0.0,
          0.0,
          1.0
        ],
        "metallicFactor": 0.0,
        "roughnessFactor": 0.5
      }
    },
    {
      "alphaMode": "OPAQUE",
      "name": "material默认楼板",
      "pbrMetallicRoughness": {
        "baseColorFactor": [
          0.4980392,
          0.4980392,
          0.4980392,
          1.0
        ],
        "metallicFactor": 0.0,
        "roughnessFactor": 0.5
      }
    },
    {
      "alphaMode": "OPAQUE",
      "name": "material门 - 嵌板",
      "pbrMetallicRoughness": {
        "baseColorFactor": [
          0.8235294,
          0.6235294,
          0.372549,
          1.0
        ],
        "metallicFactor": 0.0,
        "roughnessFactor": 0.5
      }
    },
    {
      "alphaMode": "OPAQUE",
      "name": "material门 - 框架",
      "pbrMetallicRoughness": {
        "baseColorFactor": [
          0.4627451,
          0.2745098,
          0.2,
          1.0
        ],
        "metallicFactor": 0.0,
        "roughnessFactor": 0.5
      }
    }
  ],
  "meshes": [
    {
      "primitives": [
        {
          "attributes": {
            "NORMAL": 1,
            "POSITION": 0,
            "_BATCHID": 2
          },
          "indices": 3,
          "material": 0,
          "mode": 4
        }
      ]
    },
    {
      "primitives": [
        {
          "attributes": {
            "NORMAL": 5,
            "POSITION": 4,
            "_BATCHID": 6
          },
          "indices": 7,
          "material": 1,
          "mode": 4
        }
      ]
    },
    {
      "primitives": [
        {
          "attributes": {
            "NORMAL": 9,
            "POSITION": 8,
            "_BATCHID": 10
          },
          "indices": 11,
          "material": 2,
          "mode": 4
        }
      ]
    },
    {
      "primitives": [
        {
          "attributes": {
            "NORMAL": 13,
            "POSITION": 12,
            "_BATCHID": 14
          },
          "indices": 15,
          "material": 2,
          "mode": 4
        }
      ]
    },
    {
      "primitives": [
        {
          "attributes": {
            "NORMAL": 17,
            "POSITION": 16,
            "_BATCHID": 18
          },
          "indices": 19,
          "material": 2,
          "mode": 4
        }
      ]
    },
    {
      "primitives": [
        {
          "attributes": {
            "NORMAL": 21,
            "POSITION": 20,
            "_BATCHID": 22
          },
          "indices": 23,
          "material": 2,
          "mode": 4
        }
      ]
    },
    {
      "primitives": [
        {
          "attributes": {
            "NORMAL": 25,
            "POSITION": 24,
            "_BATCHID": 26
          },
          "indices": 27,
          "material": 2,
          "mode": 4
        }
      ]
    },
    {
      "primitives": [
        {
          "attributes": {
            "NORMAL": 29,
            "POSITION": 28,
            "_BATCHID": 30
          },
          "indices": 31,
          "material": 3,
          "mode": 4
        }
      ]
    },
    {
      "primitives": [
        {
          "attributes": {
            "NORMAL": 33,
            "POSITION": 32,
            "_BATCHID": 34
          },
          "indices": 35,
          "material": 4,
          "mode": 4
        }
      ]
    },
    {
      "primitives": [
        {
          "attributes": {
            "NORMAL": 37,
            "POSITION": 36,
            "_BATCHID": 38
          },
          "indices": 39,
          "material": 5,
          "mode": 4
        }
      ]
    },
    {
      "primitives": [
        {
          "attributes": {
            "NORMAL": 41,
            "POSITION": 40,
            "_BATCHID": 42
          },
          "indices": 43,
          "material": 6,
          "mode": 4
        }
      ]
    },
    {
      "primitives": [
        {
          "attributes": {
            "NORMAL": 45,
            "POSITION": 44,
            "_BATCHID": 46
          },
          "indices": 47,
          "material": 7,
          "mode": 4
        }
      ]
    },
    {
      "primitives": [
        {
          "attributes": {
            "NORMAL": 49,
            "POSITION": 48,
            "_BATCHID": 50
          },
          "indices": 51,
          "material": 8,
          "mode": 4
        }
      ]
    },
    {
      "primitives": [
        {
          "attributes": {
            "NORMAL": 53,
            "POSITION": 52,
            "_BATCHID": 54
          },
          "indices": 55,
          "material": 9,
          "mode": 4
        }
      ]
    },
    {
      "primitives": [
        {
          "attributes": {
            "NORMAL": 57,
            "POSITION": 56,
            "_BATCHID": 58
          },
          "indices": 59,
          "material": 10,
          "mode": 4
        }
      ]
    },
    {
      "primitives": [
        {
          "attributes": {
            "NORMAL": 61,
            "POSITION": 60,
            "_BATCHID": 62
          },
          "indices": 63,
          "material": 11,
          "mode": 4
        }
      ]
    },
    {
      "primitives": [
        {
          "attributes": {
            "NORMAL": 65,
            "POSITION": 64,
            "_BATCHID": 66
          },
          "indices": 67,
          "material": 12,
          "mode": 4
        }
      ]
    },
    {
      "primitives": [
        {
          "attributes": {
            "NORMAL": 69,
            "POSITION": 68,
            "_BATCHID": 70
          },
          "indices": 71,
          "material": 13,
          "mode": 4
        }
      ]
    }
  ],
  "nodes": [
    {
      "mesh": 0,
      "name": "test"
    },
    {
      "mesh": 1,
      "name": "test"
    },
    {
      "mesh": 2,
      "name": "test"
    },
    {
      "mesh": 3,
      "name": "test"
    },
    {
      "mesh": 4,
      "name": "test"
    },
    {
      "mesh": 5,
      "name": "test"
    },
    {
      "mesh": 6,
      "name": "test"
    },
    {
      "mesh": 7,
      "name": "test"
    },
    {
      "mesh": 8,
      "name": "test"
    },
    {
      "mesh": 9,
      "name": "test"
    },
    {
      "mesh": 10,
      "name": "test"
    },
    {
      "mesh": 11,
      "name": "test"
    },
    {
      "mesh": 12,
      "name": "test"
    },
    {
      "mesh": 13,
      "name": "test"
    },
    {
      "mesh": 14,
      "name": "test"
    },
    {
      "mesh": 15,
      "name": "test"
    },
    {
      "mesh": 16,
      "name": "test"
    },
    {
      "mesh": 17,
      "name": "test"
    }
  ],
  "scene": 0,
  "scenes": [
    {
      "name": "scene",
      "nodes": [
        0,
        1,
        2,
        3,
        4,
        5,
        6,
        7,
        8,
        9,
        10,
        11,
        12,
        13,
        14,
        15,
        16,
        17
      ]
    }
  ]
}
