{
  "accessors": [
    {
      "bufferView": 0,
      "componentType": 5126,
      "count": 1512,
      "max": [
        229.927734375,
        75.7873382568359,
        162.729690551758
      ],
      "min": [
        153.930374145508,
        12.7952060699463,
        131.725769042969
      ],
      "type": "VEC3"
    },
    {
      "bufferView": 0,
      "byteOffset": 18144,
      "componentType": 5126,
      "count": 1512,
      "type": "VEC3"
    },
    {
      "bufferView": 1,
      "componentType": 5126,
      "count": 1512,
      "type": "SCALAR"
    },
    {
      "bufferView": 2,
      "componentType": 5123,
      "count": 2268,
      "type": "SCALAR"
    },
    {
      "bufferView": 0,
      "byteOffset": 36288,
      "componentType": 5126,
      "count": 64288,
      "max": [
        264.730834960938,
        117.043930053711,
        174.193389892578
      ],
      "min": [
        119.127159118652,
        -28.5105724334717,
        127.887176513672
      ],
      "type": "VEC3"
    },
    {
      "bufferView": 0,
      "byteOffset": 807744,
      "componentType": 5126,
      "count": 64288,
      "type": "VEC3"
    },
    {
      "bufferView": 1,
      "byteOffset": 6048,
      "componentType": 5126,
      "count": 64288,
      "type": "SCALAR"
    },
    {
      "bufferView": 2,
      "byteOffset": 4536,
      "componentType": 5123,
      "count": 156420,
      "type": "SCALAR"
    },
    {
      "bufferView": 0,
      "byteOffset": 1579200,
      "componentType": 5126,
      "count": 64296,
      "max": [
        264.648834228516,
        83.3332672119141,
        174.193389892578
      ],
      "min": [
        153.789291381836,
        6.1515064239502,
        114.173202514648
      ],
      "type": "VEC3"
    },
    {
      "bufferView": 0,
      "byteOffset": 2350752,
      "componentType": 5126,
      "count": 64296,
      "type": "VEC3"
    },
    {
      "bufferView": 1,
      "byteOffset": 263200,
      "componentType": 5126,
      "count": 64296,
      "type": "SCALAR"
    },
    {
      "bufferView": 2,
      "byteOffset": 317376,
      "componentType": 5123,
      "count": 172836,
      "type": "SCALAR"
    },
    {
      "bufferView": 0,
      "byteOffset": 3122304,
      "componentType": 5126,
      "count": 63504,
      "max": [
        264.648834228516,
        117.011123657227,
        124.885147094727
      ],
      "min": [
        119.209175109863,
        -28.4285526275635,
        114.173202514648
      ],
      "type": "VEC3"
    },
    {
      "bufferView": 0,
      "byteOffset": 3884352,
      "componentType": 5126,
      "count": 63504,
      "type": "VEC3"
    },
    {
      "bufferView": 1,
      "byteOffset": 520384,
      "componentType": 5126,
      "count": 63504,
      "type": "SCALAR"
    },
    {
      "bufferView": 2,
      "byteOffset": 663048,
      "componentType": 5123,
      "count": 111132,
      "type": "SCALAR"
    },
    {
      "bufferView": 0,
      "byteOffset": 4646400,
      "componentType": 5126,
      "count": 36288,
      "max": [
        201.443450927734,
        117.011123657227,
        124.885147094727
      ],
      "min": [
        119.209175109863,
        -28.4285526275635,
        114.173202514648
      ],
      "type": "VEC3"
    },
    {
      "bufferView": 0,
      "byteOffset": 5081856,
      "componentType": 5126,
      "count": 36288,
      "type": "VEC3"
    },
    {
      "bufferView": 1,
      "byteOffset": 774400,
      "componentType": 5126,
      "count": 36288,
      "type": "SCALAR"
    },
    {
      "bufferView": 2,
      "byteOffset": 885312,
      "componentType": 5123,
      "count": 63504,
      "type": "SCALAR"
    },
    {
      "bufferView": 0,
      "byteOffset": 5517312,
      "componentType": 5126,
      "count": 33900,
      "max": [
        264.648834228516,
        117.585189819336,
        176.642547607422
      ],
      "min": [
        119.209175109863,
        -29.0360679626465,
        114.173202514648
      ],
      "type": "VEC3"
    },
    {
      "bufferView": 0,
      "byteOffset": 5924112,
      "componentType": 5126,
      "count": 33900,
      "type": "VEC3"
    },
    {
      "bufferView": 1,
      "byteOffset": 919552,
      "componentType": 5126,
      "count": 33900,
      "type": "SCALAR"
    },
    {
      "bufferView": 2,
      "byteOffset": 1012320,
      "componentType": 5123,
      "count": 51492,
      "type": "SCALAR"
    },
    {
      "bufferView": 0,
      "byteOffset": 6330912,
      "componentType": 5126,
      "count": 144,
      "max": [
        161.089080810547,
        56.9225082397461,
        163.713943481445
      ],
      "min": [
        160.921768188477,
        31.6600322723389,
        127.952796936035
      ],
      "type": "VEC3"
    },
    {
      "bufferView": 0,
      "byteOffset": 6332640,
      "componentType": 5126,
      "count": 144,
      "type": "VEC3"
    },
    {
      "bufferView": 1,
      "byteOffset": 1055152,
      "componentType": 5126,
      "count": 144,
      "type": "SCALAR"
    },
    {
      "bufferView": 2,
      "byteOffset": 1115304,
      "componentType": 5123,
      "count": 216,
      "type": "SCALAR"
    },
    {
      "bufferView": 0,
      "byteOffset": 6334368,
      "componentType": 5126,
      "count": 19080,
      "max": [
        265.255798339844,
        117.585266113281,
        173.511672973633
      ],
      "min": [
        118.602203369141,
        -29.0360698699951,
        114.173202514648
      ],
      "type": "VEC3"
    },
    {
      "bufferView": 0,
      "byteOffset": 6563328,
      "componentType": 5126,
      "count": 19080,
      "type": "VEC3"
    },
    {
      "bufferView": 1,
      "byteOffset": 1055728,
      "componentType": 5126,
      "count": 19080,
      "type": "SCALAR"
    },
    {
      "bufferView": 2,
      "byteOffset": 1115736,
      "componentType": 5123,
      "count": 28620,
      "type": "SCALAR"
    },
    {
      "bufferView": 0,
      "byteOffset": 6792288,
      "componentType": 5126,
      "count": 41176,
      "max": [
        297.572143554688,
        344.122833251953,
        176.737396240234
      ],
      "min": [
        -29.2706832885742,
        -76.6418151855469,
        114.173202514648
      ],
      "type": "VEC3"
    },
    {
      "bufferView": 0,
      "byteOffset": 7286400,
      "componentType": 5126,
      "count": 41176,
      "type": "VEC3"
    },
    {
      "bufferView": 1,
      "byteOffset": 1132048,
      "componentType": 5126,
      "count": 41176,
      "type": "SCALAR"
    },
    {
      "bufferView": 2,
      "byteOffset": 1172976,
      "componentType": 5123,
      "count": 61764,
      "type": "SCALAR"
    },
    {
      "bufferView": 0,
      "byteOffset": 7780512,
      "componentType": 5126,
      "count": 2928,
      "max": [
        263.779418945313,
        116.141662597656,
        170.767715454102
      ],
      "min": [
        120.078628540039,
        -27.5591239929199,
        127.788711547852
      ],
      "type": "VEC3"
    },
    {
      "bufferView": 0,
      "byteOffset": 7815648,
      "componentType": 5126,
      "count": 2928,
      "type": "VEC3"
    },
    {
      "bufferView": 1,
      "byteOffset": 1296752,
      "componentType": 5126,
      "count": 2928,
      "type": "SCALAR"
    },
    {
      "bufferView": 2,
      "byteOffset": 1296504,
      "componentType": 5123,
      "count": 7152,
      "type": "SCALAR"
    },
    {
      "bufferView": 0,
      "byteOffset": 7850784,
      "componentType": 5126,
      "count": 15088,
      "max": [
        236.548446655273,
        88.9106903076172,
        170.603668212891
      ],
      "min": [
        147.309600830078,
        6.23352718353271,
        127.952758789063
      ],
      "type": "VEC3"
    },
    {
      "bufferView": 0,
      "byteOffset": 8031840,
      "componentType": 5126,
      "count": 15088,
      "type": "VEC3"
    },
    {
      "bufferView": 1,
      "byteOffset": 1308464,
      "componentType": 5126,
      "count": 15088,
      "type": "SCALAR"
    },
    {
      "bufferView": 2,
      "byteOffset": 1310808,
      "componentType": 5123,
      "count": 27636,
      "type": "SCALAR"
    },
    {
      "bufferView": 0,
      "byteOffset": 8212896,
      "componentType": 5126,
      "count": 576,
      "max": [
        161.171112060547,
        57.1718521118164,
        163.963287353516
      ],
      "min": [
        160.350891113281,
        31.4106884002686,
        127.952796936035
      ],
      "type": "VEC3"
    },
    {
      "bufferView": 0,
      "byteOffset": 8219808,
      "componentType": 5126,
      "count": 576,
      "type": "VEC3"
    },
    {
      "bufferView": 1,
      "byteOffset": 1368816,
      "componentType": 5126,
      "count": 576,
      "type": "SCALAR"
    },
    {
      "bufferView": 2,
      "byteOffset": 1366080,
      "componentType": 5123,
      "count": 1008,
      "type": "SCALAR"
    },
    {
      "bufferView": 0,
      "byteOffset": 8226720,
      "componentType": 5126,
      "count": 19776,
      "max": [
        207.348999023438,
        68.471061706543,
        168.918304443359
      ],
      "min": [
        186.023498535156,
        34.2847099304199,
        136.995101928711
      ],
      "type": "VEC3"
    },
    {
      "bufferView": 0,
      "byteOffset": 8464032,
      "componentType": 5126,
      "count": 19776,
      "type": "VEC3"
    },
    {
      "bufferView": 1,
      "byteOffset": 1371120,
      "componentType": 5126,
      "count": 19776,
      "type": "SCALAR"
    },
    {
      "bufferView": 2,
      "byteOffset": 1368096,
      "componentType": 5123,
      "count": 42696,
      "type": "SCALAR"
    },
    {
      "bufferView": 0,
      "byteOffset": 8701344,
      "componentType": 5126,
      "count": 2328,
      "max": [
        207.250564575195,
        69.704704284668,
        169.849105834961
      ],
      "min": [
        186.121932983398,
        34.2847099304199,
        137.108810424805
      ],
      "type": "VEC3"
    },
    {
      "bufferView": 0,
      "byteOffset": 8729280,
      "componentType": 5126,
      "count": 2328,
      "type": "VEC3"
    },
    {
      "bufferView": 1,
      "byteOffset": 1450224,
      "componentType": 5126,
      "count": 2328,
      "type": "SCALAR"
    },
    {
      "bufferView": 2,
      "byteOffset": 1453488,
      "componentType": 5123,
      "count": 6264,
      "type": "SCALAR"
    },
    {
      "bufferView": 0,
      "byteOffset": 8757216,
      "componentType": 5126,
      "count": 14280,
      "max": [
        160.432952880859,
        57.1371421813965,
        169.167419433594
      ],
      "min": [
        160.367340087891,
        31.31125831604,
        139.177124023438
      ],
      "type": "VEC3"
    },
    {
      "bufferView": 0,
      "byteOffset": 8928576,
      "componentType": 5126,
      "count": 14280,
      "type": "VEC3"
    },
    {
      "bufferView": 1,
      "byteOffset": 1459536,
      "componentType": 5126,
      "count": 14280,
      "type": "SCALAR"
    },
    {
      "bufferView": 2,
      "byteOffset": 1466016,
      "componentType": 5123,
      "count": 28008,
      "type": "SCALAR"
    },
    {
      "bufferView": 0,
      "byteOffset": 9099936,
      "componentType": 5126,
      "count": 2472,
      "max": [
        199.474990844727,
        72.2749938964844,
        169.473449707031
      ],
      "min": [
        196.259780883789,
        20.2999610900879,
        139.937774658203
      ],
      "type": "VEC3"
    },
    {
      "bufferView": 0,
      "byteOffset": 9129600,
      "componentType": 5126,
      "count": 2472,
      "type": "VEC3"
    },
    {
      "bufferView": 1,
      "byteOffset": 1516656,
      "componentType": 5126,
      "count": 2472,
      "type": "SCALAR"
    },
    {
      "bufferView": 2,
      "byteOffset": 1522032,
      "componentType": 5123,
      "count": 4872,
      "type": "SCALAR"
    },
    {
      "bufferView": 0,
      "byteOffset": 9159264,
      "componentType": 5126,
      "count": 17700,
      "max": [
        191.666519165039,
        69.8031311035156,
        169.914733886719
      ],
      "min": [
        191.60090637207,
        56.6797752380371,
        139.829376220703
      ],
      "type": "VEC3"
    },
    {
      "bufferView": 0,
      "byteOffset": 9371664,
      "componentType": 5126,
      "count": 17700,
      "type": "VEC3"
    },
    {
      "bufferView": 1,
      "byteOffset": 1526544,
      "componentType": 5126,
      "count": 17700,
      "type": "SCALAR"
    },
    {
      "bufferView": 2,
      "byteOffset": 1531776,
      "componentType": 5123,
      "count": 35028,
      "type": "SCALAR"
    }
  ],
  "asset": {
    "version": "2.0"
  },
  "bufferViews": [
    {
      "buffer": 0,
      "byteLength": 9584064,
      "byteStride": 12,
      "target": 34962
    },
    {
      "buffer": 0,
      "byteLength": 1597344,
      "byteOffset": 9584064,
      "byteStride": 4,
      "target": 34962
    },
    {
      "buffer": 0,
      "byteLength": 1601832,
      "byteOffset": 11181408,
      "target": 34963
    }
  ],
  "buffers": [
    {
      "byteLength": 12783240,
      "uri": "7-2.bin"
    }
  ],
  "materials": [
    {
      "alphaMode": "BLEND",
      "name": "material玻璃",
      "pbrMetallicRoughness": {
        "baseColorFactor": [
          0.854902,
          0.8901961,
          0.8784314,
          0.15
        ],
        "metallicFactor": 0.0,
        "roughnessFactor": 0.5
      }
    },
    {
      "alphaMode": "BLEND",
      "name": "material",
      "pbrMetallicRoughness": {
        "baseColorFactor": [
          0.8,
          0.8,
          0.8,
          0.0
        ],
        "metallicFactor": 0.0,
        "roughnessFactor": 0.0
      }
    },
    {
      "alphaMode": "BLEND",
      "name": "material灰绿色玻璃",
      "pbrMetallicRoughness": {
        "baseColorFactor": [
          0.1607843,
          0.3215686,
          0.3215686,
          0.8
        ],
        "metallicFactor": 0.0,
        "roughnessFactor": 0.5
      }
    },
    {
      "alphaMode": "OPAQUE",
      "name": "material门 - 嵌板",
      "pbrMetallicRoughness": {
        "baseColorFactor": [
          0.8235294,
          0.6235294,
          0.372549,
          1.0
        ],
        "metallicFactor": 0.0,
        "roughnessFactor": 0.5
      }
    },
    {
      "alphaMode": "OPAQUE",
      "name": "material深灰色金属肋",
      "pbrMetallicRoughness": {
        "baseColorFactor": [
          0.4705882,
          0.4705882,
          0.4705882,
          1.0
        ],
        "metallicFactor": 0.0,
        "roughnessFactor": 0.5
      }
    },
    {
      "alphaMode": "OPAQUE",
      "name": "material铝",
      "pbrMetallicRoughness": {
        "baseColorFactor": [
          0.9686275,
          0.9686275,
          0.9686275,
          1.0
        ],
        "metallicFactor": 0.0,
        "roughnessFactor": 0.5
      }
    },
    {
      "alphaMode": "OPAQUE",
      "name": "material默认楼板",
      "pbrMetallicRoughness": {
        "baseColorFactor": [
          0.4980392,
          0.4980392,
          0.4980392,
          1.0
        ],
        "metallicFactor": 0.0,
        "roughnessFactor": 0.5
      }
    },
    {
      "alphaMode": "OPAQUE",
      "name": "material金属 - 钢 - 深灰色",
      "pbrMetallicRoughness": {
        "baseColorFactor": [
          0.5019608,
          0.5019608,
          0.5019608,
          1.0
        ],
        "metallicFactor": 0.0,
        "roughnessFactor": 0.5
      }
    },
    {
      "alphaMode": "OPAQUE",
      "name": "material门 - 框架",
      "pbrMetallicRoughness": {
        "baseColorFactor": [
          0.4627451,
          0.2745098,
          0.2,
          1.0
        ],
        "metallicFactor": 0.0,
        "roughnessFactor": 0.5
      }
    },
    {
      "alphaMode": "OPAQUE",
      "name": "material淡蓝色字体",
      "pbrMetallicRoughness": {
        "baseColorFactor": [
          0.0,
          0.7490196,
          1.0,
          1.0
        ],
        "metallicFactor": 0.0,
        "roughnessFactor": 0.5
      }
    },
    {
      "alphaMode": "OPAQUE",
      "name": "material白色",
      "pbrMetallicRoughness": {
        "baseColorFactor": [
          0.9568627,
          0.9568627,
          0.9568627,
          1.0
        ],
        "metallicFactor": 0.0,
        "roughnessFactor": 0.5
      }
    },
    {
      "alphaMode": "OPAQUE",
      "name": "material功能性房间",
      "pbrMetallicRoughness": {
        "baseColorFactor": [
          0.0,
          0.0,
          1.0,
          1.0
        ],
        "metallicFactor": 0.0,
        "roughnessFactor": 0.5
      }
    },
    {
      "alphaMode": "OPAQUE",
      "name": "material蓝色",
      "pbrMetallicRoughness": {
        "baseColorFactor": [
          0.09019608,
          0.145098,
          0.972549,
          1.0
        ],
        "metallicFactor": 0.0,
        "roughnessFactor": 0.5
      }
    },
    {
      "alphaMode": "OPAQUE",
      "name": "material红色",
      "pbrMetallicRoughness": {
        "baseColorFactor": [
          0.6980392,
          0.0,
          0.0,
          1.0
        ],
        "metallicFactor": 0.0,
        "roughnessFactor": 0.5
      }
    }
  ],
  "meshes": [
    {
      "primitives": [
        {
          "attributes": {
            "NORMAL": 1,
            "POSITION": 0,
            "_BATCHID": 2
          },
          "indices": 3,
          "material": 0,
          "mode": 4
        }
      ]
    },
    {
      "primitives": [
        {
          "attributes": {
            "NORMAL": 5,
            "POSITION": 4,
            "_BATCHID": 6
          },
          "indices": 7,
          "material": 1,
          "mode": 4
        }
      ]
    },
    {
      "primitives": [
        {
          "attributes": {
            "NORMAL": 9,
            "POSITION": 8,
            "_BATCHID": 10
          },
          "indices": 11,
          "material": 1,
          "mode": 4
        }
      ]
    },
    {
      "primitives": [
        {
          "attributes": {
            "NORMAL": 13,
            "POSITION": 12,
            "_BATCHID": 14
          },
          "indices": 15,
          "material": 1,
          "mode": 4
        }
      ]
    },
    {
      "primitives": [
        {
          "attributes": {
            "NORMAL": 17,
            "POSITION": 16,
            "_BATCHID": 18
          },
          "indices": 19,
          "material": 1,
          "mode": 4
        }
      ]
    },
    {
      "primitives": [
        {
          "attributes": {
            "NORMAL": 21,
            "POSITION": 20,
            "_BATCHID": 22
          },
          "indices": 23,
          "material": 2,
          "mode": 4
        }
      ]
    },
    {
      "primitives": [
        {
          "attributes": {
            "NORMAL": 25,
            "POSITION": 24,
            "_BATCHID": 26
          },
          "indices": 27,
          "material": 3,
          "mode": 4
        }
      ]
    },
    {
      "primitives": [
        {
          "attributes": {
            "NORMAL": 29,
            "POSITION": 28,
            "_BATCHID": 30
          },
          "indices": 31,
          "material": 4,
          "mode": 4
        }
      ]
    },
    {
      "primitives": [
        {
          "attributes": {
            "NORMAL": 33,
            "POSITION": 32,
            "_BATCHID": 34
          },
          "indices": 35,
          "material": 5,
          "mode": 4
        }
      ]
    },
    {
      "primitives": [
        {
          "attributes": {
            "NORMAL": 37,
            "POSITION": 36,
            "_BATCHID": 38
          },
          "indices": 39,
          "material": 6,
          "mode": 4
        }
      ]
    },
    {
      "primitives": [
        {
          "attributes": {
            "NORMAL": 41,
            "POSITION": 40,
            "_BATCHID": 42
          },
          "indices": 43,
          "material": 7,
          "mode": 4
        }
      ]
    },
    {
      "primitives": [
        {
          "attributes": {
            "NORMAL": 45,
            "POSITION": 44,
            "_BATCHID": 46
          },
          "indices": 47,
          "material": 8,
          "mode": 4
        }
      ]
    },
    {
      "primitives": [
        {
          "attributes": {
            "NORMAL": 49,
            "POSITION": 48,
            "_BATCHID": 50
          },
          "indices": 51,
          "material": 9,
          "mode": 4
        }
      ]
    },
    {
      "primitives": [
        {
          "attributes": {
            "NORMAL": 53,
            "POSITION": 52,
            "_BATCHID": 54
          },
          "indices": 55,
          "material": 10,
          "mode": 4
        }
      ]
    },
    {
      "primitives": [
        {
          "attributes": {
            "NORMAL": 57,
            "POSITION": 56,
            "_BATCHID": 58
          },
          "indices": 59,
          "material": 11,
          "mode": 4
        }
      ]
    },
    {
      "primitives": [
        {
          "attributes": {
            "NORMAL": 61,
            "POSITION": 60,
            "_BATCHID": 62
          },
          "indices": 63,
          "material": 12,
          "mode": 4
        }
      ]
    },
    {
      "primitives": [
        {
          "attributes": {
            "NORMAL": 65,
            "POSITION": 64,
            "_BATCHID": 66
          },
          "indices": 67,
          "material": 13,
          "mode": 4
        }
      ]
    }
  ],
  "nodes": [
    {
      "mesh": 0,
      "name": "test"
    },
    {
      "mesh": 1,
      "name": "test"
    },
    {
      "mesh": 2,
      "name": "test"
    },
    {
      "mesh": 3,
      "name": "test"
    },
    {
      "mesh": 4,
      "name": "test"
    },
    {
      "mesh": 5,
      "name": "test"
    },
    {
      "mesh": 6,
      "name": "test"
    },
    {
      "mesh": 7,
      "name": "test"
    },
    {
      "mesh": 8,
      "name": "test"
    },
    {
      "mesh": 9,
      "name": "test"
    },
    {
      "mesh": 10,
      "name": "test"
    },
    {
      "mesh": 11,
      "name": "test"
    },
    {
      "mesh": 12,
      "name": "test"
    },
    {
      "mesh": 13,
      "name": "test"
    },
    {
      "mesh": 14,
      "name": "test"
    },
    {
      "mesh": 15,
      "name": "test"
    },
    {
      "mesh": 16,
      "name": "test"
    }
  ],
  "scene": 0,
  "scenes": [
    {
      "name": "scene",
      "nodes": [
        0,
        1,
        2,
        3,
        4,
        5,
        6,
        7,
        8,
        9,
        10,
        11,
        12,
        13,
        14,
        15,
        16
      ]
    }
  ]
}
