{
  "accessors": [
    {
      "bufferView": 0,
      "componentType": 5126,
      "count": 31494,
      "max": [
        264.648834228516,
        117.011123657227,
        662.549133300781
      ],
      "min": [
        119.209175109863,
        -28.3793392181396,
        615.862915039063
      ],
      "type": "VEC3"
    },
    {
      "bufferView": 0,
      "byteOffset": 377928,
      "componentType": 5126,
      "count": 31494,
      "type": "VEC3"
    },
    {
      "bufferView": 1,
      "componentType": 5126,
      "count": 31494,
      "type": "SCALAR"
    },
    {
      "bufferView": 2,
      "componentType": 5123,
      "count": 47700,
      "type": "SCALAR"
    },
    {
      "bufferView": 0,
      "byteOffset": 755856,
      "componentType": 5126,
      "count": 9520,
      "max": [
        204.904937744141,
        45.1114730834961,
        654.724487304688
      ],
      "min": [
        201.618438720703,
        45.0458564758301,
        616.532104492188
      ],
      "type": "VEC3"
    },
    {
      "bufferView": 0,
      "byteOffset": 870096,
      "componentType": 5126,
      "count": 9520,
      "type": "VEC3"
    },
    {
      "bufferView": 1,
      "byteOffset": 125976,
      "componentType": 5126,
      "count": 9520,
      "type": "SCALAR"
    },
    {
      "bufferView": 2,
      "byteOffset": 95400,
      "componentType": 5123,
      "count": 18672,
      "type": "SCALAR"
    },
    {
      "bufferView": 0,
      "byteOffset": 984336,
      "componentType": 5126,
      "count": 42324,
      "max": [
        197.834503173828,
        68.4054412841797,
        656.294250488281
      ],
      "min": [
        166.338500976563,
        24.1141109466553,
        616.598754882813
      ],
      "type": "VEC3"
    },
    {
      "bufferView": 0,
      "byteOffset": 1492224,
      "componentType": 5126,
      "count": 42324,
      "type": "VEC3"
    },
    {
      "bufferView": 1,
      "byteOffset": 164056,
      "componentType": 5126,
      "count": 42324,
      "type": "SCALAR"
    },
    {
      "bufferView": 2,
      "byteOffset": 132744,
      "componentType": 5123,
      "count": 91476,
      "type": "SCALAR"
    },
    {
      "bufferView": 0,
      "byteOffset": 2000112,
      "componentType": 5126,
      "count": 36056,
      "max": [
        264.648834228516,
        117.04125213623,
        656.332092285156
      ],
      "min": [
        119.209175109863,
        -28.4285526275635,
        615.747985839844
      ],
      "type": "VEC3"
    },
    {
      "bufferView": 0,
      "byteOffset": 2432784,
      "componentType": 5126,
      "count": 36056,
      "type": "VEC3"
    },
    {
      "bufferView": 1,
      "byteOffset": 333352,
      "componentType": 5126,
      "count": 36056,
      "type": "SCALAR"
    },
    {
      "bufferView": 2,
      "byteOffset": 315696,
      "componentType": 5123,
      "count": 54084,
      "type": "SCALAR"
    },
    {
      "bufferView": 0,
      "byteOffset": 2865456,
      "componentType": 5126,
      "count": 14896,
      "max": [
        265.222961425781,
        117.585266113281,
        662.125122070313
      ],
      "min": [
        118.635032653809,
        -29.0026988983154,
        615.977661132813
      ],
      "type": "VEC3"
    },
    {
      "bufferView": 0,
      "byteOffset": 3044208,
      "componentType": 5126,
      "count": 14896,
      "type": "VEC3"
    },
    {
      "bufferView": 1,
      "byteOffset": 477576,
      "componentType": 5126,
      "count": 14896,
      "type": "SCALAR"
    },
    {
      "bufferView": 2,
      "byteOffset": 423864,
      "componentType": 5123,
      "count": 22344,
      "type": "SCALAR"
    },
    {
      "bufferView": 0,
      "byteOffset": 3222960,
      "componentType": 5126,
      "count": 4872,
      "max": [
        263.779418945313,
        116.141662597656,
        656.33203125
      ],
      "min": [
        120.078628540039,
        -27.5591239929199,
        618.766418457031
      ],
      "type": "VEC3"
    },
    {
      "bufferView": 0,
      "byteOffset": 3281424,
      "componentType": 5126,
      "count": 4872,
      "type": "VEC3"
    },
    {
      "bufferView": 1,
      "byteOffset": 537160,
      "componentType": 5126,
      "count": 4872,
      "type": "SCALAR"
    },
    {
      "bufferView": 2,
      "byteOffset": 468552,
      "componentType": 5123,
      "count": 11940,
      "type": "SCALAR"
    },
    {
      "bufferView": 0,
      "byteOffset": 3339888,
      "componentType": 5126,
      "count": 3000,
      "max": [
        199.474990844727,
        72.2328796386719,
        655.231384277344
      ],
      "min": [
        196.325378417969,
        20.2473011016846,
        616.846984863281
      ],
      "type": "VEC3"
    },
    {
      "bufferView": 0,
      "byteOffset": 3375888,
      "componentType": 5126,
      "count": 3000,
      "type": "VEC3"
    },
    {
      "bufferView": 1,
      "byteOffset": 556648,
      "componentType": 5126,
      "count": 3000,
      "type": "SCALAR"
    },
    {
      "bufferView": 2,
      "byteOffset": 492432,
      "componentType": 5123,
      "count": 5856,
      "type": "SCALAR"
    },
    {
      "bufferView": 0,
      "byteOffset": 3411888,
      "componentType": 5126,
      "count": 23600,
      "max": [
        191.666519165039,
        69.8031311035156,
        655.905517578125
      ],
      "min": [
        191.60090637207,
        56.6797752380371,
        617.158813476563
      ],
      "type": "VEC3"
    },
    {
      "bufferView": 0,
      "byteOffset": 3695088,
      "componentType": 5126,
      "count": 23600,
      "type": "VEC3"
    },
    {
      "bufferView": 1,
      "byteOffset": 568648,
      "componentType": 5126,
      "count": 23600,
      "type": "SCALAR"
    },
    {
      "bufferView": 2,
      "byteOffset": 504144,
      "componentType": 5123,
      "count": 46704,
      "type": "SCALAR"
    },
    {
      "bufferView": 0,
      "byteOffset": 3978288,
      "componentType": 5126,
      "count": 4560,
      "max": [
        197.736068725586,
        69.704704284668,
        656.180603027344
      ],
      "min": [
        166.436935424805,
        24.1141109466553,
        616.71240234375
      ],
      "type": "VEC3"
    },
    {
      "bufferView": 0,
      "byteOffset": 4033008,
      "componentType": 5126,
      "count": 4560,
      "type": "VEC3"
    },
    {
      "bufferView": 1,
      "byteOffset": 663048,
      "componentType": 5126,
      "count": 4560,
      "type": "SCALAR"
    },
    {
      "bufferView": 2,
      "byteOffset": 597552,
      "componentType": 5123,
      "count": 12384,
      "type": "SCALAR"
    },
    {
      "bufferView": 0,
      "byteOffset": 4087728,
      "componentType": 5126,
      "count": 1440,
      "max": [
        249.675140380859,
        91.5690383911133,
        662.237487792969
      ],
      "min": [
        134.182861328125,
        -3.14967489242554,
        618.930419921875
      ],
      "type": "VEC3"
    },
    {
      "bufferView": 0,
      "byteOffset": 4105008,
      "componentType": 5126,
      "count": 1440,
      "type": "VEC3"
    },
    {
      "bufferView": 1,
      "byteOffset": 681288,
      "componentType": 5126,
      "count": 1440,
      "type": "SCALAR"
    },
    {
      "bufferView": 2,
      "byteOffset": 622320,
      "componentType": 5123,
      "count": 2160,
      "type": "SCALAR"
    },
    {
      "bufferView": 0,
      "byteOffset": 4122288,
      "componentType": 5126,
      "count": 5760,
      "max": [
        250.246017456055,
        91.8183822631836,
        662.48681640625
      ],
      "min": [
        133.61198425293,
        -3.39901876449585,
        618.930419921875
      ],
      "type": "VEC3"
    },
    {
      "bufferView": 0,
      "byteOffset": 4191408,
      "componentType": 5126,
      "count": 5760,
      "type": "VEC3"
    },
    {
      "bufferView": 1,
      "byteOffset": 687048,
      "componentType": 5126,
      "count": 5760,
      "type": "SCALAR"
    },
    {
      "bufferView": 2,
      "byteOffset": 626640,
      "componentType": 5123,
      "count": 10080,
      "type": "SCALAR"
    },
    {
      "bufferView": 0,
      "byteOffset": 4260528,
      "componentType": 5126,
      "count": 65280,
      "max": [
        264.681640625,
        117.093139648438,
        659.757629394531
      ],
      "min": [
        119.176368713379,
        -28.5105724334717,
        618.864807128906
      ],
      "type": "VEC3"
    },
    {
      "bufferView": 0,
      "byteOffset": 5043888,
      "componentType": 5126,
      "count": 65280,
      "type": "VEC3"
    },
    {
      "bufferView": 1,
      "byteOffset": 710088,
      "componentType": 5126,
      "count": 65280,
      "type": "SCALAR"
    },
    {
      "bufferView": 2,
      "byteOffset": 646800,
      "componentType": 5123,
      "count": 152028,
      "type": "SCALAR"
    },
    {
      "bufferView": 0,
      "byteOffset": 5827248,
      "componentType": 5126,
      "count": 64296,
      "max": [
        236.914566040039,
        81.6717910766602,
        659.757629394531
      ],
      "min": [
        146.94352722168,
        6.90960311889648,
        621.803955078125
      ],
      "type": "VEC3"
    },
    {
      "bufferView": 0,
      "byteOffset": 6598800,
      "componentType": 5126,
      "count": 64296,
      "type": "VEC3"
    },
    {
      "bufferView": 1,
      "byteOffset": 971208,
      "componentType": 5126,
      "count": 64296,
      "type": "SCALAR"
    },
    {
      "bufferView": 2,
      "byteOffset": 950856,
      "componentType": 5123,
      "count": 189504,
      "type": "SCALAR"
    },
    {
      "bufferView": 0,
      "byteOffset": 7370352,
      "componentType": 5126,
      "count": 45288,
      "max": [
        249.114105224609,
        81.6715240478516,
        659.757629394531
      ],
      "min": [
        142.404891967773,
        6.68109607696533,
        618.930419921875
      ],
      "type": "VEC3"
    },
    {
      "bufferView": 0,
      "byteOffset": 7913808,
      "componentType": 5126,
      "count": 45288,
      "type": "VEC3"
    },
    {
      "bufferView": 1,
      "byteOffset": 1228392,
      "componentType": 5126,
      "count": 45288,
      "type": "SCALAR"
    },
    {
      "bufferView": 2,
      "byteOffset": 1329864,
      "componentType": 5123,
      "count": 129852,
      "type": "SCALAR"
    },
    {
      "bufferView": 0,
      "byteOffset": 8457264,
      "componentType": 5126,
      "count": 44576,
      "max": [
        263.800567626953,
        116.141662597656,
        656.16796875
      ],
      "min": [
        120.078628540039,
        -27.5591239929199,
        618.930419921875
      ],
      "type": "VEC3"
    },
    {
      "bufferView": 0,
      "byteOffset": 8992176,
      "componentType": 5126,
      "count": 44576,
      "type": "VEC3"
    },
    {
      "bufferView": 1,
      "byteOffset": 1409544,
      "componentType": 5126,
      "count": 44576,
      "type": "SCALAR"
    },
    {
      "bufferView": 2,
      "byteOffset": 1589568,
      "componentType": 5123,
      "count": 82500,
      "type": "SCALAR"
    },
    {
      "bufferView": 0,
      "byteOffset": 9527088,
      "componentType": 5126,
      "count": 3336,
      "max": [
        249.580001831055,
        81.4369430541992,
        650.098388671875
      ],
      "min": [
        134.297607421875,
        7.14444875717163,
        622.703369140625
      ],
      "type": "VEC3"
    },
    {
      "bufferView": 0,
      "byteOffset": 9567120,
      "componentType": 5126,
      "count": 3336,
      "type": "VEC3"
    },
    {
      "bufferView": 1,
      "byteOffset": 1587848,
      "componentType": 5126,
      "count": 3336,
      "type": "SCALAR"
    },
    {
      "bufferView": 2,
      "byteOffset": 1754568,
      "componentType": 5123,
      "count": 5004,
      "type": "SCALAR"
    }
  ],
  "asset": {
    "version": "2.0"
  },
  "bufferViews": [
    {
      "buffer": 0,
      "byteLength": 9607152,
      "byteStride": 12,
      "target": 34962
    },
    {
      "buffer": 0,
      "byteLength": 1601192,
      "byteOffset": 9607152,
      "byteStride": 4,
      "target": 34962
    },
    {
      "buffer": 0,
      "byteLength": 1764576,
      "byteOffset": 11208344,
      "target": 34963
    }
  ],
  "buffers": [
    {
      "byteLength": 12972920,
      "uri": "7-13.bin"
    }
  ],
  "materials": [
    {
      "alphaMode": "BLEND",
      "name": "material灰绿色玻璃",
      "pbrMetallicRoughness": {
        "baseColorFactor": [
          0.1607843,
          0.3215686,
          0.3215686,
          0.8
        ],
        "metallicFactor": 0.0,
        "roughnessFactor": 0.5
      }
    },
    {
      "alphaMode": "OPAQUE",
      "name": "material功能性房间",
      "pbrMetallicRoughness": {
        "baseColorFactor": [
          0.0,
          0.0,
          1.0,
          1.0
        ],
        "metallicFactor": 0.0,
        "roughnessFactor": 0.5
      }
    },
    {
      "alphaMode": "OPAQUE",
      "name": "material淡蓝色字体",
      "pbrMetallicRoughness": {
        "baseColorFactor": [
          0.0,
          0.7490196,
          1.0,
          1.0
        ],
        "metallicFactor": 0.0,
        "roughnessFactor": 0.5
      }
    },
    {
      "alphaMode": "OPAQUE",
      "name": "material铝",
      "pbrMetallicRoughness": {
        "baseColorFactor": [
          0.9686275,
          0.9686275,
          0.9686275,
          1.0
        ],
        "metallicFactor": 0.0,
        "roughnessFactor": 0.5
      }
    },
    {
      "alphaMode": "OPAQUE",
      "name": "material深灰色金属肋",
      "pbrMetallicRoughness": {
        "baseColorFactor": [
          0.4705882,
          0.4705882,
          0.4705882,
          1.0
        ],
        "metallicFactor": 0.0,
        "roughnessFactor": 0.5
      }
    },
    {
      "alphaMode": "OPAQUE",
      "name": "material默认楼板",
      "pbrMetallicRoughness": {
        "baseColorFactor": [
          0.4980392,
          0.4980392,
          0.4980392,
          1.0
        ],
        "metallicFactor": 0.0,
        "roughnessFactor": 0.5
      }
    },
    {
      "alphaMode": "OPAQUE",
      "name": "material蓝色",
      "pbrMetallicRoughness": {
        "baseColorFactor": [
          0.09019608,
          0.145098,
          0.972549,
          1.0
        ],
        "metallicFactor": 0.0,
        "roughnessFactor": 0.5
      }
    },
    {
      "alphaMode": "OPAQUE",
      "name": "material红色",
      "pbrMetallicRoughness": {
        "baseColorFactor": [
          0.6980392,
          0.0,
          0.0,
          1.0
        ],
        "metallicFactor": 0.0,
        "roughnessFactor": 0.5
      }
    },
    {
      "alphaMode": "OPAQUE",
      "name": "material白色",
      "pbrMetallicRoughness": {
        "baseColorFactor": [
          0.9568627,
          0.9568627,
          0.9568627,
          1.0
        ],
        "metallicFactor": 0.0,
        "roughnessFactor": 0.5
      }
    },
    {
      "alphaMode": "OPAQUE",
      "name": "material门 - 嵌板",
      "pbrMetallicRoughness": {
        "baseColorFactor": [
          0.8235294,
          0.6235294,
          0.372549,
          1.0
        ],
        "metallicFactor": 0.0,
        "roughnessFactor": 0.5
      }
    },
    {
      "alphaMode": "OPAQUE",
      "name": "material门 - 框架",
      "pbrMetallicRoughness": {
        "baseColorFactor": [
          0.4627451,
          0.2745098,
          0.2,
          1.0
        ],
        "metallicFactor": 0.0,
        "roughnessFactor": 0.5
      }
    },
    {
      "alphaMode": "BLEND",
      "name": "material",
      "pbrMetallicRoughness": {
        "baseColorFactor": [
          0.8,
          0.8,
          0.8,
          0.0
        ],
        "metallicFactor": 0.0,
        "roughnessFactor": 0.0
      }
    },
    {
      "alphaMode": "OPAQUE",
      "name": "material金属 - 钢 - 深灰色",
      "pbrMetallicRoughness": {
        "baseColorFactor": [
          0.5019608,
          0.5019608,
          0.5019608,
          1.0
        ],
        "metallicFactor": 0.0,
        "roughnessFactor": 0.5
      }
    },
    {
      "alphaMode": "BLEND",
      "name": "material玻璃",
      "pbrMetallicRoughness": {
        "baseColorFactor": [
          0.854902,
          0.8901961,
          0.8784314,
          0.15
        ],
        "metallicFactor": 0.0,
        "roughnessFactor": 0.5
      }
    }
  ],
  "meshes": [
    {
      "primitives": [
        {
          "attributes": {
            "NORMAL": 1,
            "POSITION": 0,
            "_BATCHID": 2
          },
          "indices": 3,
          "material": 0,
          "mode": 4
        }
      ]
    },
    {
      "primitives": [
        {
          "attributes": {
            "NORMAL": 5,
            "POSITION": 4,
            "_BATCHID": 6
          },
          "indices": 7,
          "material": 1,
          "mode": 4
        }
      ]
    },
    {
      "primitives": [
        {
          "attributes": {
            "NORMAL": 9,
            "POSITION": 8,
            "_BATCHID": 10
          },
          "indices": 11,
          "material": 2,
          "mode": 4
        }
      ]
    },
    {
      "primitives": [
        {
          "attributes": {
            "NORMAL": 13,
            "POSITION": 12,
            "_BATCHID": 14
          },
          "indices": 15,
          "material": 3,
          "mode": 4
        }
      ]
    },
    {
      "primitives": [
        {
          "attributes": {
            "NORMAL": 17,
            "POSITION": 16,
            "_BATCHID": 18
          },
          "indices": 19,
          "material": 4,
          "mode": 4
        }
      ]
    },
    {
      "primitives": [
        {
          "attributes": {
            "NORMAL": 21,
            "POSITION": 20,
            "_BATCHID": 22
          },
          "indices": 23,
          "material": 5,
          "mode": 4
        }
      ]
    },
    {
      "primitives": [
        {
          "attributes": {
            "NORMAL": 25,
            "POSITION": 24,
            "_BATCHID": 26
          },
          "indices": 27,
          "material": 6,
          "mode": 4
        }
      ]
    },
    {
      "primitives": [
        {
          "attributes": {
            "NORMAL": 29,
            "POSITION": 28,
            "_BATCHID": 30
          },
          "indices": 31,
          "material": 7,
          "mode": 4
        }
      ]
    },
    {
      "primitives": [
        {
          "attributes": {
            "NORMAL": 33,
            "POSITION": 32,
            "_BATCHID": 34
          },
          "indices": 35,
          "material": 8,
          "mode": 4
        }
      ]
    },
    {
      "primitives": [
        {
          "attributes": {
            "NORMAL": 37,
            "POSITION": 36,
            "_BATCHID": 38
          },
          "indices": 39,
          "material": 9,
          "mode": 4
        }
      ]
    },
    {
      "primitives": [
        {
          "attributes": {
            "NORMAL": 41,
            "POSITION": 40,
            "_BATCHID": 42
          },
          "indices": 43,
          "material": 10,
          "mode": 4
        }
      ]
    },
    {
      "primitives": [
        {
          "attributes": {
            "NORMAL": 45,
            "POSITION": 44,
            "_BATCHID": 46
          },
          "indices": 47,
          "material": 11,
          "mode": 4
        }
      ]
    },
    {
      "primitives": [
        {
          "attributes": {
            "NORMAL": 49,
            "POSITION": 48,
            "_BATCHID": 50
          },
          "indices": 51,
          "material": 11,
          "mode": 4
        }
      ]
    },
    {
      "primitives": [
        {
          "attributes": {
            "NORMAL": 53,
            "POSITION": 52,
            "_BATCHID": 54
          },
          "indices": 55,
          "material": 11,
          "mode": 4
        }
      ]
    },
    {
      "primitives": [
        {
          "attributes": {
            "NORMAL": 57,
            "POSITION": 56,
            "_BATCHID": 58
          },
          "indices": 59,
          "material": 12,
          "mode": 4
        }
      ]
    },
    {
      "primitives": [
        {
          "attributes": {
            "NORMAL": 61,
            "POSITION": 60,
            "_BATCHID": 62
          },
          "indices": 63,
          "material": 13,
          "mode": 4
        }
      ]
    }
  ],
  "nodes": [
    {
      "mesh": 0,
      "name": "test"
    },
    {
      "mesh": 1,
      "name": "test"
    },
    {
      "mesh": 2,
      "name": "test"
    },
    {
      "mesh": 3,
      "name": "test"
    },
    {
      "mesh": 4,
      "name": "test"
    },
    {
      "mesh": 5,
      "name": "test"
    },
    {
      "mesh": 6,
      "name": "test"
    },
    {
      "mesh": 7,
      "name": "test"
    },
    {
      "mesh": 8,
      "name": "test"
    },
    {
      "mesh": 9,
      "name": "test"
    },
    {
      "mesh": 10,
      "name": "test"
    },
    {
      "mesh": 11,
      "name": "test"
    },
    {
      "mesh": 12,
      "name": "test"
    },
    {
      "mesh": 13,
      "name": "test"
    },
    {
      "mesh": 14,
      "name": "test"
    },
    {
      "mesh": 15,
      "name": "test"
    }
  ],
  "scene": 0,
  "scenes": [
    {
      "name": "scene",
      "nodes": [
        0,
        1,
        2,
        3,
        4,
        5,
        6,
        7,
        8,
        9,
        10,
        11,
        12,
        13,
        14,
        15
      ]
    }
  ]
}
