{
  "accessors": [
    {
      "bufferView": 0,
      "componentType": 5126,
      "count": 26732,
      "max": [
        197.834503173828,
        68.6679153442383,
        783.22998046875
      ],
      "min": [
        166.338500976563,
        24.1141109466553,
        706.500915527344
      ],
      "type": "VEC3"
    },
    {
      "bufferView": 0,
      "byteOffset": 320784,
      "componentType": 5126,
      "count": 26732,
      "type": "VEC3"
    },
    {
      "bufferView": 1,
      "componentType": 5126,
      "count": 26732,
      "type": "SCALAR"
    },
    {
      "bufferView": 2,
      "componentType": 5123,
      "count": 57588,
      "type": "SCALAR"
    },
    {
      "bufferView": 0,
      "byteOffset": 641568,
      "componentType": 5126,
      "count": 65528,
      "max": [
        264.648834228516,
        117.04125213623,
        865.485900878906
      ],
      "min": [
        119.209175109863,
        -28.4285526275635,
        706.299194335938
      ],
      "type": "VEC3"
    },
    {
      "bufferView": 0,
      "byteOffset": 1427904,
      "componentType": 5126,
      "count": 65528,
      "type": "VEC3"
    },
    {
      "bufferView": 1,
      "byteOffset": 106928,
      "componentType": 5126,
      "count": 65528,
      "type": "SCALAR"
    },
    {
      "bufferView": 2,
      "byteOffset": 115176,
      "componentType": 5123,
      "count": 98292,
      "type": "SCALAR"
    },
    {
      "bufferView": 0,
      "byteOffset": 2214240,
      "componentType": 5126,
      "count": 49722,
      "max": [
        261.728942871094,
        114.091125488281,
        865.485778808594
      ],
      "min": [
        122.129173278809,
        -25.508602142334,
        724.622680664063
      ],
      "type": "VEC3"
    },
    {
      "bufferView": 0,
      "byteOffset": 2810904,
      "componentType": 5126,
      "count": 49722,
      "type": "VEC3"
    },
    {
      "bufferView": 1,
      "byteOffset": 369040,
      "componentType": 5126,
      "count": 49722,
      "type": "SCALAR"
    },
    {
      "bufferView": 2,
      "byteOffset": 311760,
      "componentType": 5123,
      "count": 74754,
      "type": "SCALAR"
    },
    {
      "bufferView": 0,
      "byteOffset": 3407568,
      "componentType": 5126,
      "count": 65520,
      "max": [
        264.648834228516,
        117.006523132324,
        865.255920410156
      ],
      "min": [
        119.209175109863,
        -28.3793392181396,
        706.414123535156
      ],
      "type": "VEC3"
    },
    {
      "bufferView": 0,
      "byteOffset": 4193808,
      "componentType": 5126,
      "count": 65520,
      "type": "VEC3"
    },
    {
      "bufferView": 1,
      "byteOffset": 567928,
      "componentType": 5126,
      "count": 65520,
      "type": "SCALAR"
    },
    {
      "bufferView": 2,
      "byteOffset": 461268,
      "componentType": 5123,
      "count": 98328,
      "type": "SCALAR"
    },
    {
      "bufferView": 0,
      "byteOffset": 4980048,
      "componentType": 5126,
      "count": 280,
      "max": [
        257.742706298828,
        110.104904174805,
        826.98486328125
      ],
      "min": [
        147.752487182617,
        -9.57446765899658,
        796.702819824219
      ],
      "type": "VEC3"
    },
    {
      "bufferView": 0,
      "byteOffset": 4983408,
      "componentType": 5126,
      "count": 280,
      "type": "VEC3"
    },
    {
      "bufferView": 1,
      "byteOffset": 830008,
      "componentType": 5126,
      "count": 280,
      "type": "SCALAR"
    },
    {
      "bufferView": 2,
      "byteOffset": 657924,
      "componentType": 5123,
      "count": 468,
      "type": "SCALAR"
    },
    {
      "bufferView": 0,
      "byteOffset": 4986768,
      "componentType": 5126,
      "count": 27162,
      "max": [
        222.506454467773,
        74.8686981201172,
        798.444091796875
      ],
      "min": [
        161.351593017578,
        22.2758560180664,
        706.558349609375
      ],
      "type": "VEC3"
    },
    {
      "bufferView": 0,
      "byteOffset": 5312712,
      "componentType": 5126,
      "count": 27162,
      "type": "VEC3"
    },
    {
      "bufferView": 1,
      "byteOffset": 831128,
      "componentType": 5126,
      "count": 27162,
      "type": "SCALAR"
    },
    {
      "bufferView": 2,
      "byteOffset": 658860,
      "componentType": 5123,
      "count": 53934,
      "type": "SCALAR"
    },
    {
      "bufferView": 0,
      "byteOffset": 5638656,
      "componentType": 5126,
      "count": 35400,
      "max": [
        191.666519165039,
        69.8031311035156,
        785.137817382813
      ],
      "min": [
        191.60090637207,
        56.6797752380371,
        709.416015625
      ],
      "type": "VEC3"
    },
    {
      "bufferView": 0,
      "byteOffset": 6063456,
      "componentType": 5126,
      "count": 35400,
      "type": "VEC3"
    },
    {
      "bufferView": 1,
      "byteOffset": 939776,
      "componentType": 5126,
      "count": 35400,
      "type": "SCALAR"
    },
    {
      "bufferView": 2,
      "byteOffset": 766728,
      "componentType": 5123,
      "count": 70056,
      "type": "SCALAR"
    },
    {
      "bufferView": 0,
      "byteOffset": 6488256,
      "componentType": 5126,
      "count": 2992,
      "max": [
        197.736068725586,
        69.704704284668,
        785.072204589844
      ],
      "min": [
        166.436935424805,
        24.1141109466553,
        706.614562988281
      ],
      "type": "VEC3"
    },
    {
      "bufferView": 0,
      "byteOffset": 6524160,
      "componentType": 5126,
      "count": 2992,
      "type": "VEC3"
    },
    {
      "bufferView": 1,
      "byteOffset": 1081376,
      "componentType": 5126,
      "count": 2992,
      "type": "SCALAR"
    },
    {
      "bufferView": 2,
      "byteOffset": 906840,
      "componentType": 5123,
      "count": 7920,
      "type": "SCALAR"
    },
    {
      "bufferView": 0,
      "byteOffset": 6560064,
      "componentType": 5126,
      "count": 65040,
      "max": [
        264.681640625,
        117.093139648438,
        789.186889648438
      ],
      "min": [
        119.176368713379,
        -28.5105724334717,
        706.643676757813
      ],
      "type": "VEC3"
    },
    {
      "bufferView": 0,
      "byteOffset": 7340544,
      "componentType": 5126,
      "count": 65040,
      "type": "VEC3"
    },
    {
      "bufferView": 1,
      "byteOffset": 1093344,
      "componentType": 5126,
      "count": 65040,
      "type": "SCALAR"
    },
    {
      "bufferView": 2,
      "byteOffset": 922680,
      "componentType": 5123,
      "count": 169380,
      "type": "SCALAR"
    },
    {
      "bufferView": 0,
      "byteOffset": 8121024,
      "componentType": 5126,
      "count": 30456,
      "max": [
        247.933151245117,
        83.4270324707031,
        789.186889648438
      ],
      "min": [
        148.363220214844,
        6.57801532745361,
        712.434387207031
      ],
      "type": "VEC3"
    },
    {
      "bufferView": 0,
      "byteOffset": 8486496,
      "componentType": 5126,
      "count": 30456,
      "type": "VEC3"
    },
    {
      "bufferView": 1,
      "byteOffset": 1353504,
      "componentType": 5126,
      "count": 30456,
      "type": "SCALAR"
    },
    {
      "bufferView": 2,
      "byteOffset": 1261440,
      "componentType": 5123,
      "count": 87588,
      "type": "SCALAR"
    },
    {
      "bufferView": 0,
      "byteOffset": 8851968,
      "componentType": 5126,
      "count": 2784,
      "max": [
        263.779418945313,
        116.141662597656,
        785.761169433594
      ],
      "min": [
        120.078628540039,
        -27.5591239929199,
        712.270324707031
      ],
      "type": "VEC3"
    },
    {
      "bufferView": 0,
      "byteOffset": 8885376,
      "componentType": 5126,
      "count": 2784,
      "type": "VEC3"
    },
    {
      "bufferView": 1,
      "byteOffset": 1475328,
      "componentType": 5126,
      "count": 2784,
      "type": "SCALAR"
    },
    {
      "bufferView": 2,
      "byteOffset": 1436616,
      "componentType": 5123,
      "count": 6660,
      "type": "SCALAR"
    },
    {
      "bufferView": 0,
      "byteOffset": 8918784,
      "componentType": 5126,
      "count": 3072,
      "max": [
        199.474990844727,
        72.2270736694336,
        742.682006835938
      ],
      "min": [
        196.325378417969,
        20.2473011016846,
        709.692016601563
      ],
      "type": "VEC3"
    },
    {
      "bufferView": 0,
      "byteOffset": 8955648,
      "componentType": 5126,
      "count": 3072,
      "type": "VEC3"
    },
    {
      "bufferView": 1,
      "byteOffset": 1486464,
      "componentType": 5126,
      "count": 3072,
      "type": "SCALAR"
    },
    {
      "bufferView": 2,
      "byteOffset": 1449936,
      "componentType": 5123,
      "count": 5952,
      "type": "SCALAR"
    },
    {
      "bufferView": 0,
      "byteOffset": 8992512,
      "componentType": 5126,
      "count": 264,
      "max": [
        260.170501708984,
        89.4060974121094,
        719.652221679688
      ],
      "min": [
        133.348770141602,
        -0.823559284210205,
        712.434387207031
      ],
      "type": "VEC3"
    },
    {
      "bufferView": 0,
      "byteOffset": 8995680,
      "componentType": 5126,
      "count": 264,
      "type": "VEC3"
    },
    {
      "bufferView": 1,
      "byteOffset": 1498752,
      "componentType": 5126,
      "count": 264,
      "type": "SCALAR"
    },
    {
      "bufferView": 2,
      "byteOffset": 1461840,
      "componentType": 5123,
      "count": 396,
      "type": "SCALAR"
    },
    {
      "bufferView": 0,
      "byteOffset": 8998848,
      "componentType": 5126,
      "count": 1056,
      "max": [
        260.419860839844,
        89.9769592285156,
        719.901550292969
      ],
      "min": [
        133.099426269531,
        -1.39442539215088,
        712.434387207031
      ],
      "type": "VEC3"
    },
    {
      "bufferView": 0,
      "byteOffset": 9011520,
      "componentType": 5126,
      "count": 1056,
      "type": "VEC3"
    },
    {
      "bufferView": 1,
      "byteOffset": 1499808,
      "componentType": 5126,
      "count": 1056,
      "type": "SCALAR"
    },
    {
      "bufferView": 2,
      "byteOffset": 1462632,
      "componentType": 5123,
      "count": 1848,
      "type": "SCALAR"
    },
    {
      "bufferView": 0,
      "byteOffset": 9024192,
      "componentType": 5126,
      "count": 21730,
      "max": [
        260.82666015625,
        113.188911437988,
        799.376647949219
      ],
      "min": [
        123.031387329102,
        -24.6063671112061,
        712.434387207031
      ],
      "type": "VEC3"
    },
    {
      "bufferView": 0,
      "byteOffset": 9284952,
      "componentType": 5126,
      "count": 21730,
      "type": "VEC3"
    },
    {
      "bufferView": 1,
      "byteOffset": 1504032,
      "componentType": 5126,
      "count": 21730,
      "type": "SCALAR"
    },
    {
      "bufferView": 2,
      "byteOffset": 1466328,
      "componentType": 5123,
      "count": 39498,
      "type": "SCALAR"
    },
    {
      "bufferView": 0,
      "byteOffset": 9545712,
      "componentType": 5126,
      "count": 2136,
      "max": [
        251.545684814453,
        81.4369430541992,
        791.994812011719
      ],
      "min": [
        134.278106689453,
        7.14560079574585,
        716.207336425781
      ],
      "type": "VEC3"
    },
    {
      "bufferView": 0,
      "byteOffset": 9571344,
      "componentType": 5126,
      "count": 2136,
      "type": "VEC3"
    },
    {
      "bufferView": 1,
      "byteOffset": 1590952,
      "componentType": 5126,
      "count": 2136,
      "type": "SCALAR"
    },
    {
      "bufferView": 2,
      "byteOffset": 1545324,
      "componentType": 5123,
      "count": 3204,
      "type": "SCALAR"
    }
  ],
  "asset": {
    "version": "2.0"
  },
  "bufferViews": [
    {
      "buffer": 0,
      "byteLength": 9596976,
      "byteStride": 12,
      "target": 34962
    },
    {
      "buffer": 0,
      "byteLength": 1599496,
      "byteOffset": 9596976,
      "byteStride": 4,
      "target": 34962
    },
    {
      "buffer": 0,
      "byteLength": 1551732,
      "byteOffset": 11196472,
      "target": 34963
    }
  ],
  "buffers": [
    {
      "byteLength": 12748204,
      "uri": "7-15.bin"
    }
  ],
  "materials": [
    {
      "alphaMode": "OPAQUE",
      "name": "material淡蓝色字体",
      "pbrMetallicRoughness": {
        "baseColorFactor": [
          0.0,
          0.7490196,
          1.0,
          1.0
        ],
        "metallicFactor": 0.0,
        "roughnessFactor": 0.5
      }
    },
    {
      "alphaMode": "OPAQUE",
      "name": "material铝",
      "pbrMetallicRoughness": {
        "baseColorFactor": [
          0.9686275,
          0.9686275,
          0.9686275,
          1.0
        ],
        "metallicFactor": 0.0,
        "roughnessFactor": 0.5
      }
    },
    {
      "alphaMode": "BLEND",
      "name": "material灰绿色玻璃",
      "pbrMetallicRoughness": {
        "baseColorFactor": [
          0.1607843,
          0.3215686,
          0.3215686,
          0.8
        ],
        "metallicFactor": 0.0,
        "roughnessFactor": 0.5
      }
    },
    {
      "alphaMode": "OPAQUE",
      "name": "material功能性房间",
      "pbrMetallicRoughness": {
        "baseColorFactor": [
          0.0,
          0.0,
          1.0,
          1.0
        ],
        "metallicFactor": 0.0,
        "roughnessFactor": 0.5
      }
    },
    {
      "alphaMode": "OPAQUE",
      "name": "material红色",
      "pbrMetallicRoughness": {
        "baseColorFactor": [
          0.6980392,
          0.0,
          0.0,
          1.0
        ],
        "metallicFactor": 0.0,
        "roughnessFactor": 0.5
      }
    },
    {
      "alphaMode": "OPAQUE",
      "name": "material白色",
      "pbrMetallicRoughness": {
        "baseColorFactor": [
          0.9568627,
          0.9568627,
          0.9568627,
          1.0
        ],
        "metallicFactor": 0.0,
        "roughnessFactor": 0.5
      }
    },
    {
      "alphaMode": "BLEND",
      "name": "material",
      "pbrMetallicRoughness": {
        "baseColorFactor": [
          0.8,
          0.8,
          0.8,
          0.0
        ],
        "metallicFactor": 0.0,
        "roughnessFactor": 0.0
      }
    },
    {
      "alphaMode": "OPAQUE",
      "name": "material默认楼板",
      "pbrMetallicRoughness": {
        "baseColorFactor": [
          0.4980392,
          0.4980392,
          0.4980392,
          1.0
        ],
        "metallicFactor": 0.0,
        "roughnessFactor": 0.5
      }
    },
    {
      "alphaMode": "OPAQUE",
      "name": "material蓝色",
      "pbrMetallicRoughness": {
        "baseColorFactor": [
          0.09019608,
          0.145098,
          0.972549,
          1.0
        ],
        "metallicFactor": 0.0,
        "roughnessFactor": 0.5
      }
    },
    {
      "alphaMode": "OPAQUE",
      "name": "material门 - 嵌板",
      "pbrMetallicRoughness": {
        "baseColorFactor": [
          0.8235294,
          0.6235294,
          0.372549,
          1.0
        ],
        "metallicFactor": 0.0,
        "roughnessFactor": 0.5
      }
    },
    {
      "alphaMode": "OPAQUE",
      "name": "material门 - 框架",
      "pbrMetallicRoughness": {
        "baseColorFactor": [
          0.4627451,
          0.2745098,
          0.2,
          1.0
        ],
        "metallicFactor": 0.0,
        "roughnessFactor": 0.5
      }
    },
    {
      "alphaMode": "OPAQUE",
      "name": "material金属 - 钢 - 深灰色",
      "pbrMetallicRoughness": {
        "baseColorFactor": [
          0.5019608,
          0.5019608,
          0.5019608,
          1.0
        ],
        "metallicFactor": 0.0,
        "roughnessFactor": 0.5
      }
    },
    {
      "alphaMode": "BLEND",
      "name": "material玻璃",
      "pbrMetallicRoughness": {
        "baseColorFactor": [
          0.854902,
          0.8901961,
          0.8784314,
          0.15
        ],
        "metallicFactor": 0.0,
        "roughnessFactor": 0.5
      }
    }
  ],
  "meshes": [
    {
      "primitives": [
        {
          "attributes": {
            "NORMAL": 1,
            "POSITION": 0,
            "_BATCHID": 2
          },
          "indices": 3,
          "material": 0,
          "mode": 4
        }
      ]
    },
    {
      "primitives": [
        {
          "attributes": {
            "NORMAL": 5,
            "POSITION": 4,
            "_BATCHID": 6
          },
          "indices": 7,
          "material": 1,
          "mode": 4
        }
      ]
    },
    {
      "primitives": [
        {
          "attributes": {
            "NORMAL": 9,
            "POSITION": 8,
            "_BATCHID": 10
          },
          "indices": 11,
          "material": 1,
          "mode": 4
        }
      ]
    },
    {
      "primitives": [
        {
          "attributes": {
            "NORMAL": 13,
            "POSITION": 12,
            "_BATCHID": 14
          },
          "indices": 15,
          "material": 2,
          "mode": 4
        }
      ]
    },
    {
      "primitives": [
        {
          "attributes": {
            "NORMAL": 17,
            "POSITION": 16,
            "_BATCHID": 18
          },
          "indices": 19,
          "material": 2,
          "mode": 4
        }
      ]
    },
    {
      "primitives": [
        {
          "attributes": {
            "NORMAL": 21,
            "POSITION": 20,
            "_BATCHID": 22
          },
          "indices": 23,
          "material": 3,
          "mode": 4
        }
      ]
    },
    {
      "primitives": [
        {
          "attributes": {
            "NORMAL": 25,
            "POSITION": 24,
            "_BATCHID": 26
          },
          "indices": 27,
          "material": 4,
          "mode": 4
        }
      ]
    },
    {
      "primitives": [
        {
          "attributes": {
            "NORMAL": 29,
            "POSITION": 28,
            "_BATCHID": 30
          },
          "indices": 31,
          "material": 5,
          "mode": 4
        }
      ]
    },
    {
      "primitives": [
        {
          "attributes": {
            "NORMAL": 33,
            "POSITION": 32,
            "_BATCHID": 34
          },
          "indices": 35,
          "material": 6,
          "mode": 4
        }
      ]
    },
    {
      "primitives": [
        {
          "attributes": {
            "NORMAL": 37,
            "POSITION": 36,
            "_BATCHID": 38
          },
          "indices": 39,
          "material": 6,
          "mode": 4
        }
      ]
    },
    {
      "primitives": [
        {
          "attributes": {
            "NORMAL": 41,
            "POSITION": 40,
            "_BATCHID": 42
          },
          "indices": 43,
          "material": 7,
          "mode": 4
        }
      ]
    },
    {
      "primitives": [
        {
          "attributes": {
            "NORMAL": 45,
            "POSITION": 44,
            "_BATCHID": 46
          },
          "indices": 47,
          "material": 8,
          "mode": 4
        }
      ]
    },
    {
      "primitives": [
        {
          "attributes": {
            "NORMAL": 49,
            "POSITION": 48,
            "_BATCHID": 50
          },
          "indices": 51,
          "material": 9,
          "mode": 4
        }
      ]
    },
    {
      "primitives": [
        {
          "attributes": {
            "NORMAL": 53,
            "POSITION": 52,
            "_BATCHID": 54
          },
          "indices": 55,
          "material": 10,
          "mode": 4
        }
      ]
    },
    {
      "primitives": [
        {
          "attributes": {
            "NORMAL": 57,
            "POSITION": 56,
            "_BATCHID": 58
          },
          "indices": 59,
          "material": 11,
          "mode": 4
        }
      ]
    },
    {
      "primitives": [
        {
          "attributes": {
            "NORMAL": 61,
            "POSITION": 60,
            "_BATCHID": 62
          },
          "indices": 63,
          "material": 12,
          "mode": 4
        }
      ]
    }
  ],
  "nodes": [
    {
      "mesh": 0,
      "name": "test"
    },
    {
      "mesh": 1,
      "name": "test"
    },
    {
      "mesh": 2,
      "name": "test"
    },
    {
      "mesh": 3,
      "name": "test"
    },
    {
      "mesh": 4,
      "name": "test"
    },
    {
      "mesh": 5,
      "name": "test"
    },
    {
      "mesh": 6,
      "name": "test"
    },
    {
      "mesh": 7,
      "name": "test"
    },
    {
      "mesh": 8,
      "name": "test"
    },
    {
      "mesh": 9,
      "name": "test"
    },
    {
      "mesh": 10,
      "name": "test"
    },
    {
      "mesh": 11,
      "name": "test"
    },
    {
      "mesh": 12,
      "name": "test"
    },
    {
      "mesh": 13,
      "name": "test"
    },
    {
      "mesh": 14,
      "name": "test"
    },
    {
      "mesh": 15,
      "name": "test"
    }
  ],
  "scene": 0,
  "scenes": [
    {
      "name": "scene",
      "nodes": [
        0,
        1,
        2,
        3,
        4,
        5,
        6,
        7,
        8,
        9,
        10,
        11,
        12,
        13,
        14,
        15
      ]
    }
  ]
}
