{
  "accessors": [
    {
      "bufferView": 0,
      "componentType": 5126,
      "count": 2520,
      "max": [
        229.927734375,
        75.7873382568359,
        234.087890625
      ],
      "min": [
        153.930374145508,
        12.7952060699463,
        174.540664672852
      ],
      "type": "VEC3"
    },
    {
      "bufferView": 0,
      "byteOffset": 30240,
      "componentType": 5126,
      "count": 2520,
      "type": "VEC3"
    },
    {
      "bufferView": 1,
      "componentType": 5126,
      "count": 2520,
      "type": "SCALAR"
    },
    {
      "bufferView": 2,
      "componentType": 5123,
      "count": 3780,
      "type": "SCALAR"
    },
    {
      "bufferView": 0,
      "byteOffset": 60480,
      "componentType": 5126,
      "count": 64920,
      "max": [
        264.681640625,
        117.043930053711,
        239.058395385742
      ],
      "min": [
        119.176368713379,
        -28.5105724334717,
        170.702087402344
      ],
      "type": "VEC3"
    },
    {
      "bufferView": 0,
      "byteOffset": 839520,
      "componentType": 5126,
      "count": 64920,
      "type": "VEC3"
    },
    {
      "bufferView": 1,
      "byteOffset": 10080,
      "componentType": 5126,
      "count": 64920,
      "type": "SCALAR"
    },
    {
      "bufferView": 2,
      "byteOffset": 7560,
      "componentType": 5123,
      "count": 140724,
      "type": "SCALAR"
    },
    {
      "bufferView": 0,
      "byteOffset": 1618560,
      "componentType": 5126,
      "count": 65424,
      "max": [
        230.068817138672,
        82.4310302734375,
        235.137756347656
      ],
      "min": [
        153.789291381836,
        6.1515064239502,
        170.767700195313
      ],
      "type": "VEC3"
    },
    {
      "bufferView": 0,
      "byteOffset": 2403648,
      "componentType": 5126,
      "count": 65424,
      "type": "VEC3"
    },
    {
      "bufferView": 1,
      "byteOffset": 269760,
      "componentType": 5126,
      "count": 65424,
      "type": "SCALAR"
    },
    {
      "bufferView": 2,
      "byteOffset": 289008,
      "componentType": 5123,
      "count": 189684,
      "type": "SCALAR"
    },
    {
      "bufferView": 0,
      "byteOffset": 3188736,
      "componentType": 5126,
      "count": 42120,
      "max": [
        230.068817138672,
        82.4310302734375,
        235.137756347656
      ],
      "min": [
        153.789291381836,
        6.1515064239502,
        170.767700195313
      ],
      "type": "VEC3"
    },
    {
      "bufferView": 0,
      "byteOffset": 3694176,
      "componentType": 5126,
      "count": 42120,
      "type": "VEC3"
    },
    {
      "bufferView": 1,
      "byteOffset": 531456,
      "componentType": 5126,
      "count": 42120,
      "type": "SCALAR"
    },
    {
      "bufferView": 2,
      "byteOffset": 668376,
      "componentType": 5123,
      "count": 117612,
      "type": "SCALAR"
    },
    {
      "bufferView": 0,
      "byteOffset": 4199616,
      "componentType": 5126,
      "count": 25160,
      "max": [
        236.548446655273,
        88.9106903076172,
        241.961944580078
      ],
      "min": [
        147.309600830078,
        6.23352718353271,
        170.767700195313
      ],
      "type": "VEC3"
    },
    {
      "bufferView": 0,
      "byteOffset": 4501536,
      "componentType": 5126,
      "count": 25160,
      "type": "VEC3"
    },
    {
      "bufferView": 1,
      "byteOffset": 699936,
      "componentType": 5126,
      "count": 25160,
      "type": "SCALAR"
    },
    {
      "bufferView": 2,
      "byteOffset": 903600,
      "componentType": 5123,
      "count": 46020,
      "type": "SCALAR"
    },
    {
      "bufferView": 0,
      "byteOffset": 4803456,
      "componentType": 5126,
      "count": 44630,
      "max": [
        264.648834228516,
        117.011123657227,
        239.173217773438
      ],
      "min": [
        119.209175109863,
        -28.3793392181396,
        170.767700195313
      ],
      "type": "VEC3"
    },
    {
      "bufferView": 0,
      "byteOffset": 5339016,
      "componentType": 5126,
      "count": 44630,
      "type": "VEC3"
    },
    {
      "bufferView": 1,
      "byteOffset": 800576,
      "componentType": 5126,
      "count": 44630,
      "type": "SCALAR"
    },
    {
      "bufferView": 2,
      "byteOffset": 995640,
      "componentType": 5123,
      "count": 67836,
      "type": "SCALAR"
    },
    {
      "bufferView": 0,
      "byteOffset": 5874576,
      "componentType": 5126,
      "count": 32960,
      "max": [
        207.348999023438,
        68.6679153442383,
        240.276504516602
      ],
      "min": [
        186.023498535156,
        34.2847099304199,
        180.072601318359
      ],
      "type": "VEC3"
    },
    {
      "bufferView": 0,
      "byteOffset": 6270096,
      "componentType": 5126,
      "count": 32960,
      "type": "VEC3"
    },
    {
      "bufferView": 1,
      "byteOffset": 979096,
      "componentType": 5126,
      "count": 32960,
      "type": "SCALAR"
    },
    {
      "bufferView": 2,
      "byteOffset": 1131312,
      "componentType": 5123,
      "count": 71160,
      "type": "SCALAR"
    },
    {
      "bufferView": 0,
      "byteOffset": 6665616,
      "componentType": 5126,
      "count": 25508,
      "max": [
        265.222961425781,
        117.585266113281,
        239.173294067383
      ],
      "min": [
        118.635032653809,
        -29.0026988983154,
        170.767700195313
      ],
      "type": "VEC3"
    },
    {
      "bufferView": 0,
      "byteOffset": 6971712,
      "componentType": 5126,
      "count": 25508,
      "type": "VEC3"
    },
    {
      "bufferView": 1,
      "byteOffset": 1110936,
      "componentType": 5126,
      "count": 25508,
      "type": "SCALAR"
    },
    {
      "bufferView": 2,
      "byteOffset": 1273632,
      "componentType": 5123,
      "count": 38262,
      "type": "SCALAR"
    },
    {
      "bufferView": 0,
      "byteOffset": 7277808,
      "componentType": 5126,
      "count": 44952,
      "max": [
        264.648834228516,
        117.04125213623,
        239.288024902344
      ],
      "min": [
        119.209175109863,
        -28.4285526275635,
        170.767700195313
      ],
      "type": "VEC3"
    },
    {
      "bufferView": 0,
      "byteOffset": 7817232,
      "componentType": 5126,
      "count": 44952,
      "type": "VEC3"
    },
    {
      "bufferView": 1,
      "byteOffset": 1212968,
      "componentType": 5126,
      "count": 44952,
      "type": "SCALAR"
    },
    {
      "bufferView": 2,
      "byteOffset": 1350156,
      "componentType": 5123,
      "count": 67428,
      "type": "SCALAR"
    },
    {
      "bufferView": 0,
      "byteOffset": 8356656,
      "componentType": 5126,
      "count": 240,
      "max": [
        161.089080810547,
        56.9225082397461,
        235.072143554688
      ],
      "min": [
        160.921768188477,
        31.6600322723389,
        170.767700195313
      ],
      "type": "VEC3"
    },
    {
      "bufferView": 0,
      "byteOffset": 8359536,
      "componentType": 5126,
      "count": 240,
      "type": "VEC3"
    },
    {
      "bufferView": 1,
      "byteOffset": 1392776,
      "componentType": 5126,
      "count": 240,
      "type": "SCALAR"
    },
    {
      "bufferView": 2,
      "byteOffset": 1485012,
      "componentType": 5123,
      "count": 360,
      "type": "SCALAR"
    },
    {
      "bufferView": 0,
      "byteOffset": 8362416,
      "componentType": 5126,
      "count": 960,
      "max": [
        161.171112060547,
        57.1718521118164,
        235.321487426758
      ],
      "min": [
        160.350891113281,
        31.4106884002686,
        170.767700195313
      ],
      "type": "VEC3"
    },
    {
      "bufferView": 0,
      "byteOffset": 8373936,
      "componentType": 5126,
      "count": 960,
      "type": "VEC3"
    },
    {
      "bufferView": 1,
      "byteOffset": 1393736,
      "componentType": 5126,
      "count": 960,
      "type": "SCALAR"
    },
    {
      "bufferView": 2,
      "byteOffset": 1485732,
      "componentType": 5123,
      "count": 1680,
      "type": "SCALAR"
    },
    {
      "bufferView": 0,
      "byteOffset": 8385456,
      "componentType": 5126,
      "count": 3832,
      "max": [
        207.250564575195,
        69.704704284668,
        240.162796020508
      ],
      "min": [
        186.121932983398,
        34.2847099304199,
        180.186309814453
      ],
      "type": "VEC3"
    },
    {
      "bufferView": 0,
      "byteOffset": 8431440,
      "componentType": 5126,
      "count": 3832,
      "type": "VEC3"
    },
    {
      "bufferView": 1,
      "byteOffset": 1397576,
      "componentType": 5126,
      "count": 3832,
      "type": "SCALAR"
    },
    {
      "bufferView": 2,
      "byteOffset": 1489092,
      "componentType": 5123,
      "count": 10368,
      "type": "SCALAR"
    },
    {
      "bufferView": 0,
      "byteOffset": 8477424,
      "componentType": 5126,
      "count": 19040,
      "max": [
        160.432952880859,
        57.1371421813965,
        226.057189941406
      ],
      "min": [
        160.367340087891,
        31.3770637512207,
        182.090515136719
      ],
      "type": "VEC3"
    },
    {
      "bufferView": 0,
      "byteOffset": 8705904,
      "componentType": 5126,
      "count": 19040,
      "type": "VEC3"
    },
    {
      "bufferView": 1,
      "byteOffset": 1412904,
      "componentType": 5126,
      "count": 19040,
      "type": "SCALAR"
    },
    {
      "bufferView": 2,
      "byteOffset": 1509828,
      "componentType": 5123,
      "count": 37344,
      "type": "SCALAR"
    },
    {
      "bufferView": 0,
      "byteOffset": 8934384,
      "componentType": 5126,
      "count": 2232,
      "max": [
        199.474990844727,
        72.1749954223633,
        226.5546875
      ],
      "min": [
        196.259780883789,
        20.2999610900879,
        182.765243530273
      ],
      "type": "VEC3"
    },
    {
      "bufferView": 0,
      "byteOffset": 8961168,
      "componentType": 5126,
      "count": 2232,
      "type": "VEC3"
    },
    {
      "bufferView": 1,
      "byteOffset": 1489064,
      "componentType": 5126,
      "count": 2232,
      "type": "SCALAR"
    },
    {
      "bufferView": 2,
      "byteOffset": 1584516,
      "componentType": 5123,
      "count": 4200,
      "type": "SCALAR"
    },
    {
      "bufferView": 0,
      "byteOffset": 8987952,
      "componentType": 5126,
      "count": 23600,
      "max": [
        191.666519165039,
        69.8031311035156,
        227.132537841797
      ],
      "min": [
        191.60090637207,
        56.6797752380371,
        182.906784057617
      ],
      "type": "VEC3"
    },
    {
      "bufferView": 0,
      "byteOffset": 9271152,
      "componentType": 5126,
      "count": 23600,
      "type": "VEC3"
    },
    {
      "bufferView": 1,
      "byteOffset": 1497992,
      "componentType": 5126,
      "count": 23600,
      "type": "SCALAR"
    },
    {
      "bufferView": 2,
      "byteOffset": 1592916,
      "componentType": 5123,
      "count": 46704,
      "type": "SCALAR"
    },
    {
      "bufferView": 0,
      "byteOffset": 9554352,
      "componentType": 5126,
      "count": 2928,
      "max": [
        263.779418945313,
        116.141662597656,
        227.85432434082
      ],
      "min": [
        120.078628540039,
        -27.5591239929199,
        184.875335693359
      ],
      "type": "VEC3"
    },
    {
      "bufferView": 0,
      "byteOffset": 9589488,
      "componentType": 5126,
      "count": 2928,
      "type": "VEC3"
    },
    {
      "bufferView": 1,
      "byteOffset": 1592392,
      "componentType": 5126,
      "count": 2928,
      "type": "SCALAR"
    },
    {
      "bufferView": 2,
      "byteOffset": 1686324,
      "componentType": 5123,
      "count": 7152,
      "type": "SCALAR"
    }
  ],
  "asset": {
    "version": "2.0"
  },
  "bufferViews": [
    {
      "buffer": 0,
      "byteLength": 9624624,
      "byteStride": 12,
      "target": 34962
    },
    {
      "buffer": 0,
      "byteLength": 1604104,
      "byteOffset": 9624624,
      "byteStride": 4,
      "target": 34962
    },
    {
      "buffer": 0,
      "byteLength": 1700628,
      "byteOffset": 11228728,
      "target": 34963
    }
  ],
  "buffers": [
    {
      "byteLength": 12929356,
      "uri": "7-3.bin"
    }
  ],
  "materials": [
    {
      "alphaMode": "BLEND",
      "name": "material玻璃",
      "pbrMetallicRoughness": {
        "baseColorFactor": [
          0.854902,
          0.8901961,
          0.8784314,
          0.15
        ],
        "metallicFactor": 0.0,
        "roughnessFactor": 0.5
      }
    },
    {
      "alphaMode": "BLEND",
      "name": "material",
      "pbrMetallicRoughness": {
        "baseColorFactor": [
          0.8,
          0.8,
          0.8,
          0.0
        ],
        "metallicFactor": 0.0,
        "roughnessFactor": 0.0
      }
    },
    {
      "alphaMode": "OPAQUE",
      "name": "material金属 - 钢 - 深灰色",
      "pbrMetallicRoughness": {
        "baseColorFactor": [
          0.5019608,
          0.5019608,
          0.5019608,
          1.0
        ],
        "metallicFactor": 0.0,
        "roughnessFactor": 0.5
      }
    },
    {
      "alphaMode": "BLEND",
      "name": "material灰绿色玻璃",
      "pbrMetallicRoughness": {
        "baseColorFactor": [
          0.1607843,
          0.3215686,
          0.3215686,
          0.8
        ],
        "metallicFactor": 0.0,
        "roughnessFactor": 0.5
      }
    },
    {
      "alphaMode": "OPAQUE",
      "name": "material淡蓝色字体",
      "pbrMetallicRoughness": {
        "baseColorFactor": [
          0.0,
          0.7490196,
          1.0,
          1.0
        ],
        "metallicFactor": 0.0,
        "roughnessFactor": 0.5
      }
    },
    {
      "alphaMode": "OPAQUE",
      "name": "material深灰色金属肋",
      "pbrMetallicRoughness": {
        "baseColorFactor": [
          0.4705882,
          0.4705882,
          0.4705882,
          1.0
        ],
        "metallicFactor": 0.0,
        "roughnessFactor": 0.5
      }
    },
    {
      "alphaMode": "OPAQUE",
      "name": "material铝",
      "pbrMetallicRoughness": {
        "baseColorFactor": [
          0.9686275,
          0.9686275,
          0.9686275,
          1.0
        ],
        "metallicFactor": 0.0,
        "roughnessFactor": 0.5
      }
    },
    {
      "alphaMode": "OPAQUE",
      "name": "material门 - 嵌板",
      "pbrMetallicRoughness": {
        "baseColorFactor": [
          0.8235294,
          0.6235294,
          0.372549,
          1.0
        ],
        "metallicFactor": 0.0,
        "roughnessFactor": 0.5
      }
    },
    {
      "alphaMode": "OPAQUE",
      "name": "material门 - 框架",
      "pbrMetallicRoughness": {
        "baseColorFactor": [
          0.4627451,
          0.2745098,
          0.2,
          1.0
        ],
        "metallicFactor": 0.0,
        "roughnessFactor": 0.5
      }
    },
    {
      "alphaMode": "OPAQUE",
      "name": "material白色",
      "pbrMetallicRoughness": {
        "baseColorFactor": [
          0.9568627,
          0.9568627,
          0.9568627,
          1.0
        ],
        "metallicFactor": 0.0,
        "roughnessFactor": 0.5
      }
    },
    {
      "alphaMode": "OPAQUE",
      "name": "material功能性房间",
      "pbrMetallicRoughness": {
        "baseColorFactor": [
          0.0,
          0.0,
          1.0,
          1.0
        ],
        "metallicFactor": 0.0,
        "roughnessFactor": 0.5
      }
    },
    {
      "alphaMode": "OPAQUE",
      "name": "material蓝色",
      "pbrMetallicRoughness": {
        "baseColorFactor": [
          0.09019608,
          0.145098,
          0.972549,
          1.0
        ],
        "metallicFactor": 0.0,
        "roughnessFactor": 0.5
      }
    },
    {
      "alphaMode": "OPAQUE",
      "name": "material红色",
      "pbrMetallicRoughness": {
        "baseColorFactor": [
          0.6980392,
          0.0,
          0.0,
          1.0
        ],
        "metallicFactor": 0.0,
        "roughnessFactor": 0.5
      }
    },
    {
      "alphaMode": "OPAQUE",
      "name": "material默认楼板",
      "pbrMetallicRoughness": {
        "baseColorFactor": [
          0.4980392,
          0.4980392,
          0.4980392,
          1.0
        ],
        "metallicFactor": 0.0,
        "roughnessFactor": 0.5
      }
    }
  ],
  "meshes": [
    {
      "primitives": [
        {
          "attributes": {
            "NORMAL": 1,
            "POSITION": 0,
            "_BATCHID": 2
          },
          "indices": 3,
          "material": 0,
          "mode": 4
        }
      ]
    },
    {
      "primitives": [
        {
          "attributes": {
            "NORMAL": 5,
            "POSITION": 4,
            "_BATCHID": 6
          },
          "indices": 7,
          "material": 1,
          "mode": 4
        }
      ]
    },
    {
      "primitives": [
        {
          "attributes": {
            "NORMAL": 9,
            "POSITION": 8,
            "_BATCHID": 10
          },
          "indices": 11,
          "material": 1,
          "mode": 4
        }
      ]
    },
    {
      "primitives": [
        {
          "attributes": {
            "NORMAL": 13,
            "POSITION": 12,
            "_BATCHID": 14
          },
          "indices": 15,
          "material": 1,
          "mode": 4
        }
      ]
    },
    {
      "primitives": [
        {
          "attributes": {
            "NORMAL": 17,
            "POSITION": 16,
            "_BATCHID": 18
          },
          "indices": 19,
          "material": 2,
          "mode": 4
        }
      ]
    },
    {
      "primitives": [
        {
          "attributes": {
            "NORMAL": 21,
            "POSITION": 20,
            "_BATCHID": 22
          },
          "indices": 23,
          "material": 3,
          "mode": 4
        }
      ]
    },
    {
      "primitives": [
        {
          "attributes": {
            "NORMAL": 25,
            "POSITION": 24,
            "_BATCHID": 26
          },
          "indices": 27,
          "material": 4,
          "mode": 4
        }
      ]
    },
    {
      "primitives": [
        {
          "attributes": {
            "NORMAL": 29,
            "POSITION": 28,
            "_BATCHID": 30
          },
          "indices": 31,
          "material": 5,
          "mode": 4
        }
      ]
    },
    {
      "primitives": [
        {
          "attributes": {
            "NORMAL": 33,
            "POSITION": 32,
            "_BATCHID": 34
          },
          "indices": 35,
          "material": 6,
          "mode": 4
        }
      ]
    },
    {
      "primitives": [
        {
          "attributes": {
            "NORMAL": 37,
            "POSITION": 36,
            "_BATCHID": 38
          },
          "indices": 39,
          "material": 7,
          "mode": 4
        }
      ]
    },
    {
      "primitives": [
        {
          "attributes": {
            "NORMAL": 41,
            "POSITION": 40,
            "_BATCHID": 42
          },
          "indices": 43,
          "material": 8,
          "mode": 4
        }
      ]
    },
    {
      "primitives": [
        {
          "attributes": {
            "NORMAL": 45,
            "POSITION": 44,
            "_BATCHID": 46
          },
          "indices": 47,
          "material": 9,
          "mode": 4
        }
      ]
    },
    {
      "primitives": [
        {
          "attributes": {
            "NORMAL": 49,
            "POSITION": 48,
            "_BATCHID": 50
          },
          "indices": 51,
          "material": 10,
          "mode": 4
        }
      ]
    },
    {
      "primitives": [
        {
          "attributes": {
            "NORMAL": 53,
            "POSITION": 52,
            "_BATCHID": 54
          },
          "indices": 55,
          "material": 11,
          "mode": 4
        }
      ]
    },
    {
      "primitives": [
        {
          "attributes": {
            "NORMAL": 57,
            "POSITION": 56,
            "_BATCHID": 58
          },
          "indices": 59,
          "material": 12,
          "mode": 4
        }
      ]
    },
    {
      "primitives": [
        {
          "attributes": {
            "NORMAL": 61,
            "POSITION": 60,
            "_BATCHID": 62
          },
          "indices": 63,
          "material": 13,
          "mode": 4
        }
      ]
    }
  ],
  "nodes": [
    {
      "mesh": 0,
      "name": "test"
    },
    {
      "mesh": 1,
      "name": "test"
    },
    {
      "mesh": 2,
      "name": "test"
    },
    {
      "mesh": 3,
      "name": "test"
    },
    {
      "mesh": 4,
      "name": "test"
    },
    {
      "mesh": 5,
      "name": "test"
    },
    {
      "mesh": 6,
      "name": "test"
    },
    {
      "mesh": 7,
      "name": "test"
    },
    {
      "mesh": 8,
      "name": "test"
    },
    {
      "mesh": 9,
      "name": "test"
    },
    {
      "mesh": 10,
      "name": "test"
    },
    {
      "mesh": 11,
      "name": "test"
    },
    {
      "mesh": 12,
      "name": "test"
    },
    {
      "mesh": 13,
      "name": "test"
    },
    {
      "mesh": 14,
      "name": "test"
    },
    {
      "mesh": 15,
      "name": "test"
    }
  ],
  "scene": 0,
  "scenes": [
    {
      "name": "scene",
      "nodes": [
        0,
        1,
        2,
        3,
        4,
        5,
        6,
        7,
        8,
        9,
        10,
        11,
        12,
        13,
        14,
        15
      ]
    }
  ]
}
