{
  "accessors": [
    {
      "bufferView": 0,
      "componentType": 5126,
      "count": 45216,
      "max": [
        264.648834228516,
        117.04125213623,
        305.789184570313
      ],
      "min": [
        119.209175109863,
        -28.4285526275635,
        239.058380126953
      ],
      "type": "VEC3"
    },
    {
      "bufferView": 0,
      "byteOffset": 542592,
      "componentType": 5126,
      "count": 45216,
      "type": "VEC3"
    },
    {
      "bufferView": 1,
      "componentType": 5126,
      "count": 45216,
      "type": "SCALAR"
    },
    {
      "bufferView": 2,
      "componentType": 5123,
      "count": 67824,
      "type": "SCALAR"
    },
    {
      "bufferView": 0,
      "byteOffset": 1085184,
      "componentType": 5126,
      "count": 23332,
      "max": [
        265.222961425781,
        117.585266113281,
        302.799560546875
      ],
      "min": [
        118.635032653809,
        -29.0026988983154,
        239.173202514648
      ],
      "type": "VEC3"
    },
    {
      "bufferView": 0,
      "byteOffset": 1365168,
      "componentType": 5126,
      "count": 23332,
      "type": "VEC3"
    },
    {
      "bufferView": 1,
      "byteOffset": 180864,
      "componentType": 5126,
      "count": 23332,
      "type": "SCALAR"
    },
    {
      "bufferView": 2,
      "byteOffset": 135648,
      "componentType": 5123,
      "count": 34998,
      "type": "SCALAR"
    },
    {
      "bufferView": 0,
      "byteOffset": 1645152,
      "componentType": 5126,
      "count": 41896,
      "max": [
        264.648834228516,
        117.011123657227,
        305.683074951172
      ],
      "min": [
        119.209175109863,
        -28.4285526275635,
        239.173202514648
      ],
      "type": "VEC3"
    },
    {
      "bufferView": 0,
      "byteOffset": 2147904,
      "componentType": 5126,
      "count": 41896,
      "type": "VEC3"
    },
    {
      "bufferView": 1,
      "byteOffset": 274192,
      "componentType": 5126,
      "count": 41896,
      "type": "SCALAR"
    },
    {
      "bufferView": 2,
      "byteOffset": 205644,
      "componentType": 5123,
      "count": 63660,
      "type": "SCALAR"
    },
    {
      "bufferView": 0,
      "byteOffset": 2650656,
      "componentType": 5126,
      "count": 23800,
      "max": [
        160.432952880859,
        57.1371421813965,
        297.579498291016
      ],
      "min": [
        160.367340087891,
        31.3770637512207,
        239.177124023438
      ],
      "type": "VEC3"
    },
    {
      "bufferView": 0,
      "byteOffset": 2936256,
      "componentType": 5126,
      "count": 23800,
      "type": "VEC3"
    },
    {
      "bufferView": 1,
      "byteOffset": 441776,
      "componentType": 5126,
      "count": 23800,
      "type": "SCALAR"
    },
    {
      "bufferView": 2,
      "byteOffset": 332964,
      "componentType": 5123,
      "count": 46680,
      "type": "SCALAR"
    },
    {
      "bufferView": 0,
      "byteOffset": 3221856,
      "componentType": 5126,
      "count": 3660,
      "max": [
        263.779418945313,
        116.141662597656,
        299.212585449219
      ],
      "min": [
        120.078628540039,
        -27.5591239929199,
        241.961944580078
      ],
      "type": "VEC3"
    },
    {
      "bufferView": 0,
      "byteOffset": 3265776,
      "componentType": 5126,
      "count": 3660,
      "type": "VEC3"
    },
    {
      "bufferView": 1,
      "byteOffset": 536976,
      "componentType": 5126,
      "count": 3660,
      "type": "SCALAR"
    },
    {
      "bufferView": 2,
      "byteOffset": 426324,
      "componentType": 5123,
      "count": 8940,
      "type": "SCALAR"
    },
    {
      "bufferView": 0,
      "byteOffset": 3309696,
      "componentType": 5126,
      "count": 3792,
      "max": [
        199.474990844727,
        72.1749954223633,
        298.082366943359
      ],
      "min": [
        196.259780883789,
        20.2999610900879,
        239.840911865234
      ],
      "type": "VEC3"
    },
    {
      "bufferView": 0,
      "byteOffset": 3355200,
      "componentType": 5126,
      "count": 3792,
      "type": "VEC3"
    },
    {
      "bufferView": 1,
      "byteOffset": 551616,
      "componentType": 5126,
      "count": 3792,
      "type": "SCALAR"
    },
    {
      "bufferView": 2,
      "byteOffset": 444204,
      "componentType": 5123,
      "count": 7320,
      "type": "SCALAR"
    },
    {
      "bufferView": 0,
      "byteOffset": 3400704,
      "componentType": 5126,
      "count": 29500,
      "max": [
        191.666519165039,
        69.8031311035156,
        298.687622070313
      ],
      "min": [
        191.60090637207,
        56.6797752380371,
        239.99348449707
      ],
      "type": "VEC3"
    },
    {
      "bufferView": 0,
      "byteOffset": 3754704,
      "componentType": 5126,
      "count": 29500,
      "type": "VEC3"
    },
    {
      "bufferView": 1,
      "byteOffset": 566784,
      "componentType": 5126,
      "count": 29500,
      "type": "SCALAR"
    },
    {
      "bufferView": 2,
      "byteOffset": 458844,
      "componentType": 5123,
      "count": 58380,
      "type": "SCALAR"
    },
    {
      "bufferView": 0,
      "byteOffset": 4108704,
      "componentType": 5126,
      "count": 3152,
      "max": [
        207.250564575195,
        69.704704284668,
        298.622009277344
      ],
      "min": [
        186.121932983398,
        34.2847099304199,
        240.059097290039
      ],
      "type": "VEC3"
    },
    {
      "bufferView": 0,
      "byteOffset": 4146528,
      "componentType": 5126,
      "count": 3152,
      "type": "VEC3"
    },
    {
      "bufferView": 1,
      "byteOffset": 684784,
      "componentType": 5126,
      "count": 3152,
      "type": "SCALAR"
    },
    {
      "bufferView": 2,
      "byteOffset": 575604,
      "componentType": 5123,
      "count": 8424,
      "type": "SCALAR"
    },
    {
      "bufferView": 0,
      "byteOffset": 4184352,
      "componentType": 5126,
      "count": 64512,
      "max": [
        264.730834960938,
        117.043930053711,
        302.638275146484
      ],
      "min": [
        119.127159118652,
        -28.5105724334717,
        242.060394287109
      ],
      "type": "VEC3"
    },
    {
      "bufferView": 0,
      "byteOffset": 4958496,
      "componentType": 5126,
      "count": 64512,
      "type": "VEC3"
    },
    {
      "bufferView": 1,
      "byteOffset": 697392,
      "componentType": 5126,
      "count": 64512,
      "type": "SCALAR"
    },
    {
      "bufferView": 2,
      "byteOffset": 592452,
      "componentType": 5123,
      "count": 146484,
      "type": "SCALAR"
    },
    {
      "bufferView": 0,
      "byteOffset": 5732640,
      "componentType": 5126,
      "count": 65040,
      "max": [
        230.068817138672,
        82.4310302734375,
        302.638275146484
      ],
      "min": [
        153.789291381836,
        6.1515064239502,
        244.999542236328
      ],
      "type": "VEC3"
    },
    {
      "bufferView": 0,
      "byteOffset": 6513120,
      "componentType": 5126,
      "count": 65040,
      "type": "VEC3"
    },
    {
      "bufferView": 1,
      "byteOffset": 955440,
      "componentType": 5126,
      "count": 65040,
      "type": "SCALAR"
    },
    {
      "bufferView": 2,
      "byteOffset": 885420,
      "componentType": 5123,
      "count": 189036,
      "type": "SCALAR"
    },
    {
      "bufferView": 0,
      "byteOffset": 7293600,
      "componentType": 5126,
      "count": 43680,
      "max": [
        230.068817138672,
        82.4310302734375,
        306.496063232422
      ],
      "min": [
        153.789291381836,
        6.1515064239502,
        242.126007080078
      ],
      "type": "VEC3"
    },
    {
      "bufferView": 0,
      "byteOffset": 7817760,
      "componentType": 5126,
      "count": 43680,
      "type": "VEC3"
    },
    {
      "bufferView": 1,
      "byteOffset": 1215600,
      "componentType": 5126,
      "count": 43680,
      "type": "SCALAR"
    },
    {
      "bufferView": 2,
      "byteOffset": 1263492,
      "componentType": 5123,
      "count": 121968,
      "type": "SCALAR"
    },
    {
      "bufferView": 0,
      "byteOffset": 8341920,
      "componentType": 5126,
      "count": 21088,
      "max": [
        236.548446655273,
        88.9106903076172,
        305.528198242188
      ],
      "min": [
        147.309600830078,
        6.23352718353271,
        242.125991821289
      ],
      "type": "VEC3"
    },
    {
      "bufferView": 0,
      "byteOffset": 8594976,
      "componentType": 5126,
      "count": 21088,
      "type": "VEC3"
    },
    {
      "bufferView": 1,
      "byteOffset": 1390320,
      "componentType": 5126,
      "count": 21088,
      "type": "SCALAR"
    },
    {
      "bufferView": 2,
      "byteOffset": 1507428,
      "componentType": 5123,
      "count": 38556,
      "type": "SCALAR"
    },
    {
      "bufferView": 0,
      "byteOffset": 8848032,
      "componentType": 5126,
      "count": 240,
      "max": [
        161.089080810547,
        56.9225082397461,
        306.430419921875
      ],
      "min": [
        160.921768188477,
        31.6600322723389,
        242.126007080078
      ],
      "type": "VEC3"
    },
    {
      "bufferView": 0,
      "byteOffset": 8850912,
      "componentType": 5126,
      "count": 240,
      "type": "VEC3"
    },
    {
      "bufferView": 1,
      "byteOffset": 1474672,
      "componentType": 5126,
      "count": 240,
      "type": "SCALAR"
    },
    {
      "bufferView": 2,
      "byteOffset": 1584540,
      "componentType": 5123,
      "count": 360,
      "type": "SCALAR"
    },
    {
      "bufferView": 0,
      "byteOffset": 8853792,
      "componentType": 5126,
      "count": 768,
      "max": [
        161.171112060547,
        57.1718521118164,
        292.408081054688
      ],
      "min": [
        160.350891113281,
        31.4106884002686,
        242.126007080078
      ],
      "type": "VEC3"
    },
    {
      "bufferView": 0,
      "byteOffset": 8863008,
      "componentType": 5126,
      "count": 768,
      "type": "VEC3"
    },
    {
      "bufferView": 1,
      "byteOffset": 1475632,
      "componentType": 5126,
      "count": 768,
      "type": "SCALAR"
    },
    {
      "bufferView": 2,
      "byteOffset": 1585260,
      "componentType": 5123,
      "count": 1344,
      "type": "SCALAR"
    },
    {
      "bufferView": 0,
      "byteOffset": 8872224,
      "componentType": 5126,
      "count": 2016,
      "max": [
        229.927734375,
        75.7873382568359,
        291.174468994141
      ],
      "min": [
        153.930374145508,
        12.7952060699463,
        245.898971557617
      ],
      "type": "VEC3"
    },
    {
      "bufferView": 0,
      "byteOffset": 8896416,
      "componentType": 5126,
      "count": 2016,
      "type": "VEC3"
    },
    {
      "bufferView": 1,
      "byteOffset": 1478704,
      "componentType": 5126,
      "count": 2016,
      "type": "SCALAR"
    },
    {
      "bufferView": 2,
      "byteOffset": 1587948,
      "componentType": 5123,
      "count": 3024,
      "type": "SCALAR"
    },
    {
      "bufferView": 0,
      "byteOffset": 8920608,
      "componentType": 5126,
      "count": 26368,
      "max": [
        207.348999023438,
        68.6679153442383,
        297.363189697266
      ],
      "min": [
        186.023498535156,
        34.2847099304199,
        251.430801391602
      ],
      "type": "VEC3"
    },
    {
      "bufferView": 0,
      "byteOffset": 9237024,
      "componentType": 5126,
      "count": 26368,
      "type": "VEC3"
    },
    {
      "bufferView": 1,
      "byteOffset": 1486768,
      "componentType": 5126,
      "count": 26368,
      "type": "SCALAR"
    },
    {
      "bufferView": 2,
      "byteOffset": 1593996,
      "componentType": 5123,
      "count": 56928,
      "type": "SCALAR"
    }
  ],
  "asset": {
    "version": "2.0"
  },
  "bufferViews": [
    {
      "buffer": 0,
      "byteLength": 9553440,
      "byteStride": 12,
      "target": 34962
    },
    {
      "buffer": 0,
      "byteLength": 1592240,
      "byteOffset": 9553440,
      "byteStride": 4,
      "target": 34962
    },
    {
      "buffer": 0,
      "byteLength": 1707852,
      "byteOffset": 11145680,
      "target": 34963
    }
  ],
  "buffers": [
    {
      "byteLength": 12853532,
      "uri": "7-4.bin"
    }
  ],
  "materials": [
    {
      "alphaMode": "OPAQUE",
      "name": "material铝",
      "pbrMetallicRoughness": {
        "baseColorFactor": [
          0.9686275,
          0.9686275,
          0.9686275,
          1.0
        ],
        "metallicFactor": 0.0,
        "roughnessFactor": 0.5
      }
    },
    {
      "alphaMode": "OPAQUE",
      "name": "material深灰色金属肋",
      "pbrMetallicRoughness": {
        "baseColorFactor": [
          0.4705882,
          0.4705882,
          0.4705882,
          1.0
        ],
        "metallicFactor": 0.0,
        "roughnessFactor": 0.5
      }
    },
    {
      "alphaMode": "BLEND",
      "name": "material灰绿色玻璃",
      "pbrMetallicRoughness": {
        "baseColorFactor": [
          0.1607843,
          0.3215686,
          0.3215686,
          0.8
        ],
        "metallicFactor": 0.0,
        "roughnessFactor": 0.5
      }
    },
    {
      "alphaMode": "OPAQUE",
      "name": "material功能性房间",
      "pbrMetallicRoughness": {
        "baseColorFactor": [
          0.0,
          0.0,
          1.0,
          1.0
        ],
        "metallicFactor": 0.0,
        "roughnessFactor": 0.5
      }
    },
    {
      "alphaMode": "OPAQUE",
      "name": "material默认楼板",
      "pbrMetallicRoughness": {
        "baseColorFactor": [
          0.4980392,
          0.4980392,
          0.4980392,
          1.0
        ],
        "metallicFactor": 0.0,
        "roughnessFactor": 0.5
      }
    },
    {
      "alphaMode": "OPAQUE",
      "name": "material蓝色",
      "pbrMetallicRoughness": {
        "baseColorFactor": [
          0.09019608,
          0.145098,
          0.972549,
          1.0
        ],
        "metallicFactor": 0.0,
        "roughnessFactor": 0.5
      }
    },
    {
      "alphaMode": "OPAQUE",
      "name": "material红色",
      "pbrMetallicRoughness": {
        "baseColorFactor": [
          0.6980392,
          0.0,
          0.0,
          1.0
        ],
        "metallicFactor": 0.0,
        "roughnessFactor": 0.5
      }
    },
    {
      "alphaMode": "OPAQUE",
      "name": "material白色",
      "pbrMetallicRoughness": {
        "baseColorFactor": [
          0.9568627,
          0.9568627,
          0.9568627,
          1.0
        ],
        "metallicFactor": 0.0,
        "roughnessFactor": 0.5
      }
    },
    {
      "alphaMode": "BLEND",
      "name": "material",
      "pbrMetallicRoughness": {
        "baseColorFactor": [
          0.8,
          0.8,
          0.8,
          0.0
        ],
        "metallicFactor": 0.0,
        "roughnessFactor": 0.0
      }
    },
    {
      "alphaMode": "OPAQUE",
      "name": "material金属 - 钢 - 深灰色",
      "pbrMetallicRoughness": {
        "baseColorFactor": [
          0.5019608,
          0.5019608,
          0.5019608,
          1.0
        ],
        "metallicFactor": 0.0,
        "roughnessFactor": 0.5
      }
    },
    {
      "alphaMode": "OPAQUE",
      "name": "material门 - 嵌板",
      "pbrMetallicRoughness": {
        "baseColorFactor": [
          0.8235294,
          0.6235294,
          0.372549,
          1.0
        ],
        "metallicFactor": 0.0,
        "roughnessFactor": 0.5
      }
    },
    {
      "alphaMode": "OPAQUE",
      "name": "material门 - 框架",
      "pbrMetallicRoughness": {
        "baseColorFactor": [
          0.4627451,
          0.2745098,
          0.2,
          1.0
        ],
        "metallicFactor": 0.0,
        "roughnessFactor": 0.5
      }
    },
    {
      "alphaMode": "BLEND",
      "name": "material玻璃",
      "pbrMetallicRoughness": {
        "baseColorFactor": [
          0.854902,
          0.8901961,
          0.8784314,
          0.15
        ],
        "metallicFactor": 0.0,
        "roughnessFactor": 0.5
      }
    },
    {
      "alphaMode": "OPAQUE",
      "name": "material淡蓝色字体",
      "pbrMetallicRoughness": {
        "baseColorFactor": [
          0.0,
          0.7490196,
          1.0,
          1.0
        ],
        "metallicFactor": 0.0,
        "roughnessFactor": 0.5
      }
    }
  ],
  "meshes": [
    {
      "primitives": [
        {
          "attributes": {
            "NORMAL": 1,
            "POSITION": 0,
            "_BATCHID": 2
          },
          "indices": 3,
          "material": 0,
          "mode": 4
        }
      ]
    },
    {
      "primitives": [
        {
          "attributes": {
            "NORMAL": 5,
            "POSITION": 4,
            "_BATCHID": 6
          },
          "indices": 7,
          "material": 1,
          "mode": 4
        }
      ]
    },
    {
      "primitives": [
        {
          "attributes": {
            "NORMAL": 9,
            "POSITION": 8,
            "_BATCHID": 10
          },
          "indices": 11,
          "material": 2,
          "mode": 4
        }
      ]
    },
    {
      "primitives": [
        {
          "attributes": {
            "NORMAL": 13,
            "POSITION": 12,
            "_BATCHID": 14
          },
          "indices": 15,
          "material": 3,
          "mode": 4
        }
      ]
    },
    {
      "primitives": [
        {
          "attributes": {
            "NORMAL": 17,
            "POSITION": 16,
            "_BATCHID": 18
          },
          "indices": 19,
          "material": 4,
          "mode": 4
        }
      ]
    },
    {
      "primitives": [
        {
          "attributes": {
            "NORMAL": 21,
            "POSITION": 20,
            "_BATCHID": 22
          },
          "indices": 23,
          "material": 5,
          "mode": 4
        }
      ]
    },
    {
      "primitives": [
        {
          "attributes": {
            "NORMAL": 25,
            "POSITION": 24,
            "_BATCHID": 26
          },
          "indices": 27,
          "material": 6,
          "mode": 4
        }
      ]
    },
    {
      "primitives": [
        {
          "attributes": {
            "NORMAL": 29,
            "POSITION": 28,
            "_BATCHID": 30
          },
          "indices": 31,
          "material": 7,
          "mode": 4
        }
      ]
    },
    {
      "primitives": [
        {
          "attributes": {
            "NORMAL": 33,
            "POSITION": 32,
            "_BATCHID": 34
          },
          "indices": 35,
          "material": 8,
          "mode": 4
        }
      ]
    },
    {
      "primitives": [
        {
          "attributes": {
            "NORMAL": 37,
            "POSITION": 36,
            "_BATCHID": 38
          },
          "indices": 39,
          "material": 8,
          "mode": 4
        }
      ]
    },
    {
      "primitives": [
        {
          "attributes": {
            "NORMAL": 41,
            "POSITION": 40,
            "_BATCHID": 42
          },
          "indices": 43,
          "material": 8,
          "mode": 4
        }
      ]
    },
    {
      "primitives": [
        {
          "attributes": {
            "NORMAL": 45,
            "POSITION": 44,
            "_BATCHID": 46
          },
          "indices": 47,
          "material": 9,
          "mode": 4
        }
      ]
    },
    {
      "primitives": [
        {
          "attributes": {
            "NORMAL": 49,
            "POSITION": 48,
            "_BATCHID": 50
          },
          "indices": 51,
          "material": 10,
          "mode": 4
        }
      ]
    },
    {
      "primitives": [
        {
          "attributes": {
            "NORMAL": 53,
            "POSITION": 52,
            "_BATCHID": 54
          },
          "indices": 55,
          "material": 11,
          "mode": 4
        }
      ]
    },
    {
      "primitives": [
        {
          "attributes": {
            "NORMAL": 57,
            "POSITION": 56,
            "_BATCHID": 58
          },
          "indices": 59,
          "material": 12,
          "mode": 4
        }
      ]
    },
    {
      "primitives": [
        {
          "attributes": {
            "NORMAL": 61,
            "POSITION": 60,
            "_BATCHID": 62
          },
          "indices": 63,
          "material": 13,
          "mode": 4
        }
      ]
    }
  ],
  "nodes": [
    {
      "mesh": 0,
      "name": "test"
    },
    {
      "mesh": 1,
      "name": "test"
    },
    {
      "mesh": 2,
      "name": "test"
    },
    {
      "mesh": 3,
      "name": "test"
    },
    {
      "mesh": 4,
      "name": "test"
    },
    {
      "mesh": 5,
      "name": "test"
    },
    {
      "mesh": 6,
      "name": "test"
    },
    {
      "mesh": 7,
      "name": "test"
    },
    {
      "mesh": 8,
      "name": "test"
    },
    {
      "mesh": 9,
      "name": "test"
    },
    {
      "mesh": 10,
      "name": "test"
    },
    {
      "mesh": 11,
      "name": "test"
    },
    {
      "mesh": 12,
      "name": "test"
    },
    {
      "mesh": 13,
      "name": "test"
    },
    {
      "mesh": 14,
      "name": "test"
    },
    {
      "mesh": 15,
      "name": "test"
    }
  ],
  "scene": 0,
  "scenes": [
    {
      "name": "scene",
      "nodes": [
        0,
        1,
        2,
        3,
        4,
        5,
        6,
        7,
        8,
        9,
        10,
        11,
        12,
        13,
        14,
        15
      ]
    }
  ]
}
