{
  "accessors": [
    {
      "bufferView": 0,
      "componentType": 5126,
      "count": 65152,
      "max": [
        264.730834960938,
        117.043930053711,
        383.907470703125
      ],
      "min": [
        119.127159118652,
        -28.5105724334717,
        361.97509765625
      ],
      "type": "VEC3"
    },
    {
      "bufferView": 0,
      "byteOffset": 781824,
      "componentType": 5126,
      "count": 65152,
      "type": "VEC3"
    },
    {
      "bufferView": 1,
      "componentType": 5126,
      "count": 65152,
      "type": "SCALAR"
    },
    {
      "bufferView": 2,
      "componentType": 5123,
      "count": 163656,
      "type": "SCALAR"
    },
    {
      "bufferView": 0,
      "byteOffset": 1563648,
      "componentType": 5126,
      "count": 64980,
      "max": [
        261.794555664063,
        83.5090560913086,
        390.400787353516
      ],
      "min": [
        122.063537597656,
        5.07348442077637,
        364.914245605469
      ],
      "type": "VEC3"
    },
    {
      "bufferView": 0,
      "byteOffset": 2343408,
      "componentType": 5126,
      "count": 64980,
      "type": "VEC3"
    },
    {
      "bufferView": 1,
      "byteOffset": 260608,
      "componentType": 5126,
      "count": 64980,
      "type": "SCALAR"
    },
    {
      "bufferView": 2,
      "byteOffset": 327312,
      "componentType": 5123,
      "count": 191520,
      "type": "SCALAR"
    },
    {
      "bufferView": 0,
      "byteOffset": 3123168,
      "componentType": 5126,
      "count": 64584,
      "max": [
        264.648834228516,
        81.6717910766602,
        390.400787353516
      ],
      "min": [
        133.530090332031,
        -28.4285526275635,
        347.063690185547
      ],
      "type": "VEC3"
    },
    {
      "bufferView": 0,
      "byteOffset": 3898176,
      "componentType": 5126,
      "count": 64584,
      "type": "VEC3"
    },
    {
      "bufferView": 1,
      "byteOffset": 520528,
      "componentType": 5126,
      "count": 64584,
      "type": "SCALAR"
    },
    {
      "bufferView": 2,
      "byteOffset": 710352,
      "componentType": 5123,
      "count": 157224,
      "type": "SCALAR"
    },
    {
      "bufferView": 0,
      "byteOffset": 4673184,
      "componentType": 5126,
      "count": 17040,
      "max": [
        191.600952148438,
        -28.2645092010498,
        358.973114013672
      ],
      "min": [
        147.965744018555,
        -28.4285526275635,
        347.064086914063
      ],
      "type": "VEC3"
    },
    {
      "bufferView": 0,
      "byteOffset": 4877664,
      "componentType": 5126,
      "count": 17040,
      "type": "VEC3"
    },
    {
      "bufferView": 1,
      "byteOffset": 778864,
      "componentType": 5126,
      "count": 17040,
      "type": "SCALAR"
    },
    {
      "bufferView": 2,
      "byteOffset": 1024800,
      "componentType": 5123,
      "count": 29820,
      "type": "SCALAR"
    },
    {
      "bufferView": 0,
      "byteOffset": 5082144,
      "componentType": 5126,
      "count": 24166,
      "max": [
        235.319351196289,
        88.254524230957,
        384.907562255859
      ],
      "min": [
        160.367340087891,
        -8.72851371765137,
        357.943542480469
      ],
      "type": "VEC3"
    },
    {
      "bufferView": 0,
      "byteOffset": 5372136,
      "componentType": 5126,
      "count": 24166,
      "type": "VEC3"
    },
    {
      "bufferView": 1,
      "byteOffset": 847024,
      "componentType": 5126,
      "count": 24166,
      "type": "SCALAR"
    },
    {
      "bufferView": 2,
      "byteOffset": 1084440,
      "componentType": 5123,
      "count": 47778,
      "type": "SCALAR"
    },
    {
      "bufferView": 0,
      "byteOffset": 5662128,
      "componentType": 5126,
      "count": 24810,
      "max": [
        264.648834228516,
        117.011123657227,
        393.192291259766
      ],
      "min": [
        119.209175109863,
        -28.4285526275635,
        351.379699707031
      ],
      "type": "VEC3"
    },
    {
      "bufferView": 0,
      "byteOffset": 5959848,
      "componentType": 5126,
      "count": 24810,
      "type": "VEC3"
    },
    {
      "bufferView": 1,
      "byteOffset": 943688,
      "componentType": 5126,
      "count": 24810,
      "type": "SCALAR"
    },
    {
      "bufferView": 2,
      "byteOffset": 1179996,
      "componentType": 5123,
      "count": 37668,
      "type": "SCALAR"
    },
    {
      "bufferView": 0,
      "byteOffset": 6257568,
      "componentType": 5126,
      "count": 24432,
      "max": [
        197.834503173828,
        68.5366744995117,
        386.609313964844
      ],
      "min": [
        166.338500976563,
        24.1141109466553,
        355.451110839844
      ],
      "type": "VEC3"
    },
    {
      "bufferView": 0,
      "byteOffset": 6550752,
      "componentType": 5126,
      "count": 24432,
      "type": "VEC3"
    },
    {
      "bufferView": 1,
      "byteOffset": 1042928,
      "componentType": 5126,
      "count": 24432,
      "type": "SCALAR"
    },
    {
      "bufferView": 2,
      "byteOffset": 1255332,
      "componentType": 5123,
      "count": 52740,
      "type": "SCALAR"
    },
    {
      "bufferView": 0,
      "byteOffset": 6843936,
      "componentType": 5126,
      "count": 28976,
      "max": [
        264.648834228516,
        117.04125213623,
        389.920715332031
      ],
      "min": [
        119.209175109863,
        -28.4285526275635,
        351.273590087891
      ],
      "type": "VEC3"
    },
    {
      "bufferView": 0,
      "byteOffset": 7191648,
      "componentType": 5126,
      "count": 28976,
      "type": "VEC3"
    },
    {
      "bufferView": 1,
      "byteOffset": 1140656,
      "componentType": 5126,
      "count": 28976,
      "type": "SCALAR"
    },
    {
      "bufferView": 2,
      "byteOffset": 1360812,
      "componentType": 5123,
      "count": 43464,
      "type": "SCALAR"
    },
    {
      "bufferView": 0,
      "byteOffset": 7539360,
      "componentType": 5126,
      "count": 14208,
      "max": [
        265.222961425781,
        117.585266113281,
        392.209533691406
      ],
      "min": [
        118.635032653809,
        -29.0026988983154,
        353.332214355469
      ],
      "type": "VEC3"
    },
    {
      "bufferView": 0,
      "byteOffset": 7709856,
      "componentType": 5126,
      "count": 14208,
      "type": "VEC3"
    },
    {
      "bufferView": 1,
      "byteOffset": 1256560,
      "componentType": 5126,
      "count": 14208,
      "type": "SCALAR"
    },
    {
      "bufferView": 2,
      "byteOffset": 1447740,
      "componentType": 5123,
      "count": 21312,
      "type": "SCALAR"
    },
    {
      "bufferView": 0,
      "byteOffset": 7880352,
      "componentType": 5126,
      "count": 17700,
      "max": [
        191.666519165039,
        69.8031311035156,
        386.351745605469
      ],
      "min": [
        191.60090637207,
        56.6797752380371,
        358.628570556641
      ],
      "type": "VEC3"
    },
    {
      "bufferView": 0,
      "byteOffset": 8092752,
      "componentType": 5126,
      "count": 17700,
      "type": "VEC3"
    },
    {
      "bufferView": 1,
      "byteOffset": 1313392,
      "componentType": 5126,
      "count": 17700,
      "type": "SCALAR"
    },
    {
      "bufferView": 2,
      "byteOffset": 1490364,
      "componentType": 5123,
      "count": 35028,
      "type": "SCALAR"
    },
    {
      "bufferView": 0,
      "byteOffset": 8305152,
      "componentType": 5126,
      "count": 2640,
      "max": [
        197.736068725586,
        69.704704284668,
        386.49560546875
      ],
      "min": [
        166.436935424805,
        24.1141109466553,
        355.564819335938
      ],
      "type": "VEC3"
    },
    {
      "bufferView": 0,
      "byteOffset": 8336832,
      "componentType": 5126,
      "count": 2640,
      "type": "VEC3"
    },
    {
      "bufferView": 1,
      "byteOffset": 1384192,
      "componentType": 5126,
      "count": 2640,
      "type": "SCALAR"
    },
    {
      "bufferView": 2,
      "byteOffset": 1560420,
      "componentType": 5123,
      "count": 7128,
      "type": "SCALAR"
    },
    {
      "bufferView": 0,
      "byteOffset": 8368512,
      "componentType": 5126,
      "count": 2952,
      "max": [
        199.474990844727,
        72.205192565918,
        385.890625
      ],
      "min": [
        196.325378417969,
        20.2473011016846,
        358.972991943359
      ],
      "type": "VEC3"
    },
    {
      "bufferView": 0,
      "byteOffset": 8403936,
      "componentType": 5126,
      "count": 2952,
      "type": "VEC3"
    },
    {
      "bufferView": 1,
      "byteOffset": 1394752,
      "componentType": 5126,
      "count": 2952,
      "type": "SCALAR"
    },
    {
      "bufferView": 2,
      "byteOffset": 1574676,
      "componentType": 5123,
      "count": 5712,
      "type": "SCALAR"
    },
    {
      "bufferView": 0,
      "byteOffset": 8439360,
      "componentType": 5126,
      "count": 3756,
      "max": [
        263.779418945313,
        116.141662597656,
        386.975067138672
      ],
      "min": [
        120.078628540039,
        -27.5591239929199,
        361.876647949219
      ],
      "type": "VEC3"
    },
    {
      "bufferView": 0,
      "byteOffset": 8484432,
      "componentType": 5126,
      "count": 3756,
      "type": "VEC3"
    },
    {
      "bufferView": 1,
      "byteOffset": 1406560,
      "componentType": 5126,
      "count": 3756,
      "type": "SCALAR"
    },
    {
      "bufferView": 2,
      "byteOffset": 1586100,
      "componentType": 5123,
      "count": 9120,
      "type": "SCALAR"
    },
    {
      "bufferView": 0,
      "byteOffset": 8529504,
      "componentType": 5126,
      "count": 168,
      "max": [
        209.809585571289,
        45.9316864013672,
        392.880615234375
      ],
      "min": [
        188.320114135742,
        45.7643623352051,
        362.040710449219
      ],
      "type": "VEC3"
    },
    {
      "bufferView": 0,
      "byteOffset": 8531520,
      "componentType": 5126,
      "count": 168,
      "type": "VEC3"
    },
    {
      "bufferView": 1,
      "byteOffset": 1421584,
      "componentType": 5126,
      "count": 168,
      "type": "SCALAR"
    },
    {
      "bufferView": 2,
      "byteOffset": 1604340,
      "componentType": 5123,
      "count": 252,
      "type": "SCALAR"
    },
    {
      "bufferView": 0,
      "byteOffset": 8533536,
      "componentType": 5126,
      "count": 672,
      "max": [
        210.058929443359,
        46.0137062072754,
        393.129943847656
      ],
      "min": [
        188.070770263672,
        45.0294532775879,
        362.040710449219
      ],
      "type": "VEC3"
    },
    {
      "bufferView": 0,
      "byteOffset": 8541600,
      "componentType": 5126,
      "count": 672,
      "type": "VEC3"
    },
    {
      "bufferView": 1,
      "byteOffset": 1422256,
      "componentType": 5126,
      "count": 672,
      "type": "SCALAR"
    },
    {
      "bufferView": 2,
      "byteOffset": 1604844,
      "componentType": 5123,
      "count": 1176,
      "type": "SCALAR"
    },
    {
      "bufferView": 0,
      "byteOffset": 8549664,
      "componentType": 5126,
      "count": 39156,
      "max": [
        263.779418945313,
        115.157348632813,
        386.81103515625
      ],
      "min": [
        120.078628540039,
        -26.4435749053955,
        362.040679931641
      ],
      "type": "VEC3"
    },
    {
      "bufferView": 0,
      "byteOffset": 9019536,
      "componentType": 5126,
      "count": 39156,
      "type": "VEC3"
    },
    {
      "bufferView": 1,
      "byteOffset": 1424944,
      "componentType": 5126,
      "count": 39156,
      "type": "SCALAR"
    },
    {
      "bufferView": 2,
      "byteOffset": 1607196,
      "componentType": 5123,
      "count": 72588,
      "type": "SCALAR"
    },
    {
      "bufferView": 0,
      "byteOffset": 9489408,
      "componentType": 5126,
      "count": 3504,
      "max": [
        261.482879638672,
        83.2742080688477,
        380.741485595703
      ],
      "min": [
        122.375213623047,
        5.30833053588867,
        365.813690185547
      ],
      "type": "VEC3"
    },
    {
      "bufferView": 0,
      "byteOffset": 9531456,
      "componentType": 5126,
      "count": 3504,
      "type": "VEC3"
    },
    {
      "bufferView": 1,
      "byteOffset": 1581568,
      "componentType": 5126,
      "count": 3504,
      "type": "SCALAR"
    },
    {
      "bufferView": 2,
      "byteOffset": 1752372,
      "componentType": 5123,
      "count": 5256,
      "type": "SCALAR"
    }
  ],
  "asset": {
    "version": "2.0"
  },
  "bufferViews": [
    {
      "buffer": 0,
      "byteLength": 9573504,
      "byteStride": 12,
      "target": 34962
    },
    {
      "buffer": 0,
      "byteLength": 1595584,
      "byteOffset": 9573504,
      "byteStride": 4,
      "target": 34962
    },
    {
      "buffer": 0,
      "byteLength": 1762884,
      "byteOffset": 11169088,
      "target": 34963
    }
  ],
  "buffers": [
    {
      "byteLength": 12931972,
      "uri": "7-6.bin"
    }
  ],
  "materials": [
    {
      "alphaMode": "BLEND",
      "name": "material",
      "pbrMetallicRoughness": {
        "baseColorFactor": [
          0.8,
          0.8,
          0.8,
          0.0
        ],
        "metallicFactor": 0.0,
        "roughnessFactor": 0.0
      }
    },
    {
      "alphaMode": "OPAQUE",
      "name": "material功能性房间",
      "pbrMetallicRoughness": {
        "baseColorFactor": [
          0.0,
          0.0,
          1.0,
          1.0
        ],
        "metallicFactor": 0.0,
        "roughnessFactor": 0.5
      }
    },
    {
      "alphaMode": "BLEND",
      "name": "material灰绿色玻璃",
      "pbrMetallicRoughness": {
        "baseColorFactor": [
          0.1607843,
          0.3215686,
          0.3215686,
          0.8
        ],
        "metallicFactor": 0.0,
        "roughnessFactor": 0.5
      }
    },
    {
      "alphaMode": "OPAQUE",
      "name": "material淡蓝色字体",
      "pbrMetallicRoughness": {
        "baseColorFactor": [
          0.0,
          0.7490196,
          1.0,
          1.0
        ],
        "metallicFactor": 0.0,
        "roughnessFactor": 0.5
      }
    },
    {
      "alphaMode": "OPAQUE",
      "name": "material铝",
      "pbrMetallicRoughness": {
        "baseColorFactor": [
          0.9686275,
          0.9686275,
          0.9686275,
          1.0
        ],
        "metallicFactor": 0.0,
        "roughnessFactor": 0.5
      }
    },
    {
      "alphaMode": "OPAQUE",
      "name": "material深灰色金属肋",
      "pbrMetallicRoughness": {
        "baseColorFactor": [
          0.4705882,
          0.4705882,
          0.4705882,
          1.0
        ],
        "metallicFactor": 0.0,
        "roughnessFactor": 0.5
      }
    },
    {
      "alphaMode": "OPAQUE",
      "name": "material红色",
      "pbrMetallicRoughness": {
        "baseColorFactor": [
          0.6980392,
          0.0,
          0.0,
          1.0
        ],
        "metallicFactor": 0.0,
        "roughnessFactor": 0.5
      }
    },
    {
      "alphaMode": "OPAQUE",
      "name": "material白色",
      "pbrMetallicRoughness": {
        "baseColorFactor": [
          0.9568627,
          0.9568627,
          0.9568627,
          1.0
        ],
        "metallicFactor": 0.0,
        "roughnessFactor": 0.5
      }
    },
    {
      "alphaMode": "OPAQUE",
      "name": "material蓝色",
      "pbrMetallicRoughness": {
        "baseColorFactor": [
          0.09019608,
          0.145098,
          0.972549,
          1.0
        ],
        "metallicFactor": 0.0,
        "roughnessFactor": 0.5
      }
    },
    {
      "alphaMode": "OPAQUE",
      "name": "material默认楼板",
      "pbrMetallicRoughness": {
        "baseColorFactor": [
          0.4980392,
          0.4980392,
          0.4980392,
          1.0
        ],
        "metallicFactor": 0.0,
        "roughnessFactor": 0.5
      }
    },
    {
      "alphaMode": "OPAQUE",
      "name": "material门 - 嵌板",
      "pbrMetallicRoughness": {
        "baseColorFactor": [
          0.8235294,
          0.6235294,
          0.372549,
          1.0
        ],
        "metallicFactor": 0.0,
        "roughnessFactor": 0.5
      }
    },
    {
      "alphaMode": "OPAQUE",
      "name": "material门 - 框架",
      "pbrMetallicRoughness": {
        "baseColorFactor": [
          0.4627451,
          0.2745098,
          0.2,
          1.0
        ],
        "metallicFactor": 0.0,
        "roughnessFactor": 0.5
      }
    },
    {
      "alphaMode": "OPAQUE",
      "name": "material金属 - 钢 - 深灰色",
      "pbrMetallicRoughness": {
        "baseColorFactor": [
          0.5019608,
          0.5019608,
          0.5019608,
          1.0
        ],
        "metallicFactor": 0.0,
        "roughnessFactor": 0.5
      }
    },
    {
      "alphaMode": "BLEND",
      "name": "material玻璃",
      "pbrMetallicRoughness": {
        "baseColorFactor": [
          0.854902,
          0.8901961,
          0.8784314,
          0.15
        ],
        "metallicFactor": 0.0,
        "roughnessFactor": 0.5
      }
    }
  ],
  "meshes": [
    {
      "primitives": [
        {
          "attributes": {
            "NORMAL": 1,
            "POSITION": 0,
            "_BATCHID": 2
          },
          "indices": 3,
          "material": 0,
          "mode": 4
        }
      ]
    },
    {
      "primitives": [
        {
          "attributes": {
            "NORMAL": 5,
            "POSITION": 4,
            "_BATCHID": 6
          },
          "indices": 7,
          "material": 0,
          "mode": 4
        }
      ]
    },
    {
      "primitives": [
        {
          "attributes": {
            "NORMAL": 9,
            "POSITION": 8,
            "_BATCHID": 10
          },
          "indices": 11,
          "material": 0,
          "mode": 4
        }
      ]
    },
    {
      "primitives": [
        {
          "attributes": {
            "NORMAL": 13,
            "POSITION": 12,
            "_BATCHID": 14
          },
          "indices": 15,
          "material": 0,
          "mode": 4
        }
      ]
    },
    {
      "primitives": [
        {
          "attributes": {
            "NORMAL": 17,
            "POSITION": 16,
            "_BATCHID": 18
          },
          "indices": 19,
          "material": 1,
          "mode": 4
        }
      ]
    },
    {
      "primitives": [
        {
          "attributes": {
            "NORMAL": 21,
            "POSITION": 20,
            "_BATCHID": 22
          },
          "indices": 23,
          "material": 2,
          "mode": 4
        }
      ]
    },
    {
      "primitives": [
        {
          "attributes": {
            "NORMAL": 25,
            "POSITION": 24,
            "_BATCHID": 26
          },
          "indices": 27,
          "material": 3,
          "mode": 4
        }
      ]
    },
    {
      "primitives": [
        {
          "attributes": {
            "NORMAL": 29,
            "POSITION": 28,
            "_BATCHID": 30
          },
          "indices": 31,
          "material": 4,
          "mode": 4
        }
      ]
    },
    {
      "primitives": [
        {
          "attributes": {
            "NORMAL": 33,
            "POSITION": 32,
            "_BATCHID": 34
          },
          "indices": 35,
          "material": 5,
          "mode": 4
        }
      ]
    },
    {
      "primitives": [
        {
          "attributes": {
            "NORMAL": 37,
            "POSITION": 36,
            "_BATCHID": 38
          },
          "indices": 39,
          "material": 6,
          "mode": 4
        }
      ]
    },
    {
      "primitives": [
        {
          "attributes": {
            "NORMAL": 41,
            "POSITION": 40,
            "_BATCHID": 42
          },
          "indices": 43,
          "material": 7,
          "mode": 4
        }
      ]
    },
    {
      "primitives": [
        {
          "attributes": {
            "NORMAL": 45,
            "POSITION": 44,
            "_BATCHID": 46
          },
          "indices": 47,
          "material": 8,
          "mode": 4
        }
      ]
    },
    {
      "primitives": [
        {
          "attributes": {
            "NORMAL": 49,
            "POSITION": 48,
            "_BATCHID": 50
          },
          "indices": 51,
          "material": 9,
          "mode": 4
        }
      ]
    },
    {
      "primitives": [
        {
          "attributes": {
            "NORMAL": 53,
            "POSITION": 52,
            "_BATCHID": 54
          },
          "indices": 55,
          "material": 10,
          "mode": 4
        }
      ]
    },
    {
      "primitives": [
        {
          "attributes": {
            "NORMAL": 57,
            "POSITION": 56,
            "_BATCHID": 58
          },
          "indices": 59,
          "material": 11,
          "mode": 4
        }
      ]
    },
    {
      "primitives": [
        {
          "attributes": {
            "NORMAL": 61,
            "POSITION": 60,
            "_BATCHID": 62
          },
          "indices": 63,
          "material": 12,
          "mode": 4
        }
      ]
    },
    {
      "primitives": [
        {
          "attributes": {
            "NORMAL": 65,
            "POSITION": 64,
            "_BATCHID": 66
          },
          "indices": 67,
          "material": 13,
          "mode": 4
        }
      ]
    }
  ],
  "nodes": [
    {
      "mesh": 0,
      "name": "test"
    },
    {
      "mesh": 1,
      "name": "test"
    },
    {
      "mesh": 2,
      "name": "test"
    },
    {
      "mesh": 3,
      "name": "test"
    },
    {
      "mesh": 4,
      "name": "test"
    },
    {
      "mesh": 5,
      "name": "test"
    },
    {
      "mesh": 6,
      "name": "test"
    },
    {
      "mesh": 7,
      "name": "test"
    },
    {
      "mesh": 8,
      "name": "test"
    },
    {
      "mesh": 9,
      "name": "test"
    },
    {
      "mesh": 10,
      "name": "test"
    },
    {
      "mesh": 11,
      "name": "test"
    },
    {
      "mesh": 12,
      "name": "test"
    },
    {
      "mesh": 13,
      "name": "test"
    },
    {
      "mesh": 14,
      "name": "test"
    },
    {
      "mesh": 15,
      "name": "test"
    },
    {
      "mesh": 16,
      "name": "test"
    }
  ],
  "scene": 0,
  "scenes": [
    {
      "name": "scene",
      "nodes": [
        0,
        1,
        2,
        3,
        4,
        5,
        6,
        7,
        8,
        9,
        10,
        11,
        12,
        13,
        14,
        15,
        16
      ]
    }
  ]
}
