{
  "accessors": [
    {
      "bufferView": 0,
      "componentType": 5126,
      "count": 5256,
      "max": [
        261.482879638672,
        83.2742080688477,
        455.544586181641
      ],
      "min": [
        122.375213623047,
        5.30833053588867,
        428.149566650391
      ],
      "type": "VEC3"
    },
    {
      "bufferView": 0,
      "byteOffset": 63072,
      "componentType": 5126,
      "count": 5256,
      "type": "VEC3"
    },
    {
      "bufferView": 1,
      "componentType": 5126,
      "count": 5256,
      "type": "SCALAR"
    },
    {
      "bufferView": 2,
      "componentType": 5123,
      "count": 7884,
      "type": "SCALAR"
    },
    {
      "bufferView": 0,
      "byteOffset": 126144,
      "componentType": 5126,
      "count": 65480,
      "max": [
        264.730834960938,
        117.043930053711,
        458.710571289063
      ],
      "min": [
        119.127159118652,
        -28.5105724334717,
        424.310974121094
      ],
      "type": "VEC3"
    },
    {
      "bufferView": 0,
      "byteOffset": 911904,
      "componentType": 5126,
      "count": 65480,
      "type": "VEC3"
    },
    {
      "bufferView": 1,
      "byteOffset": 21024,
      "componentType": 5126,
      "count": 65480,
      "type": "SCALAR"
    },
    {
      "bufferView": 2,
      "byteOffset": 15768,
      "componentType": 5123,
      "count": 151164,
      "type": "SCALAR"
    },
    {
      "bufferView": 0,
      "byteOffset": 1697664,
      "componentType": 5126,
      "count": 64296,
      "max": [
        261.794555664063,
        83.5090560913086,
        465.203887939453
      ],
      "min": [
        122.063537597656,
        5.07348442077637,
        427.250122070313
      ],
      "type": "VEC3"
    },
    {
      "bufferView": 0,
      "byteOffset": 2469216,
      "componentType": 5126,
      "count": 64296,
      "type": "VEC3"
    },
    {
      "bufferView": 1,
      "byteOffset": 282944,
      "componentType": 5126,
      "count": 64296,
      "type": "SCALAR"
    },
    {
      "bufferView": 2,
      "byteOffset": 318096,
      "componentType": 5123,
      "count": 189504,
      "type": "SCALAR"
    },
    {
      "bufferView": 0,
      "byteOffset": 3240768,
      "componentType": 5126,
      "count": 60768,
      "max": [
        236.914566040039,
        81.6717910766602,
        465.203887939453
      ],
      "min": [
        146.94352722168,
        6.9107551574707,
        424.376586914063
      ],
      "type": "VEC3"
    },
    {
      "bufferView": 0,
      "byteOffset": 3969984,
      "componentType": 5126,
      "count": 60768,
      "type": "VEC3"
    },
    {
      "bufferView": 1,
      "byteOffset": 540128,
      "componentType": 5126,
      "count": 60768,
      "type": "SCALAR"
    },
    {
      "bufferView": 2,
      "byteOffset": 697104,
      "componentType": 5123,
      "count": 178380,
      "type": "SCALAR"
    },
    {
      "bufferView": 0,
      "byteOffset": 4699200,
      "componentType": 5126,
      "count": 58746,
      "max": [
        263.779418945313,
        115.157348632813,
        461.614166259766
      ],
      "min": [
        120.078628540039,
        -26.4435749053955,
        424.376586914063
      ],
      "type": "VEC3"
    },
    {
      "bufferView": 0,
      "byteOffset": 5404152,
      "componentType": 5126,
      "count": 58746,
      "type": "VEC3"
    },
    {
      "bufferView": 1,
      "byteOffset": 783200,
      "componentType": 5126,
      "count": 58746,
      "type": "SCALAR"
    },
    {
      "bufferView": 2,
      "byteOffset": 1053864,
      "componentType": 5123,
      "count": 108918,
      "type": "SCALAR"
    },
    {
      "bufferView": 0,
      "byteOffset": 6109104,
      "componentType": 5126,
      "count": 33378,
      "max": [
        197.834503173828,
        68.471061706543,
        460.756317138672
      ],
      "min": [
        166.338500976563,
        24.1141109466553,
        432.091491699219
      ],
      "type": "VEC3"
    },
    {
      "bufferView": 0,
      "byteOffset": 6509640,
      "componentType": 5126,
      "count": 33378,
      "type": "VEC3"
    },
    {
      "bufferView": 1,
      "byteOffset": 1018184,
      "componentType": 5126,
      "count": 33378,
      "type": "SCALAR"
    },
    {
      "bufferView": 2,
      "byteOffset": 1271700,
      "componentType": 5123,
      "count": 72108,
      "type": "SCALAR"
    },
    {
      "bufferView": 0,
      "byteOffset": 6910176,
      "componentType": 5126,
      "count": 216,
      "max": [
        209.809585571289,
        45.9316864013672,
        467.683715820313
      ],
      "min": [
        188.320114135742,
        45.7643623352051,
        424.376586914063
      ],
      "type": "VEC3"
    },
    {
      "bufferView": 0,
      "byteOffset": 6912768,
      "componentType": 5126,
      "count": 216,
      "type": "VEC3"
    },
    {
      "bufferView": 1,
      "byteOffset": 1151696,
      "componentType": 5126,
      "count": 216,
      "type": "SCALAR"
    },
    {
      "bufferView": 2,
      "byteOffset": 1415916,
      "componentType": 5123,
      "count": 324,
      "type": "SCALAR"
    },
    {
      "bufferView": 0,
      "byteOffset": 6915360,
      "componentType": 5126,
      "count": 29632,
      "max": [
        264.648834228516,
        117.04125213623,
        465.357299804688
      ],
      "min": [
        119.209175109863,
        -28.4285526275635,
        424.376586914063
      ],
      "type": "VEC3"
    },
    {
      "bufferView": 0,
      "byteOffset": 7270944,
      "componentType": 5126,
      "count": 29632,
      "type": "VEC3"
    },
    {
      "bufferView": 1,
      "byteOffset": 1152560,
      "componentType": 5126,
      "count": 29632,
      "type": "SCALAR"
    },
    {
      "bufferView": 2,
      "byteOffset": 1416564,
      "componentType": 5123,
      "count": 44448,
      "type": "SCALAR"
    },
    {
      "bufferView": 0,
      "byteOffset": 7626528,
      "componentType": 5126,
      "count": 16504,
      "max": [
        265.222961425781,
        117.585266113281,
        467.163055419922
      ],
      "min": [
        118.635032653809,
        -29.0026988983154,
        424.376586914063
      ],
      "type": "VEC3"
    },
    {
      "bufferView": 0,
      "byteOffset": 7824576,
      "componentType": 5126,
      "count": 16504,
      "type": "VEC3"
    },
    {
      "bufferView": 1,
      "byteOffset": 1271088,
      "componentType": 5126,
      "count": 16504,
      "type": "SCALAR"
    },
    {
      "bufferView": 2,
      "byteOffset": 1505460,
      "componentType": 5123,
      "count": 24756,
      "type": "SCALAR"
    },
    {
      "bufferView": 0,
      "byteOffset": 8022624,
      "componentType": 5126,
      "count": 28452,
      "max": [
        264.648834228516,
        117.011123657227,
        467.995391845703
      ],
      "min": [
        119.209175109863,
        -28.4285526275635,
        424.376586914063
      ],
      "type": "VEC3"
    },
    {
      "bufferView": 0,
      "byteOffset": 8364048,
      "componentType": 5126,
      "count": 28452,
      "type": "VEC3"
    },
    {
      "bufferView": 1,
      "byteOffset": 1337104,
      "componentType": 5126,
      "count": 28452,
      "type": "SCALAR"
    },
    {
      "bufferView": 2,
      "byteOffset": 1554972,
      "componentType": 5123,
      "count": 43176,
      "type": "SCALAR"
    },
    {
      "bufferView": 0,
      "byteOffset": 8705472,
      "componentType": 5126,
      "count": 864,
      "max": [
        210.058929443359,
        46.0137062072754,
        467.933044433594
      ],
      "min": [
        188.070770263672,
        45.0294532775879,
        424.376586914063
      ],
      "type": "VEC3"
    },
    {
      "bufferView": 0,
      "byteOffset": 8715840,
      "componentType": 5126,
      "count": 864,
      "type": "VEC3"
    },
    {
      "bufferView": 1,
      "byteOffset": 1450912,
      "componentType": 5126,
      "count": 864,
      "type": "SCALAR"
    },
    {
      "bufferView": 2,
      "byteOffset": 1641324,
      "componentType": 5123,
      "count": 1512,
      "type": "SCALAR"
    },
    {
      "bufferView": 0,
      "byteOffset": 8726208,
      "componentType": 5126,
      "count": 3576,
      "max": [
        197.736068725586,
        69.704704284668,
        461.023620605469
      ],
      "min": [
        166.436935424805,
        24.1141109466553,
        432.205200195313
      ],
      "type": "VEC3"
    },
    {
      "bufferView": 0,
      "byteOffset": 8769120,
      "componentType": 5126,
      "count": 3576,
      "type": "VEC3"
    },
    {
      "bufferView": 1,
      "byteOffset": 1454368,
      "componentType": 5126,
      "count": 3576,
      "type": "SCALAR"
    },
    {
      "bufferView": 2,
      "byteOffset": 1644348,
      "componentType": 5123,
      "count": 9720,
      "type": "SCALAR"
    },
    {
      "bufferView": 0,
      "byteOffset": 8812032,
      "componentType": 5126,
      "count": 7140,
      "max": [
        204.992904663086,
        45.1114730834961,
        460.235656738281
      ],
      "min": [
        201.706390380859,
        45.0458564758301,
        434.116760253906
      ],
      "type": "VEC3"
    },
    {
      "bufferView": 0,
      "byteOffset": 8897712,
      "componentType": 5126,
      "count": 7140,
      "type": "VEC3"
    },
    {
      "bufferView": 1,
      "byteOffset": 1468672,
      "componentType": 5126,
      "count": 7140,
      "type": "SCALAR"
    },
    {
      "bufferView": 2,
      "byteOffset": 1663788,
      "componentType": 5123,
      "count": 14004,
      "type": "SCALAR"
    },
    {
      "bufferView": 0,
      "byteOffset": 8983392,
      "componentType": 5126,
      "count": 3240,
      "max": [
        199.474990844727,
        72.205192565918,
        460.686828613281
      ],
      "min": [
        196.325378417969,
        20.2473011016846,
        434.757476806641
      ],
      "type": "VEC3"
    },
    {
      "bufferView": 0,
      "byteOffset": 9022272,
      "componentType": 5126,
      "count": 3240,
      "type": "VEC3"
    },
    {
      "bufferView": 1,
      "byteOffset": 1497232,
      "componentType": 5126,
      "count": 3240,
      "type": "SCALAR"
    },
    {
      "bufferView": 2,
      "byteOffset": 1691796,
      "componentType": 5123,
      "count": 6312,
      "type": "SCALAR"
    },
    {
      "bufferView": 0,
      "byteOffset": 9061152,
      "componentType": 5126,
      "count": 17700,
      "max": [
        191.666519165039,
        69.8031311035156,
        461.089233398438
      ],
      "min": [
        191.60090637207,
        56.6797752380371,
        434.875366210938
      ],
      "type": "VEC3"
    },
    {
      "bufferView": 0,
      "byteOffset": 9273552,
      "componentType": 5126,
      "count": 17700,
      "type": "VEC3"
    },
    {
      "bufferView": 1,
      "byteOffset": 1510192,
      "componentType": 5126,
      "count": 17700,
      "type": "SCALAR"
    },
    {
      "bufferView": 2,
      "byteOffset": 1704420,
      "componentType": 5123,
      "count": 35028,
      "type": "SCALAR"
    },
    {
      "bufferView": 0,
      "byteOffset": 9485952,
      "componentType": 5126,
      "count": 3780,
      "max": [
        263.779418945313,
        116.141662597656,
        461.778228759766
      ],
      "min": [
        120.078628540039,
        -27.5591239929199,
        436.679779052734
      ],
      "type": "VEC3"
    },
    {
      "bufferView": 0,
      "byteOffset": 9531312,
      "componentType": 5126,
      "count": 3780,
      "type": "VEC3"
    },
    {
      "bufferView": 1,
      "byteOffset": 1580992,
      "componentType": 5126,
      "count": 3780,
      "type": "SCALAR"
    },
    {
      "bufferView": 2,
      "byteOffset": 1774476,
      "componentType": 5123,
      "count": 9180,
      "type": "SCALAR"
    }
  ],
  "asset": {
    "version": "2.0"
  },
  "bufferViews": [
    {
      "buffer": 0,
      "byteLength": 9576672,
      "byteStride": 12,
      "target": 34962
    },
    {
      "buffer": 0,
      "byteLength": 1596112,
      "byteOffset": 9576672,
      "byteStride": 4,
      "target": 34962
    },
    {
      "buffer": 0,
      "byteLength": 1792836,
      "byteOffset": 11172784,
      "target": 34963
    }
  ],
  "buffers": [
    {
      "byteLength": 12965620,
      "uri": "7-8.bin"
    }
  ],
  "materials": [
    {
      "alphaMode": "BLEND",
      "name": "material玻璃",
      "pbrMetallicRoughness": {
        "baseColorFactor": [
          0.854902,
          0.8901961,
          0.8784314,
          0.15
        ],
        "metallicFactor": 0.0,
        "roughnessFactor": 0.5
      }
    },
    {
      "alphaMode": "BLEND",
      "name": "material",
      "pbrMetallicRoughness": {
        "baseColorFactor": [
          0.8,
          0.8,
          0.8,
          0.0
        ],
        "metallicFactor": 0.0,
        "roughnessFactor": 0.0
      }
    },
    {
      "alphaMode": "OPAQUE",
      "name": "material金属 - 钢 - 深灰色",
      "pbrMetallicRoughness": {
        "baseColorFactor": [
          0.5019608,
          0.5019608,
          0.5019608,
          1.0
        ],
        "metallicFactor": 0.0,
        "roughnessFactor": 0.5
      }
    },
    {
      "alphaMode": "OPAQUE",
      "name": "material淡蓝色字体",
      "pbrMetallicRoughness": {
        "baseColorFactor": [
          0.0,
          0.7490196,
          1.0,
          1.0
        ],
        "metallicFactor": 0.0,
        "roughnessFactor": 0.5
      }
    },
    {
      "alphaMode": "OPAQUE",
      "name": "material门 - 嵌板",
      "pbrMetallicRoughness": {
        "baseColorFactor": [
          0.8235294,
          0.6235294,
          0.372549,
          1.0
        ],
        "metallicFactor": 0.0,
        "roughnessFactor": 0.5
      }
    },
    {
      "alphaMode": "OPAQUE",
      "name": "material铝",
      "pbrMetallicRoughness": {
        "baseColorFactor": [
          0.9686275,
          0.9686275,
          0.9686275,
          1.0
        ],
        "metallicFactor": 0.0,
        "roughnessFactor": 0.5
      }
    },
    {
      "alphaMode": "OPAQUE",
      "name": "material深灰色金属肋",
      "pbrMetallicRoughness": {
        "baseColorFactor": [
          0.4705882,
          0.4705882,
          0.4705882,
          1.0
        ],
        "metallicFactor": 0.0,
        "roughnessFactor": 0.5
      }
    },
    {
      "alphaMode": "BLEND",
      "name": "material灰绿色玻璃",
      "pbrMetallicRoughness": {
        "baseColorFactor": [
          0.1607843,
          0.3215686,
          0.3215686,
          0.8
        ],
        "metallicFactor": 0.0,
        "roughnessFactor": 0.5
      }
    },
    {
      "alphaMode": "OPAQUE",
      "name": "material门 - 框架",
      "pbrMetallicRoughness": {
        "baseColorFactor": [
          0.4627451,
          0.2745098,
          0.2,
          1.0
        ],
        "metallicFactor": 0.0,
        "roughnessFactor": 0.5
      }
    },
    {
      "alphaMode": "OPAQUE",
      "name": "material白色",
      "pbrMetallicRoughness": {
        "baseColorFactor": [
          0.9568627,
          0.9568627,
          0.9568627,
          1.0
        ],
        "metallicFactor": 0.0,
        "roughnessFactor": 0.5
      }
    },
    {
      "alphaMode": "OPAQUE",
      "name": "material功能性房间",
      "pbrMetallicRoughness": {
        "baseColorFactor": [
          0.0,
          0.0,
          1.0,
          1.0
        ],
        "metallicFactor": 0.0,
        "roughnessFactor": 0.5
      }
    },
    {
      "alphaMode": "OPAQUE",
      "name": "material蓝色",
      "pbrMetallicRoughness": {
        "baseColorFactor": [
          0.09019608,
          0.145098,
          0.972549,
          1.0
        ],
        "metallicFactor": 0.0,
        "roughnessFactor": 0.5
      }
    },
    {
      "alphaMode": "OPAQUE",
      "name": "material红色",
      "pbrMetallicRoughness": {
        "baseColorFactor": [
          0.6980392,
          0.0,
          0.0,
          1.0
        ],
        "metallicFactor": 0.0,
        "roughnessFactor": 0.5
      }
    },
    {
      "alphaMode": "OPAQUE",
      "name": "material默认楼板",
      "pbrMetallicRoughness": {
        "baseColorFactor": [
          0.4980392,
          0.4980392,
          0.4980392,
          1.0
        ],
        "metallicFactor": 0.0,
        "roughnessFactor": 0.5
      }
    }
  ],
  "meshes": [
    {
      "primitives": [
        {
          "attributes": {
            "NORMAL": 1,
            "POSITION": 0,
            "_BATCHID": 2
          },
          "indices": 3,
          "material": 0,
          "mode": 4
        }
      ]
    },
    {
      "primitives": [
        {
          "attributes": {
            "NORMAL": 5,
            "POSITION": 4,
            "_BATCHID": 6
          },
          "indices": 7,
          "material": 1,
          "mode": 4
        }
      ]
    },
    {
      "primitives": [
        {
          "attributes": {
            "NORMAL": 9,
            "POSITION": 8,
            "_BATCHID": 10
          },
          "indices": 11,
          "material": 1,
          "mode": 4
        }
      ]
    },
    {
      "primitives": [
        {
          "attributes": {
            "NORMAL": 13,
            "POSITION": 12,
            "_BATCHID": 14
          },
          "indices": 15,
          "material": 1,
          "mode": 4
        }
      ]
    },
    {
      "primitives": [
        {
          "attributes": {
            "NORMAL": 17,
            "POSITION": 16,
            "_BATCHID": 18
          },
          "indices": 19,
          "material": 2,
          "mode": 4
        }
      ]
    },
    {
      "primitives": [
        {
          "attributes": {
            "NORMAL": 21,
            "POSITION": 20,
            "_BATCHID": 22
          },
          "indices": 23,
          "material": 3,
          "mode": 4
        }
      ]
    },
    {
      "primitives": [
        {
          "attributes": {
            "NORMAL": 25,
            "POSITION": 24,
            "_BATCHID": 26
          },
          "indices": 27,
          "material": 4,
          "mode": 4
        }
      ]
    },
    {
      "primitives": [
        {
          "attributes": {
            "NORMAL": 29,
            "POSITION": 28,
            "_BATCHID": 30
          },
          "indices": 31,
          "material": 5,
          "mode": 4
        }
      ]
    },
    {
      "primitives": [
        {
          "attributes": {
            "NORMAL": 33,
            "POSITION": 32,
            "_BATCHID": 34
          },
          "indices": 35,
          "material": 6,
          "mode": 4
        }
      ]
    },
    {
      "primitives": [
        {
          "attributes": {
            "NORMAL": 37,
            "POSITION": 36,
            "_BATCHID": 38
          },
          "indices": 39,
          "material": 7,
          "mode": 4
        }
      ]
    },
    {
      "primitives": [
        {
          "attributes": {
            "NORMAL": 41,
            "POSITION": 40,
            "_BATCHID": 42
          },
          "indices": 43,
          "material": 8,
          "mode": 4
        }
      ]
    },
    {
      "primitives": [
        {
          "attributes": {
            "NORMAL": 45,
            "POSITION": 44,
            "_BATCHID": 46
          },
          "indices": 47,
          "material": 9,
          "mode": 4
        }
      ]
    },
    {
      "primitives": [
        {
          "attributes": {
            "NORMAL": 49,
            "POSITION": 48,
            "_BATCHID": 50
          },
          "indices": 51,
          "material": 10,
          "mode": 4
        }
      ]
    },
    {
      "primitives": [
        {
          "attributes": {
            "NORMAL": 53,
            "POSITION": 52,
            "_BATCHID": 54
          },
          "indices": 55,
          "material": 11,
          "mode": 4
        }
      ]
    },
    {
      "primitives": [
        {
          "attributes": {
            "NORMAL": 57,
            "POSITION": 56,
            "_BATCHID": 58
          },
          "indices": 59,
          "material": 12,
          "mode": 4
        }
      ]
    },
    {
      "primitives": [
        {
          "attributes": {
            "NORMAL": 61,
            "POSITION": 60,
            "_BATCHID": 62
          },
          "indices": 63,
          "material": 13,
          "mode": 4
        }
      ]
    }
  ],
  "nodes": [
    {
      "mesh": 0,
      "name": "test"
    },
    {
      "mesh": 1,
      "name": "test"
    },
    {
      "mesh": 2,
      "name": "test"
    },
    {
      "mesh": 3,
      "name": "test"
    },
    {
      "mesh": 4,
      "name": "test"
    },
    {
      "mesh": 5,
      "name": "test"
    },
    {
      "mesh": 6,
      "name": "test"
    },
    {
      "mesh": 7,
      "name": "test"
    },
    {
      "mesh": 8,
      "name": "test"
    },
    {
      "mesh": 9,
      "name": "test"
    },
    {
      "mesh": 10,
      "name": "test"
    },
    {
      "mesh": 11,
      "name": "test"
    },
    {
      "mesh": 12,
      "name": "test"
    },
    {
      "mesh": 13,
      "name": "test"
    },
    {
      "mesh": 14,
      "name": "test"
    },
    {
      "mesh": 15,
      "name": "test"
    }
  ],
  "scene": 0,
  "scenes": [
    {
      "name": "scene",
      "nodes": [
        0,
        1,
        2,
        3,
        4,
        5,
        6,
        7,
        8,
        9,
        10,
        11,
        12,
        13,
        14,
        15
      ]
    }
  ]
}
