{
  "accessors": [
    {
      "bufferView": 0,
      "componentType": 5126,
      "count": 24,
      "max": [
        267.060241699219,
        116.223487854004,
        120.734924316406
      ],
      "min": [
        265.091735839844,
        115.567314147949,
        110.892402648926
      ],
      "type": "VEC3"
    },
    {
      "bufferView": 0,
      "byteOffset": 288,
      "componentType": 5126,
      "count": 24,
      "type": "VEC3"
    },
    {
      "bufferView": 1,
      "componentType": 5126,
      "count": 24,
      "type": "SCALAR"
    },
    {
      "bufferView": 2,
      "componentType": 5123,
      "count": 36,
      "type": "SCALAR"
    },
    {
      "bufferView": 0,
      "byteOffset": 576,
      "componentType": 5126,
      "count": 64032,
      "max": [
        297.572143554688,
        295.911590576172,
        120.734924316406
      ],
      "min": [
        101.853874206543,
        125.204795837402,
        110.892402648926
      ],
      "type": "VEC3"
    },
    {
      "bufferView": 0,
      "byteOffset": 768960,
      "componentType": 5126,
      "count": 64032,
      "type": "VEC3"
    },
    {
      "bufferView": 1,
      "byteOffset": 96,
      "componentType": 5126,
      "count": 64032,
      "type": "SCALAR"
    },
    {
      "bufferView": 2,
      "byteOffset": 72,
      "componentType": 5123,
      "count": 112056,
      "type": "SCALAR"
    },
    {
      "bufferView": 0,
      "byteOffset": 1537344,
      "componentType": 5126,
      "count": 64032,
      "max": [
        297.572143554688,
        344.122894287109,
        120.734924316406
      ],
      "min": [
        -3.18889498710632,
        71.8933715820313,
        110.892402648926
      ],
      "type": "VEC3"
    },
    {
      "bufferView": 0,
      "byteOffset": 2305728,
      "componentType": 5126,
      "count": 64032,
      "type": "VEC3"
    },
    {
      "bufferView": 1,
      "byteOffset": 256224,
      "componentType": 5126,
      "count": 64032,
      "type": "SCALAR"
    },
    {
      "bufferView": 2,
      "byteOffset": 224184,
      "componentType": 5123,
      "count": 112056,
      "type": "SCALAR"
    },
    {
      "bufferView": 0,
      "byteOffset": 3074112,
      "componentType": 5126,
      "count": 64032,
      "max": [
        297.572143554688,
        292.371215820313,
        120.734924316406
      ],
      "min": [
        -4.93007278442383,
        85.7220687866211,
        110.892402648926
      ],
      "type": "VEC3"
    },
    {
      "bufferView": 0,
      "byteOffset": 3842496,
      "componentType": 5126,
      "count": 64032,
      "type": "VEC3"
    },
    {
      "bufferView": 1,
      "byteOffset": 512352,
      "componentType": 5126,
      "count": 64032,
      "type": "SCALAR"
    },
    {
      "bufferView": 2,
      "byteOffset": 448296,
      "componentType": 5123,
      "count": 112056,
      "type": "SCALAR"
    },
    {
      "bufferView": 0,
      "byteOffset": 4610880,
      "componentType": 5126,
      "count": 64032,
      "max": [
        297.572143554688,
        302.941833496094,
        120.734924316406
      ],
      "min": [
        -8.63035583496094,
        74.6613082885742,
        110.892402648926
      ],
      "type": "VEC3"
    },
    {
      "bufferView": 0,
      "byteOffset": 5379264,
      "componentType": 5126,
      "count": 64032,
      "type": "VEC3"
    },
    {
      "bufferView": 1,
      "byteOffset": 768480,
      "componentType": 5126,
      "count": 64032,
      "type": "SCALAR"
    },
    {
      "bufferView": 2,
      "byteOffset": 672408,
      "componentType": 5123,
      "count": 112056,
      "type": "SCALAR"
    },
    {
      "bufferView": 0,
      "byteOffset": 6147648,
      "componentType": 5126,
      "count": 65280,
      "max": [
        297.548156738281,
        344.120056152344,
        124.885147094727
      ],
      "min": [
        52.0481033325195,
        -28.4285526275635,
        109.908096313477
      ],
      "type": "VEC3"
    },
    {
      "bufferView": 0,
      "byteOffset": 6931008,
      "componentType": 5126,
      "count": 65280,
      "type": "VEC3"
    },
    {
      "bufferView": 1,
      "byteOffset": 1024608,
      "componentType": 5126,
      "count": 65280,
      "type": "SCALAR"
    },
    {
      "bufferView": 2,
      "byteOffset": 896520,
      "componentType": 5123,
      "count": 114240,
      "type": "SCALAR"
    },
    {
      "bufferView": 0,
      "byteOffset": 7714368,
      "componentType": 5126,
      "count": 64512,
      "max": [
        292.895843505859,
        322.464660644531,
        121.719177246094
      ],
      "min": [
        106.499847412109,
        242.659973144531,
        109.908096313477
      ],
      "type": "VEC3"
    },
    {
      "bufferView": 0,
      "byteOffset": 8488512,
      "componentType": 5126,
      "count": 64512,
      "type": "VEC3"
    },
    {
      "bufferView": 1,
      "byteOffset": 1285728,
      "componentType": 5126,
      "count": 64512,
      "type": "SCALAR"
    },
    {
      "bufferView": 2,
      "byteOffset": 1125000,
      "componentType": 5123,
      "count": 112896,
      "type": "SCALAR"
    },
    {
      "bufferView": 0,
      "byteOffset": 9262656,
      "componentType": 5126,
      "count": 9216,
      "max": [
        247.30973815918,
        332.904266357422,
        121.719177246094
      ],
      "min": [
        115.215423583984,
        262.333068847656,
        109.908096313477
      ],
      "type": "VEC3"
    },
    {
      "bufferView": 0,
      "byteOffset": 9373248,
      "componentType": 5126,
      "count": 9216,
      "type": "VEC3"
    },
    {
      "bufferView": 1,
      "byteOffset": 1543776,
      "componentType": 5126,
      "count": 9216,
      "type": "SCALAR"
    },
    {
      "bufferView": 2,
      "byteOffset": 1350792,
      "componentType": 5123,
      "count": 16128,
      "type": "SCALAR"
    },
    {
      "bufferView": 0,
      "byteOffset": 9483840,
      "componentType": 5126,
      "count": 192,
      "max": [
        265.222961425781,
        117.585266113281,
        123.478858947754
      ],
      "min": [
        118.635032653809,
        -29.0026988983154,
        114.173202514648
      ],
      "type": "VEC3"
    },
    {
      "bufferView": 0,
      "byteOffset": 9486144,
      "componentType": 5126,
      "count": 192,
      "type": "VEC3"
    },
    {
      "bufferView": 1,
      "byteOffset": 1580640,
      "componentType": 5126,
      "count": 192,
      "type": "SCALAR"
    },
    {
      "bufferView": 2,
      "byteOffset": 1383048,
      "componentType": 5123,
      "count": 288,
      "type": "SCALAR"
    },
    {
      "bufferView": 0,
      "byteOffset": 9488448,
      "componentType": 5126,
      "count": 3236,
      "max": [
        297.572143554688,
        341.056030273438,
        121.719200134277
      ],
      "min": [
        -9.05553150177002,
        71.3798446655273,
        109.908096313477
      ],
      "type": "VEC3"
    },
    {
      "bufferView": 0,
      "byteOffset": 9527280,
      "componentType": 5126,
      "count": 3236,
      "type": "VEC3"
    },
    {
      "bufferView": 1,
      "byteOffset": 1581408,
      "componentType": 5126,
      "count": 3236,
      "type": "SCALAR"
    },
    {
      "bufferView": 2,
      "byteOffset": 1383624,
      "componentType": 5123,
      "count": 4854,
      "type": "SCALAR"
    },
    {
      "bufferView": 0,
      "byteOffset": 9566112,
      "componentType": 5126,
      "count": 936,
      "max": [
        264.599609375,
        117.585189819336,
        124.885147094727
      ],
      "min": [
        119.258392333984,
        -29.0360679626465,
        114.173202514648
      ],
      "type": "VEC3"
    },
    {
      "bufferView": 0,
      "byteOffset": 9577344,
      "componentType": 5126,
      "count": 936,
      "type": "VEC3"
    },
    {
      "bufferView": 1,
      "byteOffset": 1594352,
      "componentType": 5126,
      "count": 936,
      "type": "SCALAR"
    },
    {
      "bufferView": 2,
      "byteOffset": 1393332,
      "componentType": 5123,
      "count": 1428,
      "type": "SCALAR"
    },
    {
      "bufferView": 0,
      "byteOffset": 9588576,
      "componentType": 5126,
      "count": 672,
      "max": [
        267.880645751953,
        116.059646606445,
        121.719131469727
      ],
      "min": [
        -29.2339973449707,
        -76.6417999267578,
        114.173202514648
      ],
      "type": "VEC3"
    },
    {
      "bufferView": 0,
      "byteOffset": 9596640,
      "componentType": 5126,
      "count": 672,
      "type": "VEC3"
    },
    {
      "bufferView": 1,
      "byteOffset": 1598096,
      "componentType": 5126,
      "count": 672,
      "type": "SCALAR"
    },
    {
      "bufferView": 2,
      "byteOffset": 1396188,
      "componentType": 5123,
      "count": 1008,
      "type": "SCALAR"
    }
  ],
  "asset": {
    "version": "2.0"
  },
  "bufferViews": [
    {
      "buffer": 0,
      "byteLength": 9604704,
      "byteStride": 12,
      "target": 34962
    },
    {
      "buffer": 0,
      "byteLength": 1600784,
      "byteOffset": 9604704,
      "byteStride": 4,
      "target": 34962
    },
    {
      "buffer": 0,
      "byteLength": 1398204,
      "byteOffset": 11205488,
      "target": 34963
    }
  ],
  "buffers": [
    {
      "byteLength": 12603692,
      "uri": "7-1.bin"
    }
  ],
  "materials": [
    {
      "alphaMode": "BLEND",
      "name": "material玻璃",
      "pbrMetallicRoughness": {
        "baseColorFactor": [
          0.854902,
          0.8901961,
          0.8784314,
          0.15
        ],
        "metallicFactor": 0.0,
        "roughnessFactor": 0.5
      }
    },
    {
      "alphaMode": "BLEND",
      "name": "material",
      "pbrMetallicRoughness": {
        "baseColorFactor": [
          0.8,
          0.8,
          0.8,
          0.0
        ],
        "metallicFactor": 0.0,
        "roughnessFactor": 0.0
      }
    },
    {
      "alphaMode": "OPAQUE",
      "name": "material深灰色金属肋",
      "pbrMetallicRoughness": {
        "baseColorFactor": [
          0.4705882,
          0.4705882,
          0.4705882,
          1.0
        ],
        "metallicFactor": 0.0,
        "roughnessFactor": 0.5
      }
    },
    {
      "alphaMode": "OPAQUE",
      "name": "material铝",
      "pbrMetallicRoughness": {
        "baseColorFactor": [
          0.9686275,
          0.9686275,
          0.9686275,
          1.0
        ],
        "metallicFactor": 0.0,
        "roughnessFactor": 0.5
      }
    },
    {
      "alphaMode": "BLEND",
      "name": "material灰绿色玻璃",
      "pbrMetallicRoughness": {
        "baseColorFactor": [
          0.1607843,
          0.3215686,
          0.3215686,
          0.8
        ],
        "metallicFactor": 0.0,
        "roughnessFactor": 0.5
      }
    },
    {
      "alphaMode": "OPAQUE",
      "name": "material枫叶棕石材",
      "pbrMetallicRoughness": {
        "baseColorFactor": [
          0.2627451,
          0.1607843,
          0.0,
          1.0
        ],
        "metallicFactor": 0.0,
        "roughnessFactor": 0.5
      }
    }
  ],
  "meshes": [
    {
      "primitives": [
        {
          "attributes": {
            "NORMAL": 1,
            "POSITION": 0,
            "_BATCHID": 2
          },
          "indices": 3,
          "material": 0,
          "mode": 4
        }
      ]
    },
    {
      "primitives": [
        {
          "attributes": {
            "NORMAL": 5,
            "POSITION": 4,
            "_BATCHID": 6
          },
          "indices": 7,
          "material": 1,
          "mode": 4
        }
      ]
    },
    {
      "primitives": [
        {
          "attributes": {
            "NORMAL": 9,
            "POSITION": 8,
            "_BATCHID": 10
          },
          "indices": 11,
          "material": 1,
          "mode": 4
        }
      ]
    },
    {
      "primitives": [
        {
          "attributes": {
            "NORMAL": 13,
            "POSITION": 12,
            "_BATCHID": 14
          },
          "indices": 15,
          "material": 1,
          "mode": 4
        }
      ]
    },
    {
      "primitives": [
        {
          "attributes": {
            "NORMAL": 17,
            "POSITION": 16,
            "_BATCHID": 18
          },
          "indices": 19,
          "material": 1,
          "mode": 4
        }
      ]
    },
    {
      "primitives": [
        {
          "attributes": {
            "NORMAL": 21,
            "POSITION": 20,
            "_BATCHID": 22
          },
          "indices": 23,
          "material": 1,
          "mode": 4
        }
      ]
    },
    {
      "primitives": [
        {
          "attributes": {
            "NORMAL": 25,
            "POSITION": 24,
            "_BATCHID": 26
          },
          "indices": 27,
          "material": 1,
          "mode": 4
        }
      ]
    },
    {
      "primitives": [
        {
          "attributes": {
            "NORMAL": 29,
            "POSITION": 28,
            "_BATCHID": 30
          },
          "indices": 31,
          "material": 1,
          "mode": 4
        }
      ]
    },
    {
      "primitives": [
        {
          "attributes": {
            "NORMAL": 33,
            "POSITION": 32,
            "_BATCHID": 34
          },
          "indices": 35,
          "material": 2,
          "mode": 4
        }
      ]
    },
    {
      "primitives": [
        {
          "attributes": {
            "NORMAL": 37,
            "POSITION": 36,
            "_BATCHID": 38
          },
          "indices": 39,
          "material": 3,
          "mode": 4
        }
      ]
    },
    {
      "primitives": [
        {
          "attributes": {
            "NORMAL": 41,
            "POSITION": 40,
            "_BATCHID": 42
          },
          "indices": 43,
          "material": 4,
          "mode": 4
        }
      ]
    },
    {
      "primitives": [
        {
          "attributes": {
            "NORMAL": 45,
            "POSITION": 44,
            "_BATCHID": 46
          },
          "indices": 47,
          "material": 5,
          "mode": 4
        }
      ]
    }
  ],
  "nodes": [
    {
      "mesh": 0,
      "name": "test"
    },
    {
      "mesh": 1,
      "name": "test"
    },
    {
      "mesh": 2,
      "name": "test"
    },
    {
      "mesh": 3,
      "name": "test"
    },
    {
      "mesh": 4,
      "name": "test"
    },
    {
      "mesh": 5,
      "name": "test"
    },
    {
      "mesh": 6,
      "name": "test"
    },
    {
      "mesh": 7,
      "name": "test"
    },
    {
      "mesh": 8,
      "name": "test"
    },
    {
      "mesh": 9,
      "name": "test"
    },
    {
      "mesh": 10,
      "name": "test"
    },
    {
      "mesh": 11,
      "name": "test"
    }
  ],
  "scene": 0,
  "scenes": [
    {
      "name": "scene",
      "nodes": [
        0,
        1,
        2,
        3,
        4,
        5,
        6,
        7,
        8,
        9,
        10,
        11
      ]
    }
  ]
}
